<svg viewBox="0 0 82.6445 32" xmlns="http://www.w3.org/2000/svg" xmlns:xlink="http://www.w3.org/1999/xlink" width="82.644531" height="32.000000" fill="none">
	<rect id="food" width="82.644630" height="32.000000" x="0.000000" y="0.000000" fill="rgb(255,255,255)" fill-opacity="0" />
	<path id="Vector" d="M72.6579 18.3893C72.334 18.3893 72.0911 18.3083 71.9022 18.1194C71.7402 17.9574 71.6323 17.6875 71.6323 17.3636L71.6323 7.40416C71.6323 7.08028 71.7132 6.81037 71.9022 6.64843C72.0911 6.48649 72.334 6.40552 72.6579 6.40552L74.4663 6.40552C74.8711 6.40552 75.222 6.43251 75.5189 6.4595C75.8158 6.51348 76.0857 6.59445 76.2746 6.75639C76.4905 6.91833 76.6255 7.13426 76.7335 7.45814C76.8414 7.75504 76.8954 8.18688 76.8954 8.6997L76.8954 16.0951C76.8954 16.7698 76.8144 17.2557 76.6255 17.5795C76.4366 17.9034 76.1667 18.1194 75.8158 18.2273C75.4649 18.3353 75.0061 18.3893 74.4663 18.3623L72.6579 18.3893ZM66.855 0.602578C66.5311 0.629568 66.2612 0.71054 66.0992 0.872482C65.9373 1.03442 65.8563 1.30433 65.8563 1.62821L65.8563 23.1666C65.8563 23.4904 65.9373 23.7334 66.1262 23.9223C66.2882 24.0842 66.5581 24.1922 66.882 24.1922L74.3853 24.1922C75.9507 24.1922 77.3003 24.0303 78.3799 23.7064C79.4595 23.3825 80.3232 22.8697 80.971 22.2219C81.6187 21.5741 82.1046 20.7104 82.3745 19.6848C82.6714 18.6592 82.8063 17.4716 82.8063 16.0951L82.8063 8.6997C82.8063 7.32319 82.6714 6.13561 82.3745 5.10998C82.0776 4.08434 81.6187 3.24764 80.971 2.59987C80.3232 1.92511 79.4595 1.43928 78.3799 1.1154C77.3003 0.791511 75.9777 0.629568 74.3853 0.629568L66.855 0.602578ZM57.0305 14.8265C57.0305 15.4743 57.0035 16.0681 56.9765 16.5809C56.9225 17.0937 56.8145 17.5256 56.6526 17.9034C56.4907 18.2813 56.2207 18.5512 55.8429 18.7401C55.492 18.9291 55.0062 19.037 54.3854 19.037C53.7646 19.037 53.2788 18.9291 52.9279 18.7401C52.5501 18.5512 52.3071 18.2813 52.1182 17.9034C51.9563 17.5526 51.8483 17.0937 51.7943 16.5809C51.7403 16.0681 51.7134 15.4743 51.7403 14.8265L51.7403 9.96825C51.7403 9.32048 51.7673 8.72669 51.7943 8.21387C51.8483 7.70106 51.9563 7.26921 52.1182 6.89134C52.2802 6.51348 52.5501 6.24357 52.9279 6.05464C53.2788 5.86571 53.7646 5.75775 54.3854 5.75775C55.0062 5.75775 55.492 5.86571 55.8429 6.05464C56.2207 6.24357 56.4637 6.51348 56.6526 6.89134C56.8145 7.24222 56.9225 7.70106 56.9765 8.21387C57.0305 8.72669 57.0305 9.32048 57.0305 9.96825L57.0305 14.8265ZM62.8064 8.18688C62.8064 7.80902 62.7794 7.35018 62.7254 6.81037C62.6715 6.27056 62.5635 5.70376 62.3746 5.08299C62.1856 4.46221 61.9157 3.86842 61.5649 3.27463C61.187 2.68084 60.7012 2.14103 60.0804 1.6552C59.4596 1.16938 58.6769 0.764521 57.7322 0.467626C56.7875 0.170732 55.654 0.0357795 54.3314 0.00878906C53.0089 0.00878906 51.8753 0.170732 50.9306 0.467626C49.986 0.764521 49.2032 1.16938 48.5825 1.6552C47.9617 2.14103 47.4759 2.68084 47.098 3.27463C46.7201 3.86842 46.4502 4.4892 46.2883 5.08299C46.0993 5.70376 45.9914 6.27056 45.9374 6.81037C45.8834 7.35018 45.8564 7.80902 45.8564 8.18688L45.8564 16.6079C45.8564 16.9858 45.8834 17.4446 45.9374 17.9844C45.9914 18.5242 46.0993 19.091 46.2883 19.7118C46.4502 20.3326 46.7471 20.9264 47.098 21.5201C47.4759 22.1139 47.9617 22.6537 48.5825 23.1666C49.2032 23.6524 49.986 24.0572 50.9306 24.3271C51.8753 24.624 53.0089 24.786 54.3314 24.786C55.654 24.786 56.7875 24.624 57.7322 24.3271C58.6769 24.0303 59.4596 23.6524 60.0804 23.1666C60.7012 22.6807 61.187 22.1409 61.5649 21.5201C61.9427 20.9264 62.2126 20.3056 62.3746 19.7118C62.5365 19.091 62.6715 18.5242 62.7254 17.9844C62.7794 17.4446 62.8064 16.9858 62.8064 16.6079L62.8064 8.18688ZM37.4084 14.8265C37.4084 15.4743 37.3814 16.0681 37.3545 16.5809C37.3005 17.0937 37.1925 17.5256 37.0306 17.9034C36.8686 18.2813 36.5987 18.5512 36.2209 18.7401C35.87 18.9291 35.3842 19.037 34.7634 19.037C34.1426 19.037 33.6568 18.9291 33.3059 18.7401C32.928 18.5512 32.6851 18.2813 32.4962 17.9034C32.3342 17.5526 32.2263 17.0937 32.1723 16.5809C32.1183 16.0681 32.0913 15.4743 32.1183 14.8265L32.1183 9.96825C32.1183 9.32048 32.1453 8.72669 32.1723 8.21387C32.2263 7.70106 32.3342 7.26921 32.4962 6.89134C32.6581 6.51348 32.928 6.24357 33.3059 6.05464C33.6568 5.86571 34.1426 5.75775 34.7634 5.75775C35.3842 5.75775 35.87 5.86571 36.2209 6.05464C36.5987 6.24357 36.8416 6.51348 37.0306 6.89134C37.1925 7.24222 37.3005 7.70106 37.3545 8.21387C37.4084 8.72669 37.4084 9.32048 37.4084 9.96825L37.4084 14.8265ZM43.2114 8.18688C43.2114 7.80902 43.1844 7.35018 43.1304 6.81037C43.0764 6.27056 42.9685 5.70376 42.7795 5.08299C42.5906 4.46221 42.3207 3.86842 41.9698 3.27463C41.5919 2.68084 41.1061 2.14103 40.4853 1.6552C39.8646 1.16938 39.0818 0.764521 38.1372 0.467626C37.1925 0.170732 36.0589 0.0357795 34.7364 0.00878906C33.4139 0.00878906 32.2803 0.170732 31.3356 0.467626C30.3909 0.764521 29.6082 1.16938 28.9874 1.6552C28.3666 2.14103 27.8808 2.68084 27.503 3.27463C27.1251 3.86842 26.8552 4.4892 26.6932 5.08299C26.5043 5.70376 26.3963 6.27056 26.3424 6.81037C26.2884 7.35018 26.2614 7.80902 26.2614 8.18688L26.2614 16.6079C26.2614 16.9858 26.2884 17.4446 26.3424 17.9844C26.3963 18.5242 26.5043 19.091 26.6932 19.7118C26.8552 20.3326 27.1521 20.9264 27.503 21.5201C27.8808 22.1139 28.3666 22.6537 28.9874 23.1666C29.6082 23.6524 30.3909 24.0572 31.3356 24.3271C32.2803 24.624 33.4139 24.786 34.7364 24.786C36.0589 24.786 37.1925 24.624 38.1372 24.3271C39.0818 24.0303 39.8646 23.6524 40.4853 23.1666C41.1061 22.6807 41.5919 22.1409 41.9698 21.5201C42.3477 20.9264 42.6176 20.3056 42.7795 19.7118C42.9415 19.091 43.0764 18.5242 43.1304 17.9844C43.1844 17.4446 43.2114 16.9858 43.2114 16.6079L43.2114 8.18688ZM23.2925 0.602578C23.9672 0.602578 24.2911 0.953453 24.2911 1.60122L24.2911 5.37988C24.2911 5.70376 24.2101 5.94668 24.0482 6.13561C23.8862 6.32454 23.6163 6.40552 23.2925 6.40552L14.4936 6.40552C14.1697 6.40552 13.9268 6.48649 13.7378 6.64843C13.5489 6.81037 13.4679 7.08028 13.4679 7.40416L13.4679 23.1936C13.4679 23.5174 13.387 23.7603 13.225 23.9493C13.0631 24.1112 12.7932 24.2192 12.4693 24.2192L8.50171 24.2192C8.17782 24.2192 7.93491 24.1382 7.74598 23.9493C7.58404 23.7603 7.47607 23.5174 7.47607 23.1936L7.47607 1.62821C7.47607 1.30433 7.55705 1.03442 7.74598 0.872482C7.93491 0.71054 8.17782 0.629568 8.50171 0.629568L23.2925 0.602578Z" fill="rgb(204,204,204)" fill-rule="nonzero" />
	<path id="Vector" d="M81.2677 29.4545C81.2677 29.4275 81.2408 29.4275 81.2408 29.4005C81.2408 29.3735 81.2408 29.3735 81.2677 29.3465L82.6173 27.5112C82.6712 27.4302 82.6712 27.3762 82.6443 27.3492C82.6173 27.3222 82.5633 27.2683 82.4823 27.2683L81.5107 27.2683C81.4567 27.2683 81.4027 27.2683 81.3757 27.2952C81.3487 27.3222 81.2947 27.3492 81.2677 27.4032L80.2151 28.8337C80.1881 28.8607 80.1881 28.8607 80.1611 28.8607C80.1341 28.8607 80.1341 28.8337 80.1341 28.8067L80.1341 27.4842C80.1341 27.3492 80.0802 27.2952 79.9452 27.2952L79.1895 27.2952C79.1355 27.2952 79.0815 27.3222 79.0545 27.3492C79.0275 27.3762 79.0005 27.4302 79.0005 27.5112L79.0005 31.7756C79.0005 31.8296 79.0275 31.8836 79.0545 31.9106C79.0815 31.9376 79.1355 31.9646 79.1895 31.9646L79.9452 31.9646C79.9992 31.9646 80.0532 31.9376 80.1072 31.9106C80.1611 31.8836 80.1611 31.8296 80.1611 31.7756L80.1611 31.0469L80.1611 30.9929C80.1611 30.9659 80.1611 30.9659 80.1881 30.9389L80.458 30.5611C80.458 30.5341 80.485 30.5341 80.512 30.5341C80.539 30.5341 80.539 30.5341 80.566 30.5611L81.4027 31.8296C81.4297 31.8836 81.4567 31.9106 81.5107 31.9376C81.5376 31.9646 81.5916 31.9646 81.6456 31.9646L82.6443 31.9646C82.7252 31.9646 82.7792 31.9376 82.8062 31.8836C82.8332 31.8296 82.8332 31.7757 82.7792 31.7217L81.2677 29.4545ZM75.2219 27.2683C75.1679 27.2683 75.1139 27.2952 75.087 27.3222C75.06 27.3492 75.033 27.4032 75.033 27.4842L75.033 30.4531C75.033 30.5341 75.033 30.6151 75.06 30.723C75.06 30.831 75.0869 30.9389 75.1409 31.0739C75.1679 31.1819 75.2219 31.3168 75.3029 31.4248C75.3838 31.5327 75.4648 31.6407 75.5998 31.7487C75.7347 31.8566 75.8697 31.9106 76.0586 31.9916C76.2475 32.0456 76.4635 32.0725 76.7334 32.0725C77.0033 32.0725 77.2192 32.0456 77.4081 31.9916C77.597 31.9376 77.759 31.8566 77.867 31.7487C78.0019 31.6407 78.0829 31.5327 78.1638 31.4248C78.2448 31.3168 78.2988 31.1819 78.3258 31.0739C78.3528 30.9659 78.3798 30.831 78.3798 30.723C78.3798 30.6151 78.4068 30.5341 78.4068 30.4531L78.4068 27.4842C78.4068 27.3492 78.3528 27.2952 78.2178 27.2952L77.4621 27.2952C77.4081 27.2952 77.3541 27.3222 77.3271 27.3492C77.3002 27.3762 77.2732 27.4302 77.2732 27.5112L77.2732 30.4801C77.2732 30.5881 77.2462 30.669 77.2192 30.75C77.1922 30.831 77.1382 30.885 77.0572 30.912C76.9763 30.9389 76.8953 30.9659 76.7603 30.9659C76.6254 30.9659 76.5444 30.9389 76.4635 30.912C76.3825 30.885 76.3285 30.831 76.3015 30.75C76.2745 30.669 76.2475 30.5881 76.2475 30.4801C76.2475 30.3721 76.2205 30.2642 76.2475 30.1292L76.2475 27.5112C76.2475 27.3762 76.1936 27.3222 76.0586 27.3222L75.2219 27.2683ZM74.3582 30.777C74.4932 30.777 74.5471 30.831 74.5471 30.9659L74.5471 31.7217C74.5471 31.7757 74.5201 31.8296 74.4932 31.8566C74.4662 31.8836 74.4122 31.9106 74.3312 31.9106L73.5755 31.9106C73.5215 31.9106 73.4675 31.8836 73.4405 31.8566C73.4135 31.8296 73.3866 31.7757 73.3866 31.7217L73.3866 30.9659C73.3866 30.912 73.4135 30.858 73.4405 30.804C73.4675 30.777 73.5215 30.75 73.5755 30.75L74.3582 30.777ZM71.7401 30.0753L71.7401 30.4261C71.7401 30.5341 71.7132 30.6151 71.6862 30.696C71.6592 30.777 71.6052 30.831 71.5242 30.858C71.4432 30.885 71.3623 30.912 71.2273 30.912C71.0924 30.912 71.0114 30.885 70.9304 30.858C70.8495 30.831 70.7955 30.777 70.7685 30.696C70.7415 30.6151 70.7145 30.5341 70.7145 30.4261C70.7145 30.3182 70.6875 30.2102 70.7145 30.0753L70.7145 29.1306L70.7145 28.7797C70.7145 28.6718 70.7415 28.5908 70.7685 28.5098C70.7955 28.4288 70.8495 28.3749 70.9304 28.3479C71.0114 28.3209 71.0924 28.2939 71.2273 28.2939C71.3623 28.2939 71.4432 28.3209 71.5242 28.3479C71.6052 28.3749 71.6592 28.4288 71.6862 28.5098C71.7132 28.5908 71.7401 28.6718 71.7401 28.7797L71.7401 30.0753ZM72.9007 28.7527C72.9007 28.6718 72.9007 28.5908 72.8737 28.4828C72.8737 28.3749 72.8467 28.2669 72.8197 28.1319C72.7928 28.024 72.7388 27.889 72.6578 27.7811C72.5768 27.6731 72.4959 27.5651 72.3609 27.4572C72.226 27.3492 72.091 27.2952 71.9021 27.2143C71.7132 27.1603 71.4972 27.1333 71.2273 27.1333C70.9574 27.1333 70.7415 27.1603 70.5526 27.2143C70.3636 27.2683 70.2017 27.3492 70.0937 27.4572C69.9588 27.5651 69.8778 27.6731 69.7968 27.7811C69.7159 27.889 69.6619 28.024 69.6349 28.1319C69.6079 28.2399 69.5809 28.3749 69.5539 28.4828C69.5539 28.5908 69.5269 28.6718 69.5269 28.7527L69.5269 30.4261C69.5269 30.5071 69.5269 30.5881 69.5539 30.696C69.5539 30.804 69.5809 30.912 69.6349 31.0469C69.6619 31.1549 69.7159 31.2898 69.7968 31.3978C69.8778 31.5057 69.9588 31.6137 70.0937 31.7217C70.2287 31.8296 70.3636 31.8836 70.5526 31.9646C70.7415 32.0186 70.9574 32.0456 71.2273 32.0456C71.4972 32.0456 71.7132 32.0186 71.9021 31.9646C72.091 31.9106 72.253 31.8296 72.3609 31.7217C72.4959 31.6137 72.5768 31.5057 72.6578 31.3978C72.7388 31.2898 72.7928 31.1549 72.8197 31.0469C72.8467 30.9389 72.8737 30.804 72.8737 30.696C72.8737 30.5881 72.9007 30.5071 72.9007 30.4261L72.9007 28.7527ZM65.8292 30.4261C65.8292 30.5071 65.8292 30.5881 65.8562 30.696C65.8562 30.804 65.8832 30.912 65.9372 31.0469C65.9642 31.1549 66.0182 31.2898 66.0992 31.3978C66.1801 31.5057 66.2611 31.6137 66.396 31.7217C66.531 31.8296 66.6659 31.8836 66.8549 31.9646C67.0438 32.0186 67.2597 32.0456 67.5296 32.0456C67.7726 32.0456 67.9615 32.0186 68.1504 31.9646C68.3124 31.9106 68.4743 31.8566 68.5823 31.7756C68.6902 31.6947 68.7982 31.6137 68.8792 31.5057C68.9601 31.3978 69.0141 31.2898 69.0681 31.1819C69.1221 31.0739 69.1491 30.9659 69.1491 30.858C69.1761 30.75 69.176 30.669 69.176 30.5611C69.176 30.5071 69.1761 30.4801 69.1491 30.4261C69.1221 30.3991 69.0951 30.3721 69.0411 30.3721L68.2854 30.2102C68.2314 30.1832 68.1504 30.2102 68.1234 30.2372C68.0695 30.2642 68.0425 30.3182 68.0425 30.3991C68.0425 30.5071 68.0155 30.5881 67.9615 30.669C67.9345 30.75 67.8805 30.804 67.7995 30.831C67.7186 30.858 67.6376 30.885 67.5027 30.885C67.3677 30.885 67.2867 30.858 67.2058 30.831C67.1248 30.804 67.0708 30.75 67.0438 30.669C67.0168 30.5881 66.9898 30.5071 66.9898 30.3991C66.9898 30.2912 66.9628 30.1832 66.9898 30.0483L66.9898 29.1036L66.9898 28.7527C66.9898 28.6448 67.0168 28.5638 67.0438 28.4828C67.0708 28.4018 67.1248 28.3479 67.2058 28.3209C67.2867 28.2939 67.3677 28.2669 67.5027 28.2669C67.6106 28.2669 67.7186 28.2939 67.7995 28.3209C67.8805 28.3479 67.9345 28.4018 67.9615 28.4828C67.9885 28.5638 68.0155 28.6448 68.0155 28.7257C68.0155 28.8067 68.0425 28.8607 68.0964 28.8877C68.1504 28.9147 68.2044 28.9417 68.2854 28.9417L69.0141 28.7797C69.0681 28.7797 69.0951 28.7527 69.1221 28.7257C69.1491 28.6987 69.1491 28.6448 69.1491 28.6178C69.1491 28.5368 69.1221 28.4288 69.1221 28.3209L69.0411 27.997C68.9871 27.889 68.9331 27.7811 68.8522 27.6731C68.7712 27.5651 68.6632 27.4842 68.5553 27.4032C68.4203 27.3222 68.2854 27.2683 68.1234 27.2143C67.9615 27.1603 67.7456 27.1333 67.5027 27.1333C67.2327 27.1333 67.0168 27.1603 66.8279 27.2143C66.639 27.2683 66.477 27.3492 66.3691 27.4572C66.2341 27.5651 66.1531 27.6731 66.0722 27.7811C65.9912 27.889 65.9372 28.024 65.9102 28.1319C65.8832 28.2399 65.8562 28.3749 65.8292 28.4828C65.8292 28.5908 65.8023 28.6718 65.8023 28.7527L65.8023 30.4261L65.8292 30.4261ZM65.2085 30.777C65.3434 30.777 65.3974 30.831 65.3974 30.9659L65.3974 31.7217C65.3974 31.7757 65.3704 31.8296 65.3434 31.8566C65.3164 31.8836 65.2625 31.9106 65.1815 31.9106L64.4258 31.9106C64.3718 31.9106 64.3178 31.8836 64.2908 31.8566C64.2638 31.8296 64.2368 31.7757 64.2368 31.7217L64.2368 30.9659C64.2368 30.912 64.2638 30.858 64.2908 30.804C64.3178 30.777 64.3718 30.75 64.4258 30.75L65.2085 30.777Z" fill="rgb(204,204,204)" fill-rule="nonzero" />
	<g id="Group">
		<path id="Vector" d="M15.7893 13.4227C13.2791 13.2068 1.0255 15.204 0.107822 13.0448C-1.43063 9.45508 11.4438 11.4794 13.1712 11.5333C14.0349 11.5603 15.1145 11.7223 15.7353 11.5603C16.1671 11.4254 16.464 10.7236 16.9498 10.4537C18.0295 9.80596 19.7838 10.1568 21.2953 10.2918C22.3209 10.3728 23.3196 10.4807 24.3992 10.5617C22.8607 10.7776 21.2143 10.9935 19.5949 11.2095C19.406 11.2365 19.1091 11.1555 18.9741 11.3714C20.6205 11.6413 22.4829 11.6953 24.2642 11.8302C22.5099 12.1001 20.5396 12.1541 18.8122 12.478C18.9201 12.6669 19.244 12.613 19.433 12.64C20.9714 12.7479 22.6718 12.8829 24.2912 12.9638C22.6178 13.2337 20.6745 13.2877 19.0011 13.6116C19.0551 13.8815 19.406 13.8005 19.5679 13.8005C21.1064 13.9895 22.8337 14.2054 24.4262 14.3404C22.6718 14.4753 20.5126 14.8802 18.7042 14.9881C17.3007 15.0691 16.464 14.2594 15.7893 13.4227Z" fill="rgb(204,204,204)" fill-rule="nonzero" />
	</g>
	<g id="Group">
		<path id="Vector" d="M11.4439 13.6387C13.3872 13.4767 15.0336 13.3418 15.7894 13.3958C16.1402 13.8276 16.4911 14.2325 16.977 14.5294C17.4358 14.8263 17.9756 15.0152 18.6773 14.9612C19.676 14.9072 20.7826 14.7453 21.8622 14.6103C22.6449 14.5024 23.4007 14.3944 24.1024 14.3404C23.4007 14.2865 22.6989 14.2055 21.9702 14.1245C21.1335 14.0435 20.3238 13.9356 19.568 13.8276L19.4331 13.8276C19.2441 13.8276 19.0012 13.8276 18.9742 13.6117L18.9742 13.5847L19.0012 13.5847C19.9189 13.3958 20.9445 13.2878 21.9702 13.2068C22.6719 13.1529 23.3737 13.0719 24.0214 12.9909C22.8069 12.9099 21.5383 12.829 20.3508 12.748C20.0539 12.721 19.757 12.694 19.4601 12.694L19.3251 12.694C19.1362 12.694 18.9203 12.694 18.8123 12.5321L18.7853 12.5051L18.8123 12.5051C19.784 12.3162 20.8366 12.2082 21.8892 12.1272C22.591 12.0732 23.3197 11.9923 23.9945 11.9113C23.6436 11.8843 23.2657 11.8573 22.9148 11.8303C21.5653 11.7494 20.1888 11.6684 18.9742 11.4795L18.9203 11.4795L18.9473 11.4525C19.0552 11.2905 19.2441 11.2905 19.4061 11.2905L19.568 11.2905L20.8636 11.1286C21.9432 10.9936 23.0498 10.8317 24.0754 10.6967C23.4547 10.6428 22.8339 10.5888 22.2401 10.5348C21.9162 10.5078 21.6193 10.4808 21.2684 10.4538L20.4587 10.3728C19.1632 10.2379 17.8137 10.076 16.95 10.6158C16.734 10.7507 16.5451 10.9666 16.3832 11.1826C16.1672 11.4255 15.9783 11.6684 15.7354 11.7494C15.3035 11.8573 14.6558 11.8303 14.008 11.7763C13.7111 11.7494 13.4142 11.7224 13.1443 11.7224C12.8474 11.7224 12.2266 11.6414 11.4169 11.5604C8.50196 11.1016 3.02291 10.5348 0.890669 11.4525C0.134938 11.7763 -0.188947 12.2622 0.134938 13.0449C0.755717 14.5294 6.90953 14.0166 11.4439 13.6387ZM15.7894 13.4498C15.0336 13.3958 13.3872 13.5307 11.4439 13.6927C6.90953 14.0705 0.728727 14.5834 0.0809568 13.0449C-0.269918 12.2352 0.0809568 11.7224 0.863679 11.3715C3.02291 10.4538 8.50196 11.0206 11.4439 11.3175C12.2536 11.3985 12.8744 11.4795 13.1713 11.4795C13.4412 11.4795 13.7381 11.5064 14.035 11.5334C14.6828 11.5874 15.3035 11.6144 15.7354 11.5064C15.9513 11.4525 16.1402 11.2095 16.3562 10.9666C16.5451 10.7507 16.707 10.5348 16.95 10.3998C17.8406 9.86003 19.1902 10.022 20.5127 10.1569L21.3224 10.2379C21.6193 10.2649 21.9702 10.2919 22.2941 10.3189C22.9958 10.3728 23.6976 10.4538 24.4263 10.4808L24.7232 10.5078L24.4533 10.5618C23.3467 10.7237 22.1591 10.8857 20.9715 11.0476L19.676 11.2095L19.5141 11.2095C19.3791 11.2095 19.2172 11.2096 19.1092 11.3175C20.3238 11.5064 21.6733 11.5874 23.0228 11.6684C23.4816 11.6954 23.9135 11.7224 24.3723 11.7494L24.6422 11.7763L24.3723 11.8033C23.6166 11.9113 22.8069 11.9923 21.9972 12.0732C20.9715 12.1812 19.9189 12.2622 18.9742 12.4511C19.0552 12.5591 19.2441 12.5591 19.4061 12.5591L19.541 12.5591C19.8379 12.5861 20.1348 12.6131 20.4317 12.6131C21.7273 12.721 23.0768 12.802 24.3723 12.883L24.6422 12.9099L24.3723 12.9639C23.6166 13.0719 22.8339 13.1529 22.0511 13.2338C21.0525 13.3418 20.0539 13.4228 19.1362 13.6117C19.1902 13.7736 19.3791 13.7466 19.541 13.7466L19.676 13.7466C20.4587 13.8276 21.2684 13.9356 22.0781 14.0435C22.8879 14.1245 23.7246 14.2325 24.5073 14.2865L24.5073 14.3404C23.7246 14.3944 22.8339 14.5294 21.9432 14.6373C20.8636 14.7723 19.757 14.9342 18.7583 14.9882C18.0566 15.0422 17.4898 14.8533 17.0309 14.5564C16.4911 14.2865 16.1133 13.8816 15.7894 13.4498Z" fill="rgb(204,204,204)" fill-rule="nonzero" />
	</g>
</svg>
