<svg viewBox="0 0 59.9409 32.8335" xmlns="http://www.w3.org/2000/svg" xmlns:xlink="http://www.w3.org/1999/xlink" width="59.940918" height="32.833496" fill="none" customFrame="#000000">
	<g id="Group">
		<path id="Vector" d="M25.6319 28.4778C23.0479 30.6554 19.6334 31.9809 16.0342 31.9809C7.54395 31.9809 0.737957 24.9737 0.737957 16.3811C0.737957 7.7645 7.54395 0.757324 16.0342 0.757324C21.6637 0.757324 26.5551 3.88208 29.2311 8.61658C29.6002 8.71133 29.8772 8.80609 30.2459 8.90084C27.5702 3.59817 22.2174 0 16.0342 0C7.17455 0 -0.000488281 7.29109 -0.000488281 16.3811C-0.000488281 25.4478 7.1749 32.8333 16.0342 32.8333C20.1871 32.8333 23.9707 31.1292 26.8318 28.4778L25.6319 28.4778Z" fill="rgb(204,204,204)" fill-rule="evenodd" />
		<path id="Vector" d="M18.0649 27.7202L59.9394 27.7202L59.9394 21.2812L18.0649 21.2812L18.0649 27.7202Z" fill="rgb(204,204,204)" fill-rule="evenodd" />
		<path id="Vector" d="M20.1874 9.75243L20.0027 10.6049L17.9724 10.6049C17.4186 16.6652 17.0496 21.5649 16.6805 23.8379C15.8501 27.9095 12.1585 30.1818 9.75917 30.1818C8.92872 30.1818 7.91357 29.8035 7.91357 28.7619C7.91357 28.1938 8.37497 27.7204 8.92872 27.7204C9.75917 27.7204 10.4053 28.3829 10.8667 29.1403C12.1589 28.3829 12.3432 27.7204 12.897 25.0687C13.174 23.8379 13.9121 15.0551 14.2812 10.6049L12.6199 10.6049L12.8046 9.75243L14.4659 9.75243L14.6506 8.23778C15.5734 2.6512 19.5416 1.98828 21.0185 1.98828C21.7566 1.98828 23.2331 2.36694 23.2331 3.40853C23.2331 4.0711 22.6794 4.35536 22.1256 4.35536C21.1105 4.35536 20.6491 3.78719 20.1874 2.93476C18.5261 3.69243 18.2494 7.85877 18.0647 9.75208L20.1874 9.75208L20.1874 9.75243ZM20.003 17.5169C20.003 13.067 22.7717 9.18461 27.4781 9.18461C30.4315 9.18461 32.0921 10.5105 32.0921 13.4457C32.0921 17.8959 29.3237 21.66 24.617 21.66C21.6642 21.66 20.003 20.3342 20.003 17.5169ZM28.3089 14.1086C28.3089 12.9723 28.2165 10.2265 26.5556 10.2265C24.1563 10.2265 23.7869 15.0555 23.7869 16.8547C23.7869 17.8963 23.8792 20.7135 25.5401 20.7135C27.9395 20.7132 28.3089 15.9075 28.3089 14.1086ZM33.1076 17.5169C33.1076 13.067 35.9687 9.18461 40.675 9.18461C43.5361 9.18461 45.266 10.5105 45.266 13.4457C45.266 17.8959 42.4283 21.66 37.7219 21.66C34.8608 21.66 33.1076 20.3342 33.1076 17.5169ZM41.5055 14.1086C41.5055 12.9723 41.4135 10.2265 39.7522 10.2265C37.2605 10.2265 36.9838 15.0555 36.9838 16.8547C36.9838 17.8963 36.9838 20.7135 38.6447 20.7135C41.1361 20.7132 41.5055 15.9075 41.5055 14.1086ZM59.5708 20.2398C57.9092 20.9971 55.8789 21.6597 54.495 21.6597C53.7569 21.6597 53.8486 20.523 53.8486 20.0499C53.8486 19.4824 53.8486 18.7241 54.0336 17.2334L53.9409 17.1383C53.0181 19.1031 51.1725 21.6597 48.7732 21.6597C46.9272 21.6597 46.0965 19.6712 46.0965 17.9907C46.0965 13.824 49.3263 9.37412 53.9409 9.37412L54.8637 9.37412C55.2331 6.43852 55.2331 5.20779 55.2331 4.2606C55.2331 3.9767 55.2331 3.69243 54.9561 3.69243C54.679 3.69243 54.3103 3.78719 53.3872 4.0711L53.2028 3.31377C55.0488 2.6512 57.0791 2.27219 58.9243 2.17744C59.1094 2.17744 59.2014 2.17744 59.2014 2.5561C59.2014 5.01793 57.3554 17.8956 57.3554 19.1982C57.3554 19.4824 57.3554 19.9555 57.7248 19.9555C57.9092 19.9555 58.5556 19.7656 59.2937 19.4821L59.5708 20.2398ZM53.5715 16.1918C54.218 14.582 54.4023 12.9723 54.7717 10.5105C54.5867 10.4153 54.4023 10.4154 54.3103 10.4154C51.4492 10.4154 50.0647 14.7712 50.0647 17.1383C50.0647 17.7064 50.1574 19.1031 50.9878 19.1031C52.1877 19.1034 53.2028 17.1386 53.5715 16.1918Z" fill="rgb(204,204,204)" fill-rule="evenodd" />
		<path id="Vector" d="M20.5566 22.7959L21.5718 22.7959L22.8636 24.7843L22.8636 22.7959L23.6944 22.7959L23.6944 26.5832L22.956 26.5832L21.3871 24.406L21.3871 26.5832L20.5566 26.5832L20.5566 22.7959ZM26.0934 22.7959L28.9545 22.7959L28.9545 23.5536L27.2009 23.5536L27.2009 24.2158L28.3088 24.2158L28.3088 25.0682L27.2009 25.0682L27.2009 25.7308L28.9545 25.7308L28.9545 26.5832L26.0934 26.5832L26.0934 22.7959ZM32.0003 23.5536L30.9852 23.5536L30.9852 22.7959L34.1226 22.7959L34.1226 23.5536L33.1075 23.5536L33.1075 26.5832L32.0003 26.5832L32.0003 23.5536ZM35.9686 22.7959L37.0754 22.7959L37.5375 24.7843L37.6291 24.7843L38.0905 22.7959L39.014 22.7959L39.4751 24.7843L39.5678 24.7843L40.0292 22.7959L40.8593 22.7959L39.9365 26.5832L39.014 26.5832L38.4599 24.5001L37.9062 26.5832L36.9837 26.5832L35.9686 22.7959ZM44.6202 26.6783C43.536 26.6783 42.7976 25.921 42.7976 24.6896C42.7976 23.4588 43.5357 22.7012 44.6202 22.7012C45.728 22.7012 46.3734 23.4585 46.3734 24.6896C46.3734 25.9207 45.7277 26.6783 44.6202 26.6783ZM43.9744 24.6892C43.9744 25.7308 44.2515 25.9207 44.6202 25.9207C44.9896 25.9207 45.2659 25.7308 45.2659 24.6892C45.2659 23.6484 44.9896 23.4585 44.6202 23.4585C44.1588 23.4585 43.9744 23.7428 43.9744 24.6892ZM48.5881 22.7959L50.434 22.7959C51.6335 22.7959 51.9106 23.3634 51.9106 23.8375C51.9106 24.3109 51.6335 24.6892 51.1725 24.7843L51.9106 26.5832L50.7111 26.5832L50.1573 24.9735L49.6959 24.9735L49.6959 26.5832L48.5881 26.5832L48.5881 22.7959ZM49.6959 24.3109L50.2497 24.3109C50.526 24.3109 50.8034 24.1211 50.8034 23.9319C50.8034 23.6484 50.6184 23.4585 50.2497 23.4585L49.6959 23.4585L49.6959 24.3109ZM54.2179 22.7959L55.3254 22.7959L55.3254 24.3109L56.4326 22.7959L57.4477 22.7959L56.5249 24.0267L57.6321 26.5832L56.5249 26.5832L55.7868 24.9735L55.3254 25.6368L55.3254 26.5832L54.2179 26.5832L54.2179 22.7959Z" fill="rgb(255,255,255)" fill-rule="evenodd" />
	</g>
</svg>
