<svg viewBox="0 0 66.9395 32.8335" xmlns="http://www.w3.org/2000/svg" xmlns:xlink="http://www.w3.org/1999/xlink" width="66.939453" height="32.833496" fill="none" customFrame="#000000">
	<g id="mango-1">
		<path id="Vector" d="M1.44813 4.54543L5.65404 4.54543C5.27729 4.28189 4.56803 3.94629 3.40054 3.94629C2.55548 3.94629 1.92265 4.18833 1.44813 4.54543ZM6.36019 4.54543L10.7593 4.54543C10.241 4.18833 9.5154 3.94629 8.50195 3.94629C7.43184 3.94629 6.73927 4.28189 6.36019 4.54543ZM0.854492 5.14458L11.3879 5.14458C11.211 4.91158 10.9988 4.70928 10.7593 4.54543L6.36019 4.54543C6.11537 4.71542 6.00129 4.85515 6.00129 4.85515C6.00129 4.85515 5.89653 4.71542 5.65404 4.54543L1.44813 4.54543C1.22378 4.71551 1.02393 4.91721 0.854492 5.14458Z" fill="rgb(204,204,204)" fill-rule="evenodd" />
		<path id="Vector" d="M0.502441 5.72395L11.73 5.72395C11.6381 5.51828 11.5234 5.32418 11.3881 5.14551L0.854356 5.14551C0.714677 5.33182 0.598665 5.52809 0.502441 5.72395Z" fill="rgb(204,204,204)" fill-rule="evenodd" />
		<path id="Vector" d="M0.261858 6.32229L11.934 6.32229C11.8838 6.11654 11.8152 5.91597 11.7291 5.72314L0.502029 5.72314C0.401926 5.92697 0.32355 6.1304 0.261858 6.32229ZM0.109375 6.92183L2.79588 6.92183C2.96892 6.71561 3.2541 6.5293 3.72009 6.5293C4.18646 6.5293 4.45185 6.71601 4.6024 6.92183L7.57989 6.92183C7.75566 6.71561 8.04588 6.5293 8.52079 6.5293C8.96932 6.5293 9.23665 6.71601 9.39573 6.92183L12.0326 6.92183C12.0147 6.7198 11.9816 6.51949 11.9336 6.32269L0.261858 6.32269C0.199093 6.519 0.148169 6.71909 0.109375 6.92183Z" fill="rgb(204,204,204)" fill-rule="evenodd" />
		<path id="Vector" d="M0.03925 7.50032L2.5399 7.50032L2.5399 7.45892C2.5399 7.45892 2.58258 7.17586 2.79598 6.92188L0.109478 6.92188C0.0481739 7.24474 0.03925 7.45892 0.03925 7.45892L0.03925 7.50032ZM4.80078 7.50032L7.3216 7.50032L7.3216 7.45892C7.3216 7.45892 7.36467 7.17586 7.58079 6.92188L4.60328 6.92188C4.71583 7.07897 4.78427 7.26471 4.80116 7.45892L4.80116 7.50032L4.80078 7.50032ZM9.62166 7.50032L12.0424 7.50032L12.0424 7.45892C12.0424 7.45892 12.0618 7.24434 12.0331 6.92188L9.39624 6.92188C9.59101 7.17586 9.62166 7.45892 9.62166 7.45892L9.62166 7.50032ZM0.0380859 8.09946L2.5399 8.09946L2.5399 7.50032L0.03925 7.50032L0.0380859 8.09946ZM4.80078 8.09946L7.3216 8.09946L7.3216 7.50032L4.80078 7.50032L4.80078 8.09946ZM9.62166 8.09946L12.0424 8.09946L12.0424 7.50032L9.62166 7.50032L9.62166 8.09946Z" fill="rgb(204,204,204)" fill-rule="evenodd" />
		<path id="Vector" d="M0.0371964 8.69973L2.54056 8.69973L2.54056 8.10059L0.0387487 8.10059L0.0371964 8.69973ZM4.80104 8.69973L7.32187 8.69973L7.32187 8.10059L4.80104 8.10059L4.80104 8.69973ZM9.62193 8.69973L12.0426 8.69973L12.0426 8.10059L9.62193 8.10059L9.62193 8.69973ZM0.0356445 9.27818L2.54018 9.27818L2.54018 8.69973L0.0368086 8.69973L0.0356445 9.27818ZM4.80104 9.27818L7.32187 9.27818L7.32187 8.69973L4.80104 8.69973L4.80104 9.27818ZM9.62193 9.27818L12.0426 9.27818L12.0426 8.69973L9.62193 8.69973L9.62193 9.27818Z" fill="rgb(204,204,204)" fill-rule="evenodd" />
		<path id="Vector" d="M0.0348555 9.87649L2.54055 9.87649L2.54055 9.27734L0.0356314 9.27734L0.0348555 9.87649ZM4.80103 9.87649L7.32186 9.87649L7.32186 9.27734L4.80103 9.27734L4.80103 9.87649ZM9.62191 9.87649L12.0426 9.87649L12.0426 9.27734L9.62191 9.27734L9.62191 9.87649ZM0.0336914 10.4549L2.54055 10.4549L2.54055 9.87649L0.0348555 9.87649L0.0336914 10.4549ZM4.80103 10.4549L7.32186 10.4549L7.32186 9.87649L4.80103 9.87649L4.80103 10.4549ZM9.62191 10.4549L12.0426 10.4549L12.0426 9.87649L9.62191 9.87649L9.62191 10.4549Z" fill="rgb(204,204,204)" fill-rule="evenodd" />
		<path id="Vector" d="M0.0319258 11.0546L2.53995 11.0546L2.53995 10.4551L0.0330899 10.4551L0.0319258 11.0546ZM4.80082 11.0546L7.32164 11.0546L7.32164 10.4551L4.80082 10.4551L4.80082 11.0546ZM9.6217 11.0546L12.0424 11.0546L12.0424 10.4551L9.6217 10.4551L9.6217 11.0546ZM0.0307617 11.6538L2.54034 11.6538L2.54034 11.0546L0.0323136 11.0546L0.0307617 11.6538ZM4.80082 11.6538L7.32164 11.6538L7.32164 11.0546L4.80082 11.0546L4.80082 11.6538ZM9.6217 11.6538L12.0424 11.6538L12.0424 11.0546L9.6217 11.0546L9.6217 11.6538Z" fill="rgb(204,204,204)" fill-rule="evenodd" />
		<path id="Vector" d="M0.0297852 12.2322L2.54053 12.2322L2.54053 11.6538L0.0309493 11.6538L0.0297852 12.2322ZM4.80101 12.2322L7.32184 12.2322L7.32184 11.6538L4.80101 11.6538L4.80101 12.2322ZM9.62189 12.2322L12.0426 12.2322L12.0426 11.6538L9.62189 11.6538L9.62189 12.2322Z" fill="rgb(204,204,204)" fill-rule="evenodd" />
		<path id="Vector" d="M0.0283203 12.8315L2.54022 12.8315L2.54022 12.2319L0.029484 12.2319L0.0283203 12.8315ZM4.8007 12.8315L7.32153 12.8315L7.32153 12.2319L4.8007 12.2319L4.8007 12.8315ZM9.62159 12.8315L12.0423 12.8315L12.0423 12.2319L9.62159 12.2319L9.62159 12.8315Z" fill="rgb(204,204,204)" fill-rule="evenodd" />
		<path id="Vector" d="M0.0268555 13.4307L2.54031 13.4307L2.54031 12.8315L0.0284077 12.8315L0.0268555 13.4307ZM4.80079 13.4307L7.32161 13.4307L7.32161 12.8315L4.80079 12.8315L4.80079 13.4307ZM9.62167 13.4307L12.0424 13.4307L12.0424 12.8315L9.62167 12.8315L9.62167 13.4307Z" fill="rgb(204,204,204)" fill-rule="evenodd" />
		<path id="Vector" d="M0.0265413 14.0091L2.54077 14.0091L2.54077 13.4307L0.0273172 13.4307L0.0265413 14.0091ZM4.80125 14.0091L7.32208 14.0091L7.32208 13.4307L4.80125 13.4307L4.80125 14.0091ZM9.62214 14.0091L12.0429 14.0091L12.0429 13.4307L9.62214 13.4307L9.62214 14.0091ZM0.0249894 14.6083L2.54039 14.6083L2.54039 14.0091L0.0261535 14.0091L0.0249894 14.6083ZM4.80125 14.6083L7.32208 14.6083L7.32208 14.0091L4.80125 14.0091L4.80125 14.6083ZM9.62214 14.6083L12.0429 14.6083L12.0429 14.0091L9.62214 14.0091L9.62214 14.6083ZM0.0234375 15.2078L2.54039 15.2078L2.54039 14.6086L0.0249894 14.6086L0.0234375 15.2078ZM4.80125 15.2078L7.32208 15.2078L7.32208 14.6086L4.80125 14.6086L4.80125 15.2078ZM9.62214 15.2078L12.0429 15.2078L12.0429 14.6086L9.62214 14.6086L9.62214 15.2078Z" fill="rgb(204,204,204)" fill-rule="evenodd" />
		<path id="Vector" d="M0.0221602 15.786L2.54027 15.786L2.54027 15.2075L0.0233243 15.2075L0.0221602 15.786ZM4.80114 15.786L7.32196 15.786L7.32196 15.2075L4.80114 15.2075L4.80114 15.786ZM9.62202 15.786L12.0427 15.786L12.0427 15.2075L9.62202 15.2075L9.62202 15.786ZM0.0209961 16.3851L2.54027 16.3851L2.54027 15.786L0.0221602 15.786L0.0209961 16.3851ZM4.80114 16.3851L7.32196 16.3851L7.32196 15.786L4.80114 15.786L4.80114 16.3851ZM9.62202 16.3851L12.0427 16.3851L12.0427 15.786L9.62202 15.786L9.62202 16.3851Z" fill="rgb(204,204,204)" fill-rule="evenodd" />
		<path id="Vector" d="M0.0195312 16.9844L2.54036 16.9844L2.54036 16.3853L0.0210835 16.3853L0.0195312 16.9844ZM4.80084 16.9844L7.32167 16.9844L7.32167 16.3853L4.80084 16.3853L4.80084 16.9844ZM9.62173 16.9844L12.0424 16.9844L12.0424 16.3853L9.62173 16.3853L9.62173 16.9844Z" fill="rgb(204,204,204)" fill-rule="evenodd" />
		<path id="Vector" d="M0.0182539 17.5628L2.54025 17.5628L2.54025 16.9844L0.0194177 16.9844L0.0182539 17.5628ZM4.80073 17.5628L7.32156 17.5628L7.32156 16.9844L4.80073 16.9844L4.80073 17.5628ZM9.62162 17.5628L12.0423 17.5628L12.0423 16.9844L9.62162 16.9844L9.62162 17.5628ZM0.0170898 18.1624L2.54025 18.1624L2.54025 17.5628L0.0182539 17.5628L0.0170898 18.1624ZM4.80073 18.1624L7.32156 18.1624L7.32156 17.5628L4.80073 17.5628L4.80073 18.1624ZM9.62162 18.1624L12.0423 18.1624L12.0423 17.5628L9.62162 17.5628L9.62162 18.1624Z" fill="rgb(204,204,204)" fill-rule="evenodd" />
		<path id="Vector" d="M0.0160001 18.7406L2.54032 18.7406L2.54032 18.1621L0.0171638 18.1621L0.0160001 18.7406ZM4.80119 18.7406L7.32202 18.7406L7.32202 18.1621L4.80119 18.1621L4.80119 18.7406ZM9.62208 18.7406L12.0428 18.7406L12.0428 18.1621L9.62208 18.1621L9.62208 18.7406ZM0.014836 19.3401L2.54071 19.3401L2.54071 18.7406L0.0163879 18.7406L0.014836 19.3401ZM4.80119 19.3401L7.32202 19.3401L7.32202 18.7406L4.80119 18.7406L4.80119 19.3401ZM9.62208 19.3401L12.0428 19.3401L12.0428 18.7406L9.62208 18.7406L9.62208 19.3401ZM0.0136719 19.9389L2.54071 19.9389L2.54071 19.3401L0.014836 19.3401L0.0136719 19.9389ZM4.80119 19.9389L7.32202 19.9389L7.32202 19.3401L4.80119 19.3401L4.80119 19.9389ZM9.62208 19.9389L12.0428 19.9389L12.0428 19.3401L9.62208 19.3401L9.62208 19.9389Z" fill="rgb(204,204,204)" fill-rule="evenodd" />
		<path id="Vector" d="M0.0119063 20.5187L2.5405 20.5187L2.5405 19.9395L0.0134582 19.9395L0.0119063 20.5187ZM4.80098 20.5187L7.32181 20.5187L7.32181 19.9395L4.80098 19.9395L4.80098 20.5187ZM9.62186 20.5187L12.0426 20.5187L12.0426 19.9395L9.62186 19.9395L9.62186 20.5187ZM0.0107422 21.1174L2.54011 21.1174L2.54011 20.5187L0.0115181 20.5187L0.0107422 21.1174ZM4.80098 21.1174L7.32181 21.1174L7.32181 20.5187L4.80098 20.5187L4.80098 21.1174ZM9.62186 21.1174L12.0426 21.1174L12.0426 20.5187L9.62186 20.5187L9.62186 21.1174Z" fill="rgb(204,204,204)" fill-rule="evenodd" />
		<path id="Vector" d="M0.00936438 21.7162L2.53989 21.7162L2.53989 21.1167L0.0105285 21.1167L0.00936438 21.7162ZM4.80076 21.7162L7.32158 21.7162L7.32158 21.1167L4.80076 21.1167L4.80076 21.7162ZM9.62164 21.7162L12.0424 21.7162L12.0424 21.1167L9.62164 21.1167L9.62164 21.7162ZM0.0078125 22.2951L2.53989 22.2951L2.53989 21.7166L0.00936438 21.7166L0.0078125 22.2951ZM4.80076 22.2951L7.32158 22.2951L7.32158 21.7166L4.80076 21.7166L4.80076 22.2951ZM9.62164 22.2951L12.0424 22.2951L12.0424 21.7166L9.62164 21.7166L9.62164 22.2951Z" fill="rgb(204,204,204)" fill-rule="evenodd" />
		<path id="Vector" d="M0.00732422 22.8945L2.54057 22.8945L2.54057 22.2949L0.00848832 22.2949L0.00732422 22.8945ZM4.80105 22.8945L7.32187 22.8945L7.32187 22.2949L4.80105 22.2949L4.80105 22.8945ZM9.62193 22.8945L12.0426 22.8945L12.0426 22.2949L9.62193 22.2949L9.62193 22.8945Z" fill="rgb(204,204,204)" fill-rule="evenodd" />
		<path id="Vector" d="M0.00555863 23.4928L2.53996 23.4928L2.53996 22.894L0.00672235 22.894L0.00555863 23.4928ZM4.80083 23.4928L7.32166 23.4928L7.32166 22.894L4.80083 22.894L4.80083 23.4928ZM9.62171 23.4928L12.0424 23.4928L12.0424 22.894L9.62171 22.894L9.62171 23.4928ZM0.00439453 24.0712L2.53996 24.0712L2.53996 23.4928L0.00555863 23.4928L0.00439453 24.0712ZM4.80083 24.0712L7.32166 24.0712L7.32166 23.4928L4.80083 23.4928L4.80083 24.0712ZM9.62171 24.0712L12.0424 24.0712L12.0424 23.4928L9.62171 23.4928L9.62171 24.0712Z" fill="rgb(204,204,204)" fill-rule="evenodd" />
		<path id="Vector" d="M0.00330439 24.6713L2.54004 24.6713L2.54004 24.0718L0.00446848 24.0718L0.00330439 24.6713ZM4.80091 24.6713L7.32173 24.6713L7.32173 24.0718L4.80091 24.0718L4.80091 24.6713ZM9.62179 24.6713L12.0425 24.6713L12.0425 24.0718L9.62179 24.0718L9.62179 24.6713ZM0.00252844 25.2709L2.54043 25.2709L2.54043 24.6713L0.00369254 24.6713L0.00252844 25.2709ZM4.80091 25.2709L7.32173 25.2709L7.32173 24.6713L4.80091 24.6713L4.80091 25.2709ZM9.62179 25.2709L12.0425 25.2709L12.0425 24.6713L9.62179 24.6713L9.62179 25.2709ZM0.000976562 25.8493L2.54043 25.8493L2.54043 25.2709L0.00252844 25.2709L0.000976562 25.8493ZM4.80091 25.8493L7.32173 25.8493L7.32173 25.2709L4.80091 25.2709L4.80091 25.8493ZM9.62179 25.8493L12.0425 25.8493L12.0425 25.2709L9.62179 25.2709L9.62179 25.8493Z" fill="rgb(204,204,204)" fill-rule="evenodd" />
		<path id="Vector" d="M0 26.4479L2.54061 26.4479L2.54061 25.8491L0.0011641 25.8491L0 26.4479ZM4.80109 26.4479L7.32192 26.4479L7.32192 25.8491L4.80109 25.8491L4.80109 26.4479ZM9.62197 26.4479L12.0427 26.4479L12.0427 25.8491L9.62197 25.8491L9.62197 26.4479Z" fill="rgb(204,204,204)" fill-rule="evenodd" />
		<path id="Vector" d="M0 26.4474L0.0399638 7.45875C0.0399638 7.45875 0.180032 3.94629 3.4012 3.94629C5.32179 3.94629 6.00195 4.85516 6.00195 4.85516C6.00195 4.85516 6.74226 3.94629 8.50261 3.94629C12.3636 3.94629 12.0435 7.45875 12.0435 7.45875L12.0435 26.4474L9.62276 26.4474L9.62276 7.45875C9.62276 7.45875 9.52304 6.52918 8.52239 6.52918C7.46238 6.52918 7.32231 7.45875 7.32231 7.45875L7.32231 26.4474L4.80148 26.4474L4.80148 7.45875C4.80148 7.45875 4.76152 6.52918 3.7213 6.52918C2.68107 6.52918 2.541 7.45875 2.541 7.45875L2.541 26.4474L0 26.4474Z" fill-rule="nonzero" />
		<path id="Vector" d="M30.668 3.69876L30.9982 3.69876L30.668 3.09961L30.668 3.69876ZM30.668 4.3186L31.3404 4.3186L30.9982 3.69876L30.668 3.69876L30.668 4.3186Z" fill="rgb(204,204,204)" fill-rule="evenodd" />
		<path id="Vector" d="M30.668 4.93821L31.6822 4.93821L31.3404 4.31836L30.668 4.31836L30.668 4.93821ZM35.5692 4.93821L37.9297 4.93821L37.9297 4.33906L35.5692 4.33906L35.5692 4.93821Z" fill="rgb(204,204,204)" fill-rule="evenodd" />
		<path id="Vector" d="M30.668 5.55824L32.0244 5.55824L31.6822 4.93799L30.668 4.93799L30.668 5.55824ZM35.5692 5.55824L37.9297 5.55824L37.9297 4.93799L35.5692 4.93799L35.5692 5.55824Z" fill="rgb(204,204,204)" fill-rule="evenodd" />
		<path id="Vector" d="M30.668 6.15726L32.3546 6.15726L32.0244 5.55811L30.668 5.55811L30.668 6.15726ZM35.5692 6.15726L37.9297 6.15726L37.9297 5.55811L35.5692 5.55811L35.5692 6.15726Z" fill="rgb(204,204,204)" fill-rule="evenodd" />
		<path id="Vector" d="M30.668 6.77756L32.6968 6.77756L32.3546 6.15771L30.668 6.15771L30.668 6.77756ZM35.5692 6.77756L37.9297 6.77756L37.9297 6.15771L35.5692 6.15771L35.5692 6.77756ZM30.668 7.3974L33.0386 7.3974L32.6968 6.77756L30.668 6.77756L30.668 7.3974ZM35.5692 7.3974L37.9297 7.3974L37.9297 6.77756L35.5692 6.77756L35.5692 7.3974Z" fill="rgb(204,204,204)" fill-rule="evenodd" />
		<path id="Vector" d="M30.6679 8.01641L33.3808 8.01641L33.0385 7.39697L30.6679 7.39697L30.6679 8.01641ZM35.5691 8.01641L37.9297 8.01641L37.9297 7.39697L35.5691 7.39697L35.5691 8.01641ZM30.6679 8.61595L33.7109 8.61595L33.3804 8.01641L30.6675 8.01641L30.6675 8.61595L30.6679 8.61595ZM35.5691 8.61595L37.9297 8.61595L37.9297 8.01641L35.5691 8.01641L35.5691 8.61595Z" fill="rgb(204,204,204)" fill-rule="evenodd" />
		<path id="Vector" d="M30.668 9.23655L34.0529 9.23655L33.711 8.6167L30.668 8.6167L30.668 9.23655ZM35.5692 9.23655L37.9297 9.23655L37.9297 8.6167L35.5692 8.6167L35.5692 9.23655ZM30.668 9.85639L34.3955 9.85639L34.0529 9.23655L30.668 9.23655L30.668 9.85639ZM35.5692 9.85639L37.9297 9.85639L37.9297 9.23655L35.5692 9.23655L35.5692 9.85639Z" fill="rgb(204,204,204)" fill-rule="evenodd" />
		<path id="Vector" d="M30.668 10.4762L34.7373 10.4762L34.3955 9.85596L30.668 9.85596L30.668 10.4762ZM35.5692 10.4762L37.9297 10.4762L37.9297 9.85596L35.5692 9.85596L35.5692 10.4762Z" fill="rgb(204,204,204)" fill-rule="evenodd" />
		<path id="Vector" d="M30.668 11.0747L35.0675 11.0747L34.7369 10.4756L30.668 10.4756L30.668 11.0747ZM35.5692 11.0747L37.9297 11.0747L37.9297 10.4756L35.5692 10.4756L35.5692 11.0747ZM30.668 11.6946L35.4093 11.6946L35.0675 11.0747L30.668 11.0747L30.668 11.6946ZM35.5692 11.6946L37.9297 11.6946L37.9297 11.0747L35.5692 11.0747L35.5692 11.6946Z" fill="rgb(204,204,204)" fill-rule="evenodd" />
		<path id="Vector" d="M30.668 12.3147L37.9297 12.3147L37.9297 11.6948L35.5692 11.6948L35.5692 11.9846L35.4093 11.6948L30.668 11.6948L30.668 12.3147ZM30.668 12.9345L32.9882 12.9345L32.9882 12.3768L33.3382 12.9345L37.9297 12.9345L37.9297 12.3147L30.668 12.3147L30.668 12.9345Z" fill="rgb(204,204,204)" fill-rule="evenodd" />
		<path id="Vector" d="M30.668 13.5342L32.9882 13.5342L32.9882 12.9351L30.668 12.9351L30.668 13.5342ZM33.7134 13.5342L37.9297 13.5342L37.9297 12.9351L33.3382 12.9351L33.7134 13.5342Z" fill="rgb(204,204,204)" fill-rule="evenodd" />
		<path id="Vector" d="M30.668 14.154L32.9882 14.154L32.9882 13.5342L30.668 13.5342L30.668 14.154ZM34.1021 14.154L37.9297 14.154L37.9297 13.5342L33.7134 13.5342L34.1021 14.154Z" fill="rgb(204,204,204)" fill-rule="evenodd" />
		<path id="Vector" d="M30.668 14.7736L32.9882 14.7736L32.9882 14.1538L30.668 14.1538L30.668 14.7736ZM34.4909 14.7736L37.9297 14.7736L37.9297 14.1538L34.1021 14.1538L34.4909 14.7736Z" fill="rgb(204,204,204)" fill-rule="evenodd" />
		<path id="Vector" d="M30.668 15.373L32.9882 15.373L32.9882 14.7734L30.668 14.7734L30.668 15.373ZM34.8661 15.373L37.9297 15.373L37.9297 14.7734L34.4909 14.7734L34.8661 15.373Z" fill="rgb(204,204,204)" fill-rule="evenodd" />
		<path id="Vector" d="M30.668 15.9929L32.9882 15.9929L32.9882 15.373L30.668 15.373L30.668 15.9929ZM35.2545 15.9929L37.9297 15.9929L37.9297 15.373L34.8661 15.373L35.2545 15.9929Z" fill="rgb(204,204,204)" fill-rule="evenodd" />
		<path id="Vector" d="M30.668 16.6125L32.9882 16.6125L32.9882 15.9927L30.668 15.9927L30.668 16.6125ZM35.6433 16.6125L37.9297 16.6125L37.9297 15.9927L35.2545 15.9927L35.6433 16.6125ZM30.668 17.2324L32.9882 17.2324L32.9882 16.6125L30.668 16.6125L30.668 17.2324ZM35.6693 17.2324L37.9297 17.2324L37.9297 16.6125L35.6433 16.6125L35.6689 16.6539L35.6689 17.2324L35.6693 17.2324ZM30.668 17.8319L32.9882 17.8319L32.9882 17.2324L30.668 17.2324L30.668 17.8319ZM35.6693 17.8319L37.9297 17.8319L37.9297 17.2324L35.6693 17.2324L35.6693 17.8319Z" fill="rgb(204,204,204)" fill-rule="evenodd" />
		<path id="Vector" d="M30.668 18.4514L32.9882 18.4514L32.9882 17.8315L30.668 17.8315L30.668 18.4514ZM35.6693 18.4514L37.9297 18.4514L37.9297 17.8315L35.6693 17.8315L35.6693 18.4514ZM30.668 19.0712L32.9882 19.0712L32.9882 18.4514L30.668 18.4514L30.668 19.0712ZM35.6693 19.0712L37.9297 19.0712L37.9297 18.4514L35.6693 18.4514L35.6693 19.0712Z" fill="rgb(204,204,204)" fill-rule="evenodd" />
		<path id="Vector" d="M30.668 19.6915L32.9882 19.6915L32.9882 19.0708L30.668 19.0708L30.668 19.6915ZM35.6693 19.6915L37.9297 19.6915L37.9297 19.0708L35.6693 19.0708L35.6693 19.6915Z" fill="rgb(204,204,204)" fill-rule="evenodd" />
		<path id="Vector" d="M30.668 20.2906L32.9882 20.2906L32.9882 19.6919L30.668 19.6919L30.668 20.2906ZM35.6693 20.2906L37.9297 20.2906L37.9297 19.6919L35.6693 19.6919L35.6693 20.2906ZM30.668 20.9113L32.9882 20.9113L32.9882 20.2906L30.668 20.2906L30.668 20.9113ZM35.6693 20.9113L37.9297 20.9113L37.9297 20.2906L35.6693 20.2906L35.6693 20.9113Z" fill="rgb(204,204,204)" fill-rule="evenodd" />
		<path id="Vector" d="M30.668 21.531L32.9882 21.531L32.9882 20.9111L30.668 20.9111L30.668 21.531ZM35.6693 21.531L37.9297 21.531L37.9297 20.9111L35.6693 20.9111L35.6693 21.531Z" fill="rgb(204,204,204)" fill-rule="evenodd" />
		<path id="Vector" d="M30.668 22.1501L32.9882 22.1501L32.9882 21.5303L30.668 21.5303L30.668 22.1501ZM35.6693 22.1501L37.9297 22.1501L37.9297 21.5303L35.6693 21.5303L35.6693 22.1501ZM30.668 22.7497L32.9882 22.7497L32.9882 22.1501L30.668 22.1501L30.668 22.7497ZM35.6693 22.7497L37.9297 22.7497L37.9297 22.1501L35.6693 22.1501L35.6693 22.7497Z" fill="rgb(204,204,204)" fill-rule="evenodd" />
		<path id="Vector" d="M30.668 23.3699L32.9882 23.3699L32.9882 22.75L30.668 22.75L30.668 23.3699ZM35.6693 23.3699L37.9297 23.3699L37.9297 22.75L35.6693 22.75L35.6693 23.3699Z" fill="rgb(204,204,204)" fill-rule="evenodd" />
		<path id="Vector" d="M30.668 23.989L32.9882 23.989L32.9882 23.3691L30.668 23.3691L30.668 23.989ZM35.6693 23.989L37.9297 23.989L37.9297 23.3691L35.6693 23.3691L35.6693 23.989Z" fill="rgb(204,204,204)" fill-rule="evenodd" />
		<path id="Vector" d="M30.668 24.6091L32.9882 24.6091L32.9882 23.9893L30.668 23.9893L30.668 24.6091ZM35.6693 24.6091L37.9297 24.6091L37.9297 23.9893L35.6693 23.9893L35.6693 24.6091Z" fill="rgb(204,204,204)" fill-rule="evenodd" />
		<path id="Vector" d="M30.668 25.2084L32.9882 25.2084L32.9882 24.6089L30.668 24.6089L30.668 25.2084ZM35.6693 25.2084L37.9297 25.2084L37.9297 24.6089L35.6693 24.6089L35.6693 25.2084ZM30.668 25.8283L32.9882 25.8283L32.9882 25.2084L30.668 25.2084L30.668 25.8283ZM35.6693 25.8283L37.9297 25.8283L37.9297 25.2084L35.6693 25.2084L35.6693 25.8283Z" fill="rgb(204,204,204)" fill-rule="evenodd" />
		<path id="Vector" d="M30.668 26.448L32.9882 26.448L32.9882 25.8281L30.668 25.8281L30.668 26.448ZM35.6693 26.448L37.9297 26.448L37.9297 25.8281L35.6693 25.8281L35.6693 26.448Z" fill="rgb(204,204,204)" fill-rule="evenodd" />
		<path id="Vector" d="M30.668 26.4479L30.668 3.09961L35.5692 11.9849L35.5692 4.3393L37.9297 4.3393L37.9297 26.4479L35.6693 26.4479L35.6693 16.6542L32.9882 12.377L32.9882 26.4479L30.668 26.4479Z" fill-rule="nonzero" />
		<path id="Vector" d="M51.9004 0.868256L53.7531 0.868256L53.7531 0C53.7531 0 53.0073 0.26195 51.9004 0.868256Z" fill="rgb(204,204,204)" fill-rule="evenodd" />
		<path id="Vector" d="M50.4683 1.73563L53.7534 1.73563L53.7534 0.868164L51.9008 0.868164C51.4113 1.13603 50.9334 1.42546 50.4683 1.73563Z" fill="rgb(204,204,204)" fill-rule="evenodd" />
		<path id="Vector" d="M49.2942 2.583L53.7531 2.583L53.7531 1.73584L50.4679 1.73584C50.0668 2.00349 49.6753 2.28607 49.2942 2.583ZM48.259 3.45086L53.7531 3.45086L53.7531 2.583L49.2942 2.583C48.9395 2.85986 48.5942 3.14933 48.259 3.45086ZM47.3589 4.31872L52.8623 4.31872C53.4086 4.05557 53.7535 3.94689 53.7535 3.94689L53.7535 3.45086L48.2594 3.45086C47.9496 3.72942 47.6492 4.01888 47.3589 4.31872Z" fill="rgb(204,204,204)" fill-rule="evenodd" />
		<path id="Vector" d="M46.5715 5.18613L51.3602 5.18613C51.8399 4.86013 52.3418 4.56997 52.8621 4.31787L47.3588 4.31787C47.0872 4.5984 46.8246 4.88797 46.5715 5.18613ZM45.8828 6.05399L50.2249 6.05399C50.587 5.74302 50.9661 5.45341 51.3602 5.18653L46.5715 5.18653C46.3328 5.46792 46.1031 5.75723 45.8828 6.05399Z" fill="rgb(204,204,204)" fill-rule="evenodd" />
		<path id="Vector" d="M45.278 6.92206L49.3117 6.92206C49.6014 6.61689 49.9063 6.32722 50.225 6.0542L45.8829 6.0542C45.6723 6.33677 45.4706 6.62621 45.278 6.92206ZM44.7612 7.76923L48.5784 7.76923C48.8101 7.47541 49.0549 7.19273 49.3121 6.92206L45.2784 6.92206C45.1 7.19476 44.9281 7.47702 44.7612 7.76923Z" fill="rgb(204,204,204)" fill-rule="evenodd" />
		<path id="Vector" d="M44.2998 8.6369L47.9517 8.6369C48.1482 8.33843 48.3573 8.04887 48.5783 7.76904L44.7612 7.76904C44.5992 8.05367 44.4454 8.34308 44.2998 8.6369ZM43.9014 9.50517L47.4322 9.50517C47.599 9.20102 47.7724 8.91199 47.9521 8.6373L44.3002 8.6373C44.1605 8.91836 44.0271 9.20739 43.9014 9.50517Z" fill="rgb(204,204,204)" fill-rule="evenodd" />
		<path id="Vector" d="M43.5601 10.3727L47.0012 10.3727C47.134 10.078 47.2775 9.78851 47.4315 9.50488L43.9007 9.50488C43.7795 9.79092 43.6659 10.0803 43.5601 10.3727Z" fill="rgb(204,204,204)" fill-rule="evenodd" />
		<path id="Vector" d="M43.2731 11.2399L46.6491 11.2399C46.7581 10.9398 46.8757 10.6499 47.0006 10.3721L43.5595 10.3721C43.4582 10.6547 43.3628 10.9441 43.2731 11.2399ZM43.0415 12.0871L46.3698 12.0871C46.4563 11.7953 46.5494 11.513 46.6495 11.2399L43.2735 11.2399C43.1889 11.5202 43.1116 11.8027 43.0415 12.0871Z" fill="rgb(204,204,204)" fill-rule="evenodd" />
		<path id="Vector" d="M42.8485 12.9548L46.1465 12.9548C46.214 12.6566 46.2881 12.3672 46.37 12.0869L43.0417 12.0869C42.9702 12.3745 42.9058 12.6639 42.8485 12.9548ZM42.7007 13.8226L45.9766 13.8226C46.0258 13.5249 46.0825 13.2358 46.1465 12.9548L42.8485 12.9548C42.793 13.2386 42.7438 13.528 42.7007 13.8226Z" fill="rgb(204,204,204)" fill-rule="evenodd" />
		<path id="Vector" d="M42.5945 14.6906L45.8576 14.6906C45.8902 14.3936 45.9306 14.1042 45.9767 13.8228L42.7009 13.8228C42.6589 14.1112 42.6234 14.4005 42.5945 14.6906ZM42.5243 15.5585L45.7851 15.5585C45.8025 15.2623 45.8266 14.9729 45.858 14.6906L42.5949 14.6906C42.5652 14.9793 42.5417 15.2687 42.5243 15.5585ZM42.4956 16.4056L45.7548 16.4056C45.7587 16.1174 45.7684 15.8348 45.7851 15.5589L42.5243 15.5589C42.5092 15.8409 42.4996 16.1232 42.4956 16.4056Z" fill="rgb(204,204,204)" fill-rule="evenodd" />
		<path id="Vector" d="M42.4973 17.2731L45.7635 17.2731C45.7555 17.0666 45.7515 16.86 45.7515 16.6533C45.7515 16.5701 45.753 16.4881 45.7546 16.4053L42.4954 16.4053C42.4938 16.5219 42.4907 16.6386 42.4907 16.7568C42.4907 16.9312 42.4938 17.1031 42.4973 17.2731ZM50.4924 17.2731L53.7531 17.2731L53.7531 16.7568L50.4924 16.7568L50.4924 17.2731Z" fill="rgb(204,204,204)" fill-rule="evenodd" />
		<path id="Vector" d="M42.5411 18.1421L45.8232 18.1421C45.7956 17.8532 45.7759 17.5635 45.7642 17.2734L42.498 17.2734C42.5062 17.568 42.5205 17.8575 42.5411 18.1421ZM50.4928 18.1421L53.7535 18.1421L53.7535 17.2734L50.4928 17.2734L50.4928 18.1421Z" fill="rgb(204,204,204)" fill-rule="evenodd" />
		<path id="Vector" d="M42.6198 19.0104L45.9329 19.0104C45.8876 18.7224 45.8509 18.433 45.8231 18.1426L42.541 18.1426C42.5612 18.4364 42.5872 18.7266 42.6198 19.0104ZM50.4926 19.0104L53.7534 19.0104L53.7534 18.1426L50.4926 18.1426L50.4926 19.0104Z" fill="rgb(204,204,204)" fill-rule="evenodd" />
		<path id="Vector" d="M42.7446 19.8776L46.0965 19.8776C46.0331 19.5902 45.9785 19.3007 45.9328 19.0098L42.6196 19.0098C42.6545 19.3048 42.6968 19.5938 42.7446 19.8776ZM50.4925 19.8776L53.7533 19.8776L53.7533 19.0098L50.4925 19.0098L50.4925 19.8776Z" fill="rgb(204,204,204)" fill-rule="evenodd" />
		<path id="Vector" d="M42.9138 20.7453L46.3193 20.7453C46.2357 20.4586 46.1614 20.1692 46.0965 19.8774L42.7446 19.8774C42.7947 20.1728 42.8509 20.4623 42.9138 20.7453ZM50.4926 20.7453L53.7533 20.7453L53.7533 19.8774L50.4926 19.8774L50.4926 20.7453Z" fill="rgb(204,204,204)" fill-rule="evenodd" />
		<path id="Vector" d="M43.1235 21.5919L46.5965 21.5919C46.4945 21.313 46.402 21.0306 46.319 20.7451L42.9136 20.7451C42.9772 21.0337 43.0467 21.316 43.1235 21.5919ZM50.4923 21.5919L53.7531 21.5919L53.7531 20.7451L50.4923 20.7451L50.4923 21.5919ZM43.3893 22.4605L46.9488 22.4605C46.8214 22.1753 46.7039 21.8856 46.5965 21.5919L43.1235 21.5919C43.2053 21.8881 43.2938 22.1783 43.3893 22.4605ZM50.4923 22.4605L53.7531 22.4605L53.7531 21.5919L50.4923 21.5919L50.4923 22.4605Z" fill="rgb(204,204,204)" fill-rule="evenodd" />
		<path id="Vector" d="M43.7111 23.3283L47.3765 23.3283C47.2232 23.0446 47.0803 22.7551 46.9482 22.4604L43.3887 22.4604C43.4899 22.757 43.5974 23.0461 43.7111 23.3283ZM50.4922 23.3283L53.7529 23.3283L53.7529 22.4604L50.4922 22.4604L50.4922 23.3283Z" fill="rgb(204,204,204)" fill-rule="evenodd" />
		<path id="Vector" d="M44.0945 24.196L47.891 24.196C47.7089 23.9137 47.5375 23.6242 47.3773 23.3281L43.7119 23.3281C43.8322 23.6251 43.9602 23.9145 44.0945 24.196ZM50.4926 24.196L53.7533 24.196L53.7533 23.3281L50.4926 23.3281L50.4926 24.196Z" fill="rgb(204,204,204)" fill-rule="evenodd" />
		<path id="Vector" d="M44.542 25.0637L48.5046 25.0637C48.2881 24.7835 48.0833 24.4939 47.8908 24.1958L44.0942 24.1958C44.2366 24.4944 44.3868 24.783 44.542 25.0637ZM50.4923 25.0637L53.7531 25.0637L53.7531 24.1958L50.4923 24.1958L50.4923 25.0637Z" fill="rgb(204,204,204)" fill-rule="evenodd" />
		<path id="Vector" d="M45.0483 25.9107L49.2209 25.9107C48.9698 25.6397 48.7308 25.3572 48.5046 25.064L44.542 25.064C44.7016 25.3519 44.8705 25.6343 45.0483 25.9107ZM50.4923 25.9107L53.7531 25.9107L53.7531 25.064L50.4923 25.064L50.4923 25.9107Z" fill="rgb(204,204,204)" fill-rule="evenodd" />
		<path id="Vector" d="M45.6467 26.7788L50.1254 26.7788C49.8075 26.508 49.5056 26.2179 49.2214 25.9102L45.0488 25.9102C45.2387 26.2064 45.4381 26.4961 45.6467 26.7788ZM50.4928 26.7788L53.7536 26.7788L53.7536 25.9102L50.4928 25.9102L50.4928 26.7788Z" fill="rgb(204,204,204)" fill-rule="evenodd" />
		<path id="Vector" d="M46.3336 27.6472L53.7534 27.6472L53.7534 26.7793L50.4926 26.7793L50.4926 27.0687C50.4926 27.0687 50.3549 26.9732 50.1252 26.7793L45.6465 26.7793C45.8659 27.0765 46.0951 27.3659 46.3336 27.6472Z" fill="rgb(204,204,204)" fill-rule="evenodd" />
		<path id="Vector" d="M47.1239 28.5143L53.7532 28.5143L53.7532 27.6465L46.3335 27.6465C46.5919 27.9514 46.8565 28.2397 47.1239 28.5143Z" fill="rgb(204,204,204)" fill-rule="evenodd" />
		<path id="Vector" d="M48.0358 29.382L53.7534 29.382L53.7534 28.5142L47.124 28.5142C47.4179 28.8144 47.722 29.1039 48.0358 29.382Z" fill="rgb(204,204,204)" fill-rule="evenodd" />
		<path id="Vector" d="M49.0923 30.2502L53.7537 30.2502L53.7537 29.3823L48.0361 29.3823C48.3774 29.6852 48.7297 29.9747 49.0923 30.2502ZM50.3001 31.0977L53.7533 31.0977L53.7533 30.2502L49.0919 30.2502C49.4839 30.5484 49.887 30.8311 50.3001 31.0977ZM51.79 31.9656L53.7537 31.9656L53.7537 31.0977L50.3005 31.0977C50.8359 31.4421 51.3403 31.7307 51.79 31.9656Z" fill="rgb(204,204,204)" fill-rule="evenodd" />
		<path id="Vector" d="M53.7532 32.8332L53.7532 31.9653L51.7896 31.9653C52.9582 32.576 53.7532 32.8332 53.7532 32.8332Z" fill="rgb(204,204,204)" fill-rule="evenodd" />
		<path id="Vector" d="M53.7531 16.7573L53.7531 32.8331C53.7531 32.8331 42.4907 29.1964 42.4907 16.7573C42.4907 3.94679 53.7531 0 53.7531 0L53.7531 3.94679C53.7531 3.94679 45.7515 6.46758 45.7515 16.6538C45.7515 23.8034 50.4924 27.0682 50.4924 27.0682L50.4924 16.7573L53.7531 16.7573Z" fill-rule="nonzero" />
		<path id="Vector" d="M59.2949 17.6046L61.6753 17.6046L61.6753 17.439L59.2949 17.439L59.2949 17.6046ZM64.4565 17.6046L66.9369 17.6046L66.9369 17.439L64.4565 17.439L64.4565 17.6046ZM59.2949 18.2033L61.6753 18.2033L61.6753 17.6046L59.2949 17.6046L59.2949 18.2033ZM64.4565 18.2033L66.9369 18.2033L66.9369 17.6046L64.4565 17.6046L64.4565 18.2033Z" fill="rgb(204,204,204)" fill-rule="evenodd" />
		<path id="Vector" d="M59.2949 18.8032L61.6753 18.8032L61.6753 18.2036L59.2949 18.2036L59.2949 18.8032ZM64.4565 18.8032L66.9369 18.8032L66.9369 18.2036L64.4565 18.2036L64.4565 18.8032Z" fill="rgb(204,204,204)" fill-rule="evenodd" />
		<path id="Vector" d="M59.2949 19.4015L61.6753 19.4015L61.6753 18.8027L59.2949 18.8027L59.2949 19.4015ZM64.4565 19.4015L66.9369 19.4015L66.9369 18.8027L64.4565 18.8027L64.4565 19.4015ZM59.2949 20.001L61.6753 20.001L61.6753 19.4015L59.2949 19.4015L59.2949 20.001ZM64.4565 20.001L66.9369 20.001L66.9369 19.4015L64.4565 19.4015L64.4565 20.001Z" fill="rgb(204,204,204)" fill-rule="evenodd" />
		<path id="Vector" d="M59.2949 20.601L61.6753 20.601L61.6753 20.0015L59.2949 20.0015L59.2949 20.601ZM64.4565 20.601L66.9369 20.601L66.9369 20.0015L64.4565 20.0015L64.4565 20.601ZM59.2949 21.2005L61.6753 21.2005L61.6753 20.601L59.2949 20.601L59.2949 21.2005ZM64.4565 21.2005L66.9369 21.2005L66.9369 20.601L64.4565 20.601L64.4565 21.2005Z" fill="rgb(204,204,204)" fill-rule="evenodd" />
		<path id="Vector" d="M59.2949 21.7989L61.6753 21.7989L61.6753 21.2002L59.2949 21.2002L59.2949 21.7989ZM64.4565 21.7989L66.9369 21.7989L66.9369 21.2002L64.4565 21.2002L64.4565 21.7989ZM59.2949 22.4188L61.6753 22.4188L61.6753 21.7989L59.2949 21.7989L59.2949 22.4188ZM64.4565 22.4188L66.9369 22.4188L66.9369 21.7989L64.4565 21.7989L64.4565 22.4188ZM59.2949 23.0183L61.6753 23.0183L61.6753 22.4188L59.2949 22.4188L59.2949 23.0183ZM64.4565 23.0183L66.9369 23.0183L66.9369 22.4188L64.4565 22.4188L64.4565 23.0183Z" fill="rgb(204,204,204)" fill-rule="evenodd" />
		<path id="Vector" d="M59.3535 23.6176L61.9361 23.6176C61.7246 23.3158 61.6753 23.0181 61.6753 23.0181L59.295 23.0181C59.295 23.0181 59.2915 23.2597 59.3535 23.6176ZM64.3506 23.6176L66.8955 23.6176C66.9242 23.4186 66.9343 23.2553 66.937 23.1502L66.937 23.0181L64.4565 23.0181C64.4565 23.0181 64.4852 23.3158 64.3506 23.6176ZM59.5037 24.2164L62.9274 24.2164C62.4249 24.1423 62.1196 23.8788 61.9361 23.6176L59.3535 23.6176C59.3846 23.794 59.4315 23.9986 59.5037 24.2164ZM63.504 24.2164L66.7624 24.2164C66.8283 23.9986 66.8691 23.794 66.8951 23.6176L64.3502 23.6176C64.2338 23.8788 63.9936 24.1423 63.504 24.2164Z" fill="rgb(204,204,204)" fill-rule="evenodd" />
		<path id="Vector" d="M59.7577 24.8159L66.5271 24.8159C66.6287 24.6128 66.7051 24.4094 66.7626 24.2163L63.5042 24.2163C63.313 24.2449 63.1188 24.2449 62.9276 24.2163L59.5039 24.2163C59.5675 24.409 59.6498 24.6128 59.7577 24.8159Z" fill="rgb(204,204,204)" fill-rule="evenodd" />
		<path id="Vector" d="M60.164 25.4155L66.14 25.4155C66.2906 25.2312 66.4205 25.03 66.5272 24.8159L59.7578 24.8159C59.8713 25.0305 60.0075 25.2316 60.164 25.4155ZM60.8489 26.0142L65.4746 26.0142C65.7244 25.85 65.9487 25.6482 66.14 25.4155L60.164 25.4155C60.3626 25.6483 60.5933 25.85 60.8489 26.0142Z" fill="rgb(204,204,204)" fill-rule="evenodd" />
		<path id="Vector" d="M65.4743 26.0137L60.8486 26.0137C61.4035 26.3712 62.155 26.6132 63.1758 26.6132C64.1916 26.6132 64.9335 26.3716 65.4743 26.0137Z" fill="rgb(204,204,204)" fill-rule="evenodd" />
		<path id="Vector" d="M60.8365 4.38039L65.413 4.38039C64.8589 4.0221 64.1043 3.78125 63.0761 3.78125C62.0983 3.78085 61.3739 4.0221 60.8365 4.38039ZM60.1719 4.97954L66.0943 4.97954C65.8974 4.7463 65.6678 4.54437 65.413 4.38039L60.8365 4.38039C60.5877 4.54577 60.3638 4.74763 60.1719 4.97954Z" fill="rgb(204,204,204)" fill-rule="evenodd" />
		<path id="Vector" d="M59.7742 5.57864L66.4928 5.57864C66.3818 5.3645 66.2482 5.16357 66.0943 4.97949L60.1719 4.97949C60.0189 5.16411 59.8856 5.36497 59.7742 5.57864ZM59.5208 6.17779L66.7396 6.17779C66.6746 5.97097 66.5919 5.77047 66.4924 5.57864L59.7738 5.57864C59.6737 5.77094 59.5891 5.97132 59.5208 6.17779ZM59.3672 6.77733L61.8923 6.77733C62.0781 6.49826 62.4203 6.23989 63.0555 6.23989C63.7011 6.23989 64.0492 6.49786 64.2362 6.77733L66.8831 6.77733C66.8501 6.57421 66.8023 6.37392 66.7399 6.17818L59.5212 6.17818C59.4564 6.37399 59.4049 6.57419 59.3672 6.77733Z" fill="rgb(204,204,204)" fill-rule="evenodd" />
		<path id="Vector" d="M59.2966 7.3764L61.6809 7.3764C61.7037 7.16223 61.7762 6.95679 61.8923 6.77725L59.3672 6.77725C59.3164 7.04995 59.3013 7.26532 59.2966 7.3764ZM64.4508 7.3764L66.9371 7.3764L66.9371 7.32902C66.9314 7.14392 66.9133 6.95944 66.8831 6.77686L64.2362 6.77686C64.3914 7.00736 64.4368 7.25219 64.4508 7.3764ZM59.295 7.99624L61.6754 7.99624L61.6754 7.4588C61.6754 7.4588 61.6754 7.42775 61.6809 7.3764L59.2966 7.3764C59.2943 7.42934 59.295 7.4588 59.295 7.4588L59.295 7.99624ZM64.4566 7.99624L66.9371 7.99624L66.9371 7.3764L64.4508 7.3764C64.457 7.42775 64.457 7.4588 64.457 7.4588L64.457 7.99624L64.4566 7.99624Z" fill="rgb(204,204,204)" fill-rule="evenodd" />
		<path id="Vector" d="M59.2949 8.59564L61.6753 8.59564L61.6753 7.99609L59.2949 7.99609L59.2949 8.59564ZM64.4565 8.59564L66.9369 8.59564L66.9369 7.99609L64.4565 7.99609L64.4565 8.59564ZM59.2949 9.19479L61.6753 9.19479L61.6753 8.59564L59.2949 8.59564L59.2949 9.19479ZM64.4565 9.19479L66.9369 9.19479L66.9369 8.59564L64.4565 8.59564L64.4565 9.19479Z" fill="rgb(204,204,204)" fill-rule="evenodd" />
		<path id="Vector" d="M59.2949 9.79397L61.6753 9.79397L61.6753 9.19482L59.2949 9.19482L59.2949 9.79397ZM64.4565 9.79397L66.9369 9.79397L66.9369 9.19482L64.4565 9.19482L64.4565 9.79397ZM59.2949 10.3935L61.6753 10.3935L61.6753 9.79437L59.2949 9.79437L59.2949 10.3935ZM64.4565 10.3935L66.9369 10.3935L66.9369 9.79437L64.4565 9.79437L64.4565 10.3935Z" fill="rgb(204,204,204)" fill-rule="evenodd" />
		<path id="Vector" d="M59.2949 10.9927L61.6753 10.9927L61.6753 10.3936L59.2949 10.3936L59.2949 10.9927ZM64.4565 10.9927L66.9369 10.9927L66.9369 10.3936L64.4565 10.3936L64.4565 10.9927ZM59.2949 11.5918L61.6753 11.5918L61.6753 10.9927L59.2949 10.9927L59.2949 11.5918ZM64.4565 11.5918L66.9369 11.5918L66.9369 10.9927L64.4565 10.9927L64.4565 11.5918ZM59.2949 12.191L61.6753 12.191L61.6753 11.5918L59.2949 11.5918L59.2949 12.191ZM64.4565 12.191L66.9369 12.191L66.9369 11.5918L64.4565 11.5918L64.4565 12.191Z" fill="rgb(204,204,204)" fill-rule="evenodd" />
		<path id="Vector" d="M59.2949 12.79L61.6753 12.79L61.6753 12.1909L59.2949 12.1909L59.2949 12.79ZM64.4565 12.79L66.9369 12.79L66.9369 12.1909L64.4565 12.1909L64.4565 12.79Z" fill="rgb(204,204,204)" fill-rule="evenodd" />
		<path id="Vector" d="M59.2949 13.3891L61.6753 13.3891L61.6753 12.7896L59.2949 12.7896L59.2949 13.3891ZM64.4565 13.3891L66.9369 13.3891L66.9369 12.7896L64.4565 12.7896L64.4565 13.3891Z" fill="rgb(204,204,204)" fill-rule="evenodd" />
		<path id="Vector" d="M59.2949 13.9883L61.6753 13.9883L61.6753 13.3892L59.2949 13.3892L59.2949 13.9883ZM64.4565 13.9883L66.9369 13.9883L66.9369 13.3892L64.4565 13.3892L64.4565 13.9883ZM59.2949 14.5878L61.6753 14.5878L61.6753 13.9887L59.2949 13.9887L59.2949 14.5878ZM64.4565 14.5878L66.9369 14.5878L66.9369 13.9887L64.4565 13.9887L64.4565 14.5878ZM59.2949 15.2077L61.6753 15.2077L61.6753 14.5878L59.2949 14.5878L59.2949 15.2077ZM64.4565 15.2077L66.9369 15.2077L66.9369 14.5878L64.4565 14.5878L64.4565 15.2077Z" fill="rgb(204,204,204)" fill-rule="evenodd" />
		<path id="Vector" d="M59.2949 15.8067L61.6753 15.8067L61.6753 15.2075L59.2949 15.2075L59.2949 15.8067ZM64.4565 15.8067L66.9369 15.8067L66.9369 15.2075L64.4565 15.2075L64.4565 15.8067ZM59.2949 16.4058L61.6753 16.4058L61.6753 15.8067L59.2949 15.8067L59.2949 16.4058ZM64.4565 16.4058L66.9369 16.4058L66.9369 15.8067L64.4565 15.8067L64.4565 16.4058Z" fill="rgb(204,204,204)" fill-rule="evenodd" />
		<path id="Vector" d="M59.2949 17.0048L61.6753 17.0048L61.6753 16.4053L59.2949 16.4053L59.2949 17.0048ZM64.4565 17.0048L66.9369 17.0048L66.9369 16.4053L64.4565 16.4053L64.4565 17.0048ZM66.9369 17.4388L66.9369 17.0048L64.4565 17.0048L64.4565 17.4388L66.9369 17.4388ZM61.6753 17.0048L59.2949 17.0048L59.2949 17.4388L61.6753 17.4388L61.6753 17.0048Z" fill="rgb(204,204,204)" fill-rule="evenodd" />
		<path id="Vector" d="M61.6754 23.0179L61.6754 7.45883C61.6754 7.45883 61.6754 6.23984 63.0555 6.23984C64.4565 6.23984 64.4565 7.45883 64.4565 7.45883L64.4565 23.0179C64.4565 23.0179 64.5764 24.2369 63.2161 24.2369C61.8756 24.2369 61.6754 23.0179 61.6754 23.0179ZM59.295 23.0179L59.295 7.45883C59.295 7.45883 59.2546 3.78076 63.0756 3.78076C67.0965 3.78076 66.9366 7.45883 66.9366 7.45883L66.9366 23.0179C66.9366 23.0179 67.0965 26.6131 63.1757 26.6131C59.2344 26.6131 59.295 23.0179 59.295 23.0179Z" fill-rule="nonzero" />
		<path id="Vector" d="M19.3819 4.54543L23.9941 4.54543C23.4532 4.18833 22.7094 3.94629 21.6855 3.94629C20.6662 3.94629 19.9236 4.18833 19.3819 4.54543ZM18.7153 5.14458L24.6568 5.14458C24.4668 4.91133 24.2432 4.70927 23.9937 4.54543L19.3819 4.54543C19.1316 4.70957 18.9069 4.91157 18.7153 5.14458Z" fill="rgb(204,204,204)" fill-rule="evenodd" />
		<path id="Vector" d="M18.3389 5.72395L25.0287 5.72395C24.9259 5.5177 24.8013 5.32372 24.657 5.14551L18.7152 5.14551C18.5696 5.32367 18.4434 5.51764 18.3389 5.72395Z" fill="rgb(204,204,204)" fill-rule="evenodd" />
		<path id="Vector" d="M18.0991 6.32229L25.2639 6.32229C25.2034 6.11572 25.1248 5.91519 25.0291 5.72314L18.3393 5.72314C18.2421 5.9152 18.1618 6.1157 18.0991 6.32229ZM17.9648 6.92183L20.5974 6.92183C20.7786 6.67063 21.1123 6.42579 21.7257 6.42579C22.3585 6.42579 22.6934 6.67063 22.8695 6.92183L25.3923 6.92183C25.3649 6.71901 25.322 6.51869 25.2643 6.32269L18.0991 6.32269C18.032 6.54284 17.9905 6.74786 17.9648 6.92183Z" fill="rgb(204,204,204)" fill-rule="evenodd" />
		<path id="Vector" d="M17.9242 7.50032L20.3849 7.50032L20.3849 7.45892C20.3849 7.45892 20.4063 7.18661 20.5972 6.92188L17.9646 6.92188C17.9169 7.24474 17.9242 7.45892 17.9242 7.45892L17.9242 7.50032ZM23.0656 7.50032L25.4262 7.50032L25.4262 7.32993C25.4221 7.19336 25.4106 7.05712 25.3916 6.92188L22.8689 6.92188C23.0551 7.18661 23.0656 7.45892 23.0656 7.45892L23.0656 7.50032ZM17.9242 8.09946L20.3849 8.09946L20.3849 7.50032L17.9242 7.50032L17.9242 8.09946ZM23.0656 8.09946L25.4262 8.09946L25.4262 7.50032L23.0656 7.50032L23.0656 8.09946Z" fill="rgb(204,204,204)" fill-rule="evenodd" />
		<path id="Vector" d="M17.9243 8.69973L20.385 8.69973L20.385 8.10059L17.9243 8.10059L17.9243 8.69973ZM23.0657 8.69973L25.4263 8.69973L25.4263 8.10059L23.0657 8.10059L23.0657 8.69973ZM17.9243 9.27818L20.385 9.27818L20.385 8.69973L17.9243 8.69973L17.9243 9.27818ZM23.0657 9.27818L25.4263 9.27818L25.4263 8.69973L23.0657 8.69973L23.0657 9.27818Z" fill="rgb(204,204,204)" fill-rule="evenodd" />
		<path id="Vector" d="M17.9243 9.87649L20.385 9.87649L20.385 9.27734L17.9243 9.27734L17.9243 9.87649ZM23.0657 9.87649L25.4263 9.87649L25.4263 9.27734L23.0657 9.27734L23.0657 9.87649ZM17.9243 10.4549L20.385 10.4549L20.385 9.87649L17.9243 9.87649L17.9243 10.4549ZM23.0657 10.4549L25.4263 10.4549L25.4263 9.87649L23.0657 9.87649L23.0657 10.4549Z" fill="rgb(204,204,204)" fill-rule="evenodd" />
		<path id="Vector" d="M17.9243 11.0546L20.385 11.0546L20.385 10.4551L17.9243 10.4551L17.9243 11.0546ZM23.0657 11.0546L25.4263 11.0546L25.4263 10.4551L23.0657 10.4551L23.0657 11.0546ZM17.9243 11.6538L20.385 11.6538L20.385 11.0546L17.9243 11.0546L17.9243 11.6538ZM23.0657 11.6538L25.4263 11.6538L25.4263 11.0546L23.0657 11.0546L23.0657 11.6538Z" fill="rgb(204,204,204)" fill-rule="evenodd" />
		<path id="Vector" d="M17.9243 12.2322L20.385 12.2322L20.385 11.6538L17.9243 11.6538L17.9243 12.2322ZM23.0657 12.2322L25.4263 12.2322L25.4263 11.6538L23.0657 11.6538L23.0657 12.2322Z" fill="rgb(204,204,204)" fill-rule="evenodd" />
		<path id="Vector" d="M17.9243 12.8315L20.385 12.8315L20.385 12.2319L17.9243 12.2319L17.9243 12.8315ZM23.0657 12.8315L25.4263 12.8315L25.4263 12.2319L23.0657 12.2319L23.0657 12.8315Z" fill="rgb(204,204,204)" fill-rule="evenodd" />
		<path id="Vector" d="M17.9243 13.4307L20.385 13.4307L20.385 12.8315L17.9243 12.8315L17.9243 13.4307ZM23.0657 13.4307L25.4263 13.4307L25.4263 12.8315L23.0657 12.8315L23.0657 13.4307Z" fill="rgb(204,204,204)" fill-rule="evenodd" />
		<path id="Vector" d="M17.9243 14.0091L20.385 14.0091L20.385 13.4307L17.9243 13.4307L17.9243 14.0091ZM23.0657 14.0091L25.4263 14.0091L25.4263 13.4307L23.0657 13.4307L23.0657 14.0091ZM17.9243 14.6083L20.385 14.6083L20.385 14.0091L17.9243 14.0091L17.9243 14.6083ZM23.0657 14.6083L25.4263 14.6083L25.4263 14.0091L23.0657 14.0091L23.0657 14.6083ZM17.9243 15.2078L20.385 15.2078L20.385 14.6086L17.9243 14.6086L17.9243 15.2078ZM23.0657 15.2078L25.4263 15.2078L25.4263 14.6086L23.0657 14.6086L23.0657 15.2078Z" fill="rgb(204,204,204)" fill-rule="evenodd" />
		<path id="Vector" d="M17.9243 15.786L20.385 15.786L20.385 15.2075L17.9243 15.2075L17.9243 15.786ZM23.0657 15.786L25.4263 15.786L25.4263 15.2075L23.0657 15.2075L23.0657 15.786ZM17.9243 16.3851L20.385 16.3851L20.385 15.786L17.9243 15.786L17.9243 16.3851ZM23.0657 16.3851L25.4263 16.3851L25.4263 15.786L23.0657 15.786L23.0657 16.3851Z" fill="rgb(204,204,204)" fill-rule="evenodd" />
		<path id="Vector" d="M17.9243 16.9844L20.385 16.9844L20.385 16.3853L17.9243 16.3853L17.9243 16.9844ZM23.0657 16.9844L25.4263 16.9844L25.4263 16.3853L23.0657 16.3853L23.0657 16.9844Z" fill="rgb(204,204,204)" fill-rule="evenodd" />
		<path id="Vector" d="M17.9243 17.5628L20.385 17.5628L20.385 16.9844L17.9243 16.9844L17.9243 17.5628ZM23.0657 17.5628L25.4263 17.5628L25.4263 16.9844L23.0657 16.9844L23.0657 17.5628ZM17.9243 18.1624L20.385 18.1624L20.385 17.5628L17.9243 17.5628L17.9243 18.1624ZM23.0657 18.1624L25.4263 18.1624L25.4263 17.5628L23.0657 17.5628L23.0657 18.1624Z" fill="rgb(204,204,204)" fill-rule="evenodd" />
		<path id="Vector" d="M17.9245 18.7406L20.3852 18.7406L20.3852 18.1621L17.9245 18.1621L17.9245 18.7406ZM23.0658 18.7406L25.4264 18.7406L25.4264 18.1621L23.0658 18.1621L23.0658 18.7406ZM17.9245 19.3401L20.3852 19.3401L20.3852 18.7406L17.9245 18.7406L17.9245 19.3401ZM23.0658 19.3401L25.4264 19.3401L25.4264 18.7406L23.0658 18.7406L23.0658 19.3401ZM14.8306 19.9389L25.4264 19.9389L25.4264 19.3401L23.0658 19.3401L23.0658 19.4846L20.3852 19.4846L20.3852 19.3401L17.9245 19.3401L17.9245 19.4846L14.5435 19.4846L14.8306 19.9389Z" fill="rgb(204,204,204)" fill-rule="evenodd" />
		<path id="Vector" d="M15.1964 20.5187L25.4264 20.5187L25.4264 19.9395L14.8306 19.9395L15.1964 20.5187ZM15.5747 21.1174L25.4264 21.1174L25.4264 20.5187L15.1964 20.5187L15.5747 21.1174Z" fill="rgb(204,204,204)" fill-rule="evenodd" />
		<path id="Vector" d="M15.9534 21.7163L25.4264 21.7163L25.4264 21.1172L15.5747 21.1172L15.9534 21.7163ZM18.0245 22.2952L20.3452 22.2952L20.3452 21.9643L23.1259 21.9643L23.1259 22.2952L25.4264 22.2952L25.4264 21.7163L15.9534 21.7163L16.0842 21.9233L18.0245 21.9233L18.0245 22.2952Z" fill="rgb(204,204,204)" fill-rule="evenodd" />
		<path id="Vector" d="M18.0244 22.8945L20.345 22.8945L20.345 22.2949L18.0244 22.2949L18.0244 22.8945ZM23.1258 22.8945L25.4263 22.8945L25.4263 22.2949L23.1258 22.2949L23.1258 22.8945Z" fill="rgb(204,204,204)" fill-rule="evenodd" />
		<path id="Vector" d="M18.0244 23.4928L20.345 23.4928L20.345 22.894L18.0244 22.894L18.0244 23.4928ZM23.1258 23.4928L25.4263 23.4928L25.4263 22.894L23.1258 22.894L23.1258 23.4928ZM18.0244 24.0712L20.345 24.0712L20.345 23.4928L18.0244 23.4928L18.0244 24.0712ZM23.1258 24.0712L25.4263 24.0712L25.4263 23.4928L23.1258 23.4928L23.1258 24.0712Z" fill="rgb(204,204,204)" fill-rule="evenodd" />
		<path id="Vector" d="M18.0244 24.6713L20.345 24.6713L20.345 24.0718L18.0244 24.0718L18.0244 24.6713ZM23.1258 24.6713L25.4263 24.6713L25.4263 24.0718L23.1258 24.0718L23.1258 24.6713ZM18.0244 25.2709L20.345 25.2709L20.345 24.6713L18.0244 24.6713L18.0244 25.2709ZM23.1258 25.2709L25.4263 25.2709L25.4263 24.6713L23.1258 24.6713L23.1258 25.2709ZM18.0244 25.8493L20.345 25.8493L20.345 25.2709L18.0244 25.2709L18.0244 25.8493ZM23.1258 25.8493L25.4263 25.8493L25.4263 25.2709L23.1258 25.2709L23.1258 25.8493Z" fill="rgb(204,204,204)" fill-rule="evenodd" />
		<path id="Vector" d="M18.0244 26.4479L20.345 26.4479L20.345 25.8491L18.0244 25.8491L18.0244 26.4479ZM23.1258 26.4479L25.4263 26.4479L25.4263 25.8491L23.1258 25.8491L23.1258 26.4479Z" fill="rgb(204,204,204)" fill-rule="evenodd" />
		<path id="Vector" d="M20.3852 19.4846L23.0658 19.4846L23.0658 7.45875C23.0658 7.45875 23.0259 6.42567 21.7253 6.42567C20.4651 6.42567 20.3848 7.45875 20.3848 7.45875L20.3848 19.4846L20.3852 19.4846ZM18.0246 26.4474L18.0246 21.923L16.0842 21.923L14.5435 19.4846L17.9245 19.4846L17.9245 7.45875C17.9245 7.45875 17.8046 3.94629 21.6853 3.94629C25.5863 3.94629 25.4264 7.45875 25.4264 7.45875L25.4264 26.4474L23.126 26.4474L23.126 21.964L20.3452 21.964L20.3452 26.4474L18.0246 26.4474Z" fill-rule="nonzero" />
	</g>
</svg>
