<svg viewBox="0 0 141 287" xmlns="http://www.w3.org/2000/svg" xmlns:xlink="http://www.w3.org/1999/xlink" width="141.000000" height="287.000000" fill="none" customFrame="#000000">
	<path id="Vector" d="M213.496 86.5326C214.764 89.3541 216.463 92.0079 218.246 94.55C222.202 100.221 228.679 102.595 235.24 100.626C237.608 99.9136 239.21 100.193 240.547 102.246C241.745 104.09 243.584 105.04 245.646 105.542C248.989 106.353 251.482 105.319 253.349 102.4C253.697 101.841 253.989 101.24 254.282 100.696C254.644 100.794 254.95 100.78 255.048 100.919C257.583 104.635 261.093 105.822 265.495 105.668C267.696 105.584 269.952 106.52 272.167 107.023C274.953 107.652 277.711 108.699 280.511 108.839C284.383 109.034 286.347 106.897 286.905 103.014C287.336 100.067 286.25 97.5391 284.718 95.2065C283.84 93.8656 282.712 92.6784 281.597 91.5191C279.661 89.5217 278.951 87.3428 279.94 84.5912C283.631 74.339 276.29 67.5228 268.49 66.5311C266.888 66.3216 265.258 66.3076 263.684 66.0004C262.124 65.6931 260.397 65.4556 259.143 64.5896C255.41 62.0196 251.649 61.1536 246.76 64.0728C247.498 62.3548 247.86 61.5028 248.222 60.6508C250.382 55.5805 247.526 50.7338 242.052 50.6221C239.447 50.5662 236.773 51.083 234.223 51.6976C231.006 52.4658 227.913 52.6054 224.71 51.6138C220.907 50.4265 217.188 51.083 213.636 52.7451C211.282 53.8486 209.387 55.4548 208.245 57.8712C207.758 58.9048 207.145 59.9105 206.476 60.8323C205.236 62.5643 203.481 63.5141 201.392 63.0253C196.182 61.8101 191.363 62.7459 186.64 65.5394C187.226 61.9916 187.783 58.6814 188.27 55.7482C190.847 54.8682 193.633 54.3933 195.89 53.0245C200.584 50.1751 200.681 45.5379 196.14 42.4371C194.232 41.1381 191.753 40.5096 189.44 39.9928C187.337 39.5318 186.069 38.8614 185.498 36.5009C184.523 32.4503 182.378 30.3132 177.879 27.7013C177.545 20.0052 170.218 15.9406 163.545 18.8738C163.016 15.9825 162.487 13.203 162.027 10.3955C161.832 9.26416 161.888 8.09088 161.693 6.94554C160.676 1.03727 154.7 -1.88195 149.63 1.31662C144.88 4.31965 140.827 8.07692 140.464 14.502C134.976 11.4152 129.14 10.8564 123.359 10.2C118.526 9.65523 114.291 11.471 110.669 14.6137C106.059 18.6364 106.881 25.4525 112.438 28.0645C115.21 29.3635 118.289 29.978 121.632 31.0256C120.796 31.4306 120.155 31.71 119.542 32.0313C118.024 32.8414 116.311 33.442 115.043 34.5315C112.675 36.5568 110.14 37.6323 107.02 38.0233C103.329 38.4703 102.242 41.4873 104.262 44.6859C105.85 47.214 108.19 48.527 111.143 48.6806C114.263 48.8482 117.035 47.8286 119.459 45.8871C120.35 45.1747 121.2 44.4205 122.579 43.2332C123.234 46.7251 123.819 49.77 124.529 53.5832C123.791 53.4575 123.094 53.1642 122.454 53.262C118.93 53.7788 116.729 56.1113 117.077 59.6591C117.383 62.8157 116.478 65.0226 113.887 66.6987C111.951 67.9558 111.087 69.9811 110.321 72.0762C109.583 74.0876 108.691 76.057 107.856 78.0544C106.992 77.9286 106.504 77.9566 106.128 77.789C91.1821 70.9868 78.172 74.6742 66.318 85.0381C62.6546 88.2367 60.0916 92.2174 58.4061 96.6312C55.5506 104.09 56.7067 111.367 60.4119 118.309C60.8438 119.119 61.3452 119.887 61.7909 120.683C61.8467 120.767 61.7909 120.907 61.7909 121.214C56.8042 124.776 51.3857 124.357 46.1761 121.996C42.6519 120.404 39.4899 117.96 36.2304 115.795C34.6982 114.775 33.347 113.49 31.8705 112.387C26.6191 108.434 20.7688 106.45 14.1244 106.967C9.4302 107.33 4.70815 107.763 0.306449 105.096C0.208943 105.305 0.097506 105.515 0 105.724C0.222871 105.989 0.403926 106.297 0.668586 106.506C1.03075 106.8 1.42077 107.037 1.83865 107.247C5.55781 109.09 9.31879 110.892 13.4976 111.353C19.5987 112.037 24.4879 115.236 29.2239 118.728C33.2077 121.661 36.9408 124.915 40.9943 127.723C46.9283 131.815 53.5587 133.268 60.7045 132.025C62.6267 131.69 64.5768 131.424 66.4852 131.019C67.7667 130.754 68.6024 131.159 69.4939 132.095C77.2526 140.308 87.0032 142.068 97.6453 140.461C101.727 139.847 105.307 137.822 108.329 135.098C113.595 130.363 117.996 124.929 120.88 118.351C123.526 112.317 123.805 106.073 122.816 99.6761C122.704 98.9917 122.565 98.3352 122.426 97.6089C126.925 95.7652 131.313 93.8516 135.812 92.2034C137.609 91.547 139.629 91.4352 141.565 91.2118C143.083 91.0302 144.281 91.5051 145.576 92.6085C147.192 93.9773 149.296 94.8852 151.343 95.5277C152.513 95.8909 154.227 95.7233 155.271 95.0947C157.194 93.9354 158.726 94.2288 160.342 95.402C162.194 96.7569 164.117 97.6787 166.262 96.1842C166.526 96.5893 166.735 96.7708 166.763 96.9664C167.71 105.207 176.388 109.928 183.994 106.367C185.22 105.794 186.585 105.096 187.866 105.109C190.262 105.137 192.143 104.411 193.744 102.33C194.413 103.084 194.984 103.741 195.569 104.383C196.266 105.151 196.906 105.989 197.7 106.646C199.985 108.532 202.59 109.3 205.417 108.099C208.245 106.897 208.997 104.285 209.039 101.548C209.067 100.095 208.691 98.5587 208.189 97.1759C207.521 95.3322 207.451 93.684 208.217 91.8263C209.638 88.3764 209.861 84.8984 207.172 81.1412C210.139 82.6497 212.285 83.8229 213.496 86.5326ZM148.822 7.79754C149.212 5.24148 150.591 3.95646 153.168 3.81678C155.592 3.69108 157.389 5.01803 157.82 7.47632C158.099 9.06862 158.043 10.7168 158.35 12.2951C159.172 16.5412 156.79 19.3348 154.171 22.1283C153.516 19.5862 152.931 17.1139 152.959 14.6416C153.001 12.0716 153.628 9.51558 154.032 6.73604C151.678 8.45405 151.733 11.052 150.856 13.7058C148.961 11.8482 148.488 9.97648 148.822 7.79754ZM118.999 42.046C116.993 44.0853 114.709 45.51 111.867 45.8312C108.803 46.1804 106.713 44.4065 106.407 41.2917C106.699 41.1521 106.992 40.8867 107.312 40.8727C111.073 40.6911 113.998 38.9172 116.645 36.3332C117.829 35.1879 119.487 34.3778 121.075 33.8331C124 32.8134 126.605 33.8051 128.708 36.6685C124.487 37.1853 121.604 39.4061 118.999 42.046ZM131.898 44.5881C132.176 46.8089 131.898 49.1415 131.536 51.3763C131.257 53.1502 130.003 53.5273 128.471 52.5636C126.869 51.5579 126.437 49.9516 126.201 48.1777C125.922 46.0826 125.462 44.0014 125.003 41.4594C128.569 39.0849 131.327 40.1045 131.898 44.5881ZM113.79 72.3277C114.291 71.2103 115.001 69.9671 115.963 69.3107C119.333 66.9781 120.838 64.0169 120.378 59.8686C120.113 57.5081 121.353 56.5024 123.749 56.6281C124.654 56.67 125.56 56.9773 126.465 57.117C130.226 57.6896 132.525 56.3069 133.402 52.6334C133.959 50.2868 134.099 47.8425 134.419 45.4541C135.478 37.5764 128.499 28.2879 120.768 27.1286C118.637 26.8074 116.478 26.1649 114.5 25.271C110.6 23.525 110.168 19.8097 113.344 16.9882C117.258 13.5243 123.624 12.6722 128.262 14.9769C130.519 16.1083 131.591 17.3653 132.371 19.8376C124.278 17.6028 119.166 18.0078 116.171 21.2343C117.578 22.0863 118.874 21.3182 120.127 21.0109C123.582 20.1589 126.981 20.1309 130.31 21.4159C132.009 22.0724 132.97 23.1339 133.388 25.1453C133.834 27.3102 134.907 29.5031 136.23 31.277C137.539 33.0369 139.517 34.294 141.3 35.8584C142.303 33.7493 141.286 32.143 139.81 30.7882C137.832 28.9724 136.829 26.7655 136.522 24.1396C136.216 21.4578 135.812 18.79 135.408 15.8149C136.272 16.3038 137.358 16.667 138.138 17.3793C144.351 23.106 146.649 30.5786 142.93 39.015C142.61 39.7413 142.345 40.4956 142.052 41.2359C142.317 41.3895 142.568 41.5292 142.832 41.6828C143.821 40.4956 145.131 39.448 145.744 38.0792C148.07 32.9252 148.725 27.6035 145.841 22.4356C144.379 19.7957 143.947 17.0301 143.905 14.1388C143.877 11.918 144.56 9.97649 146.802 8.28642C146.677 11.6666 147.777 14.2366 149.95 16.0524C151.093 17.0022 151.469 17.9659 151.608 19.223C152.151 24.0278 151.496 28.6511 149.449 33.0648C148.961 34.1124 148.126 35.1041 148.808 37.0177C149.755 35.6768 150.591 34.8527 150.981 33.847C151.803 31.71 152.402 29.4892 153.084 27.2963C153.349 26.4303 153.377 25.3687 153.92 24.7262C155.634 22.645 157.542 20.7315 159.506 18.5945C160.523 21.7791 160.244 25.0056 158.406 27.4778C155.257 31.696 151.719 35.6907 147.986 39.3921C145.897 41.4593 143.041 42.7164 140.618 44.4763C139.601 45.2027 138.277 45.9709 138.849 48.08C142.512 45.6356 145.799 42.9539 149.881 41.7108C150.898 46.9207 151.789 48.2336 155.007 48.7783C154.422 47.6609 153.865 46.8229 153.544 45.901C153.015 44.4065 152.402 42.8701 152.277 41.3197C152.095 39.0709 153.795 37.4646 156.093 37.4507C157.57 37.4367 159.06 37.5904 160.69 37.6742C161.359 39.3782 161.985 40.9705 162.626 42.5628C163.768 45.4541 164.716 48.4571 166.136 51.1947C166.875 52.6334 168.365 53.7508 169.688 54.7704C170.329 55.2593 171.443 55.3292 171.973 53.9184C166.234 50.5243 166.304 43.9456 163.671 38.6519C165.969 39.6855 167.947 40.9984 169.897 42.3672C172.237 44.0154 174.396 46.0268 176.918 47.3257C182.002 49.9377 187.365 50.2729 192.839 47.9962C190.081 46.9765 187.128 47.1861 184.3 46.6274C181.194 46.0128 178.311 44.9233 175.789 43.0237C173.435 41.2638 171.221 39.3363 168.797 37.3669C171.68 35.0622 174.926 36.6126 177.545 35.0343C176.639 34.4756 175.692 33.9867 174.8 34.0845C172.53 34.3359 170.301 34.8387 168.059 35.2438C167.195 35.3974 166.262 35.7746 165.454 35.6069C163.128 35.146 160.843 34.4616 158.935 33.9588C160.356 30.7882 161.762 27.5477 163.295 24.377C163.671 23.6088 164.395 22.9384 165.092 22.4216C167.07 20.955 169.145 20.9271 171.193 22.2959C173.24 23.6507 174.773 25.2849 173.798 28.0366C173.226 29.6428 173.658 30.9278 175.399 31.1653C179.843 31.7519 181.542 34.8527 182.434 38.6379C182.977 40.9705 184.356 42.2415 186.543 42.7723C187.88 43.0936 189.287 43.2053 190.582 43.6383C191.975 44.0992 193.396 44.6719 194.594 45.496C195.973 46.4598 196.823 47.9962 196.294 49.7142C195.792 51.3763 194.162 51.6976 192.644 51.8652C191.613 51.9769 190.569 51.9909 189.538 51.9071C186.905 51.6836 184.272 51.3344 181.64 51.1109C180.386 51.0132 179.091 50.9294 177.851 51.1109C175.469 51.4741 174.55 52.8429 174.842 55.2453C174.912 55.818 175.163 56.3907 175.135 56.9494C175.009 59.3937 173.463 60.958 171.555 62.1313C169.647 63.3046 168.323 62.0056 167.097 60.7066C165.203 58.7093 163.016 57.955 160.23 58.5975C156.762 59.4076 156.386 59.0166 154.853 55.5526C154.422 54.5609 153.683 53.234 152.82 52.9966C151.19 52.5496 150.772 51.3763 150.09 50.1891C148.543 47.5213 146.106 46.2642 143.78 47.4933C141.607 48.6387 139.726 50.4265 137.887 52.1166C137.358 52.6055 137.386 53.7089 137.149 54.533C137.33 54.6867 137.511 54.8403 137.679 54.9939C139.615 53.9324 141.565 52.8708 143.975 51.5439C143.083 55.0777 142.568 58.2763 141.439 61.2374C139.489 66.3635 133.667 69.2408 128.374 67.9418C130.31 66.8244 132.887 66.6289 133.653 63.7376C129.293 65.0645 125.072 65.8327 121.883 68.8637C119.138 71.4756 116.548 74.2552 113.859 76.9509C113.135 77.6772 112.759 78.8784 111.226 79.1159C112.174 76.6157 112.856 74.4228 113.79 72.3277ZM154.784 61.8939C155.494 62.2291 156.191 62.5504 157.04 62.9554C156.469 64.2963 155.996 65.2181 155.689 66.1959C155.341 67.2853 155.23 68.4447 154.853 69.5202C154.06 71.8527 153.474 72.1181 150.814 71.5874C151.441 68.0815 151.093 64.1846 154.784 61.8939ZM150.494 62.2431C149.087 63.5002 148.418 64.9388 148.348 66.7546C148.126 72.2159 146.579 71.4617 143.153 71.9226C140.799 72.2299 138.723 72.8165 136.689 74.0177C135.742 74.5764 134.503 75.0373 133.444 74.9256C128.248 74.3948 124.376 76.7414 120.866 80.2053C119.57 81.4903 118.052 82.5798 116.52 83.5855C115.141 84.4934 114.138 83.9207 113.748 82.5938C115.141 80.8618 116.506 79.2975 117.732 77.6493C120.726 73.6266 124.724 72.0204 129.697 71.9785C139.824 71.8667 145.618 65.7908 145.66 55.5945C145.66 54.3095 145.799 53.0105 145.883 51.7255C146.956 52.4937 147.234 53.3457 147.722 54.0581C148.279 54.8682 148.906 55.7761 149.727 56.237C152.764 57.9969 153.126 59.9105 150.494 62.2431ZM108.677 130.433C104.833 134.148 100.334 136.509 95.0127 137.277C88.243 138.241 82.0165 136.257 75.9711 133.603C74.606 133.003 73.5474 131.704 71.9037 130.363C73.631 129.93 74.6896 129.65 75.7482 129.385C75.7343 129.078 75.7343 128.771 75.7204 128.463C73.7145 128.519 71.6809 128.435 69.689 128.645C66.3737 129.008 63.0725 129.539 59.7712 130.028C55.9267 130.6 52.2354 130.125 48.558 128.868C43.8777 127.262 39.9357 124.496 36.314 121.256C32.5948 117.932 28.6807 114.971 24.2093 112.736C23.2343 112.247 22.3428 111.604 21.4095 111.032C25.1008 111.199 27.9146 113.155 30.7004 115.152C34.35 117.764 37.9577 120.446 41.6629 122.974C45.4935 125.586 49.7838 126.745 54.4084 126.536C60.3423 126.27 65.3151 122.639 66.9866 117.331C67.1956 116.661 67.1259 115.892 67.1816 115.166C67.0284 115.11 66.8891 115.068 66.7359 115.012C65.9837 116.046 65.2176 117.08 64.4654 118.113C64.0893 117.848 63.8386 117.764 63.7411 117.596C56.9296 105.403 60.2309 95.3881 68.5328 86.3371C72.433 82.091 77.6844 79.465 83.3676 77.8448C96.3638 74.1574 111.881 78.8645 118.665 94.0193C119.932 96.8407 121.033 99.732 120.894 103C120.42 113.797 116.422 122.946 108.677 130.433ZM168.992 89.4938C168.17 94.4383 166.345 95.3182 162.111 92.8041C161.818 92.6225 161.498 92.4828 161.205 92.3012C158.879 90.8765 156.595 90.3877 154.129 92.1057C152.583 93.1812 151.148 92.4828 149.644 91.3654C150.104 91.0302 150.326 90.7788 150.619 90.681C153.976 89.5496 157.347 88.4323 161.275 87.1333C158.35 85.9181 155.815 86.2952 153.224 86.7282C150.173 87.245 147.081 87.9155 144.03 87.8736C139.183 87.7897 134.67 88.7116 130.366 90.8626C129.349 91.3654 128.262 91.7286 127.204 92.1615C129.544 89.6893 132.246 88.1249 135.297 86.9656C144.17 83.5994 153.502 83.1525 162.765 82.3563C167.529 81.9513 169.772 84.7448 168.992 89.4938ZM205.236 99.1034C205.585 99.9135 205.696 100.905 205.654 101.799C205.487 105.193 202.91 106.464 200.166 104.411C198.801 103.391 197.812 101.911 196.572 100.71C195.722 99.8856 194.747 99.2012 193.758 98.3911C193.243 99.0196 192.923 99.2431 192.853 99.5364C192.268 101.771 190.917 102.176 188.702 101.967C186.975 101.799 184.941 102.148 183.423 102.958C180.344 104.621 177.419 104.271 174.452 103.098C170.594 101.576 169.201 98.6006 170.844 94.7456C172.544 90.7508 173.101 86.8399 171.402 82.5379C174.814 82.2865 178.088 81.5742 180.762 84.0185C182.169 85.3035 183.325 86.9098 184.454 88.4741C186.167 90.8905 187.699 93.4466 191.572 94.55C188.354 90.1363 185.54 86.2812 182.629 82.3005C188.242 81.6161 193.48 81.0155 198.717 80.345C200.57 80.1076 201.977 80.7221 203.384 81.9653C206.03 84.2839 206.574 87.1193 205.278 90.0944C203.913 93.2091 203.913 96.0725 205.236 99.1034ZM192.783 77.6074C186.627 78.3337 180.4 78.8924 174.201 78.8365C166.234 78.7667 158.336 79.3394 150.424 80.0238C144.016 80.5685 138.027 82.482 132.051 84.5772C130.561 85.1079 129.154 85.9739 127.83 86.8818C125.226 88.6697 122.426 89.8569 119.083 90.1503C118.498 89.2144 117.899 88.2786 117.383 87.4545C119.542 85.499 121.492 83.7391 123.415 81.9513C126.215 79.3533 129.279 77.6214 133.346 77.9985C134.739 78.1382 136.494 77.789 137.609 76.9928C141.328 74.311 145.563 74.9815 149.574 75.0653C154.867 75.177 157.319 73.5987 158.127 68.3609C158.308 67.2295 158.392 66.0423 158.823 64.9947C160.161 61.7961 162.292 61.3212 164.966 63.5281C165.328 63.8214 165.649 64.1427 166.011 64.422C168.644 66.4333 171.29 66.5451 173.951 64.5756C177.196 62.1593 179.23 59.1004 178.255 54.2676C179.885 54.3654 181.138 54.3794 182.392 54.533C184.495 54.7844 184.997 55.2733 184.955 57.3824C184.858 62.1174 182.824 65.9864 179.648 69.4364C176.876 72.4394 173.644 73.2076 169.702 72.8863C166.889 72.6489 163.977 73.054 161.164 73.4869C159.966 73.6685 158.879 74.6463 157.751 75.2608C157.834 75.5542 157.918 75.8475 157.988 76.1408C159.06 76.1547 160.133 76.2386 161.205 76.1827C164.061 76.043 166.93 75.8894 169.786 75.6659C172.07 75.4843 174.341 75.2189 176.625 74.9396C178.784 74.6742 180.957 74.0177 183.102 74.0876C188.047 74.2412 192.964 74.8418 197.909 75.0374C201.35 75.177 204.791 75.0234 208.231 74.9117C208.886 74.8837 209.54 74.4787 210.195 74.2412C210.153 74.0457 210.125 73.8501 210.084 73.6406C202.478 72.6908 194.887 71.741 186.752 70.7214C190.569 67.3552 194.441 65.9864 199.079 66.7546C205.236 67.7742 208.454 66.2937 211.184 60.7485C213.357 56.3627 217.048 54.98 221.408 55.1755C224.18 55.2872 226.91 56.223 229.599 56.7678C228.345 59.3657 227.105 61.7123 226.089 64.1566C224.835 67.1736 222.913 69.4364 219.89 70.7772C218.831 71.2382 217.494 71.5036 216.798 73.5009C218.483 73.3193 219.862 73.4171 221.046 72.9841C224.194 71.8248 226.534 69.6599 227.844 66.4892C228.498 64.8969 229.083 63.2627 229.794 61.6704C232.162 56.3488 235.714 54.1698 241.495 54.3933C244.893 54.533 246.537 56.9913 245.005 60.0781C244.155 61.7961 242.846 63.2906 241.634 64.8131C240.923 65.6931 239.893 66.3775 240.896 68.1234C241.926 67.6625 242.901 67.2016 243.904 66.7825C248.404 64.8829 252.819 63.6398 257.193 67.2295C259.296 68.9615 261.957 69.4224 264.645 69.59C266.874 69.7297 269.131 69.8414 271.777 71.1823C270.635 71.2521 270.175 71.322 269.73 71.2941C264.297 70.9728 259.213 72.1461 254.449 74.786C251.482 76.4341 248.292 77.314 244.879 77.4118C243.083 77.4677 241.3 77.747 239.21 79.1997C240.715 79.6606 241.634 80.1076 242.581 80.2053C246.426 80.5685 250.173 80.1914 253.669 78.4035C255.619 77.4118 257.541 76.3782 259.519 75.4145C263.531 73.473 267.779 72.5651 272.251 72.8863C275.218 73.0959 276.583 74.2971 277.238 77.2163C277.767 79.5489 277.391 81.7837 276.597 84.0045C275.413 87.3428 276.012 90.3458 278.421 92.9996C279.661 94.3684 280.915 95.7372 281.96 97.2318C283.102 98.852 283.854 100.668 283.506 102.749C283.171 104.69 282.489 105.542 280.553 105.403C278.644 105.263 276.666 104.83 274.897 104.104C271.331 102.651 267.766 101.534 263.851 101.883C261.581 102.079 259.937 101.073 258.558 99.2711C257.513 97.9162 256.162 96.7988 254.895 95.6395C253.989 94.8154 252.736 94.2288 251.844 95.2763C251.357 95.849 251.44 97.2178 251.747 98.0559C252.36 99.732 252.513 101.227 251.078 102.484C249.574 103.797 247.749 103.699 246.258 102.693C244.768 101.687 243.459 100.333 242.302 98.9498C240.506 96.7848 238.458 95.7233 235.644 96.5474C234.976 96.7429 234.307 96.9105 233.624 97.0363C229.46 97.8464 225.754 96.7569 222.913 93.6841C219.862 90.3877 218.163 86.1974 215.934 82.063C219.695 81.6021 222.481 81.8535 224.682 85.1499C225.852 86.8958 228.317 87.8177 230.281 88.9909C232.343 90.2201 234.502 91.2956 236.619 92.4409C237.135 92.7203 237.65 92.9996 238.472 93.4326C238.347 90.9603 236.995 89.9547 235.491 89.1027C233.792 88.1389 232.023 87.2729 230.365 86.2393C229.153 85.499 227.718 84.8845 227.412 83.1525C229.32 82.2167 231.117 82.3563 232.858 83.1385C235.268 84.214 237.734 85.2337 240.032 86.5187C244.448 88.991 249.003 89.843 253.989 88.7395C258.015 87.8456 261.748 88.9351 265.105 91.3095C265.955 91.9101 266.832 92.4828 267.612 93.1533C269.98 95.1646 272.293 97.2458 274.661 99.2711C276.095 100.5 277.614 101.618 280.344 100.598C276.416 96.8966 272.892 93.4745 269.256 90.1922C264.311 85.7365 258.558 84.0325 251.983 85.499C248.933 86.1835 246.063 85.6387 243.278 84.256C240.506 82.8592 237.734 81.4066 234.85 80.3031C233.081 79.6327 230.978 79.0321 229.181 79.3393C224.292 80.1914 219.57 79.6886 214.806 78.655C207.493 77.0766 200.194 76.7274 192.783 77.6074Z" fill="rgb(242.25,242.25,242.25)" fill-rule="nonzero" transform="matrix(-4.37114e-08,1,-1,-4.37114e-08,141,0)" />
</svg>
