<svg viewBox="0 0 98.4531 95.7324" xmlns="http://www.w3.org/2000/svg" xmlns:xlink="http://www.w3.org/1999/xlink" width="98.453125" height="95.732422" fill="none" customFrame="#000000">
	<path id="Vector" d="M50.8938 58.0437C52.3695 59.8145 53.9284 61.5172 55.5781 63.1291C57.4095 64.9226 59.5057 66.4437 61.2538 68.3053C64.1824 71.4231 67.3986 74.1474 70.8873 76.622C72.8473 78.0145 74.6938 78.2944 77.0321 77.7269C80.2256 76.955 83.1391 72.8004 81.0732 69.0166C80.2483 67.5107 79.204 66.3604 77.7283 65.6113C76.3965 64.9302 74.9889 64.4004 73.6267 63.7648C72.7262 63.341 71.7273 63.0004 70.9932 62.3648C67.7921 59.5723 64.5986 56.7648 61.5565 53.8059C59.4603 51.7626 57.5987 49.4697 55.6614 47.2675C54.8592 46.3518 54.1252 45.368 53.4819 44.5659C54.7835 43.1962 55.8733 42.0156 57.016 40.8805C57.4473 40.4567 57.9543 40.0254 58.5143 39.821C60.4895 39.087 61.7533 37.7021 62.3889 35.7649C63.1457 33.4492 63.7738 31.1032 64.4549 28.7649C64.7349 27.8038 64.8635 26.7822 65.2797 25.8892C65.817 24.7087 66.7327 23.6795 67.1792 22.4762C67.6257 21.2806 67.7013 19.9411 67.9435 18.6092C71.0462 18.0568 71.9543 15.7638 70.3121 13.3573C69.3284 11.9195 68.0343 10.9509 66.4678 10.179C64.6895 9.30115 62.8808 8.3552 61.337 7.12926C58.0073 4.47305 54.3749 2.6871 50.0841 2.52818C45.256 2.34656 40.5112 1.52927 35.8344 0.431978C31.6647 -0.544235 27.8431 0.159533 24.309 2.28601C20.4042 4.63195 16.6128 7.18223 12.8669 9.7779C11.6107 10.6482 10.4907 11.8287 9.58259 13.0622C7.54693 15.8319 5.67774 18.7227 3.75559 21.5757C3.12748 22.5065 2.51451 23.46 1.97721 24.4438C0.236674 27.6222 -0.565485 30.9443 0.440999 34.554C0.615053 35.1897 0.577217 35.9162 0.531812 36.5897C0.191272 41.4708 1.72748 45.6783 4.96639 49.3183C5.79126 50.2491 6.57828 51.2405 7.20639 52.3075C8.09179 53.8059 9.18151 55.0696 10.7102 55.8718C13.5329 57.3475 16.4085 58.7096 19.2388 60.1626C23.4388 62.3194 27.5782 61.7821 31.7025 59.9734C33.7079 59.0956 35.6604 58.1042 37.6809 57.2794C39.6939 56.4621 41.3966 55.2588 42.842 53.6469C43.629 52.7691 44.469 51.9443 45.3619 51.021C47.269 53.4426 49.0171 55.7961 50.8938 58.0437ZM66.0667 20.8644C65.8397 21.5681 65.6657 22.3552 65.2343 22.9151C63.9705 24.5573 63.4711 26.4643 62.9792 28.4167C62.4192 30.6567 61.7457 32.8665 61.057 35.0686C60.55 36.6956 59.5435 37.8459 57.8635 38.4967C56.9933 38.8373 56.2441 39.6243 55.5781 40.3356C54.6852 41.2891 53.9208 42.3562 52.5436 42.9313C52.0895 42.2502 51.6506 41.5843 51.2117 40.9259C52.3014 39.0794 53.656 37.7021 55.4646 36.7032C56.7057 36.0146 57.8711 35.1443 58.9533 34.2135C60.0203 33.2978 60.4516 32.0113 60.6257 30.6643C60.4516 30.5584 60.2776 30.46 60.1035 30.354C60.0657 30.6038 60.0884 30.8686 59.99 31.0881C59.203 32.9119 57.7954 34.1227 56.0322 34.9021C53.7544 35.9086 51.7187 37.18 50.2808 39.7681C48.9792 37.2783 46.4214 35.7875 46.9965 32.5865C48.6614 32.1249 49.8873 31.073 50.576 29.4308C51.083 28.2276 51.1133 27.887 50.7046 26.26C49.8041 26.7368 49.8041 27.7054 49.3803 28.4016C48.9565 29.1054 48.5101 29.8016 47.8517 30.4146C48.4874 28.4395 49.1533 26.5249 48.4646 24.3076C47.5263 25.087 47.9879 26.1162 47.6776 26.9108C47.3068 27.8265 46.9511 28.7573 46.5274 29.6503C46.1338 30.4827 45.6571 31.2849 45.1576 32.2081C41.8657 29.6427 38.1576 28.0611 33.4128 28.5303C34.5025 29.5368 35.5771 29.1281 36.4474 29.4459C37.3101 29.7562 38.203 29.953 39.0582 30.4827C37.7187 30.6189 36.3793 30.7551 35.0398 30.8914C35.0322 31.0351 35.0323 31.1713 35.0247 31.3151C35.3425 31.3984 35.6452 31.527 35.9706 31.5648C36.7804 31.6481 37.5901 31.6632 38.3998 31.7616C41.7522 32.1627 44.4387 33.6232 46.2171 36.6124C47.2084 38.2773 48.4192 39.8135 49.3425 41.5086C52.3165 46.9648 56.736 51.2632 60.8224 55.7961C63.4862 58.7475 66.6873 61.2221 69.7446 63.8026C70.6754 64.5896 71.9165 65.0134 73.0213 65.581C74.7392 66.4588 76.4873 67.2837 78.1975 68.1842C81.2472 69.7885 80.3391 74.3442 77.5467 75.6685C75.6397 76.5766 73.8083 76.728 71.9089 75.3582C68.8592 73.1561 65.9684 70.8102 63.4181 68.0177C61.7381 66.1788 59.8387 64.5291 57.9468 62.9021C55.8052 61.0631 53.8149 59.1107 52.1349 56.8253C48.3209 51.6416 44.3933 46.5335 40.5339 41.38C39.7847 40.381 39.096 39.3367 38.4376 38.2697C37.2949 36.4157 35.6906 35.0459 33.9198 33.8427C33.6852 33.6838 33.375 33.6384 32.9512 33.487C32.9587 35.1821 34.4344 35.6892 35.1231 36.8848C31.1955 38.9205 27.7977 37.0286 23.9761 35.3032C24.3847 35.9011 24.4982 36.2492 24.7404 36.4005C27.8658 38.3908 31.1274 39.5638 34.8279 38.0275C35.4636 37.7627 35.4712 37.7778 36.3793 38.1108C35.4863 39.7756 33.5339 39.4351 32.2398 40.2827C33.4128 41.8567 34.0636 41.8189 37.4463 40.0102C39.0885 42.2502 40.7458 44.4978 42.3728 46.7151C41.1166 48.5918 39.5576 49.7497 37.4463 50.3324C36.2204 50.6729 35.1306 51.5053 34.0106 52.1713C33.5339 52.4513 33.1479 52.8978 32.6939 53.2232C30.696 54.6232 28.6225 55.0242 26.3901 53.7529C24.4226 52.6253 22.3188 51.8762 20.1015 51.3691C18.3307 50.968 17.3999 50.2491 16.4464 48.8567C19.4809 47.0329 22.0388 44.7475 23.4312 41.3648C20.9036 43.6805 19.0269 46.8891 15.0539 47.3659C14.2896 44.914 12.7534 43.3173 10.8388 42.22C12.2691 39.9346 13.6312 37.793 14.9631 35.6211C16.7339 32.7378 19.1707 30.6719 22.3944 29.6276C25.5653 28.6059 28.5317 27.1454 31.415 25.5108C32.0658 25.14 32.7241 24.7692 33.2993 24.2924C34.9793 22.9227 35.3274 20.766 34.215 18.8968C33.7836 18.1703 33.3069 17.4741 32.8452 16.7703C32.936 16.6719 33.0344 16.566 33.1252 16.4676C33.8441 16.7703 34.616 16.9898 35.282 17.3833C37.5068 18.6925 39.7771 19.2297 42.2441 18.0795C43.3868 17.5422 44.4463 17.9811 45.1274 18.7908C47.3901 21.4697 50.2657 21.3184 53.2095 20.6752C55.0484 20.2741 56.7662 19.4038 58.1057 18.0341C59.3165 16.793 60.8527 16.339 62.4419 15.9909C63.736 15.7109 64.9165 15.9152 65.87 16.9671C66.203 17.3379 66.6192 17.6254 66.937 17.8903C66.6192 18.8892 66.377 19.8881 66.0667 20.8644ZM26.2312 58.8383C25.028 59.7615 23.6734 60.0718 22.175 59.4588C18.3609 57.8848 14.4561 56.4848 11.0658 54.0632C10.1275 53.3897 9.3934 52.421 8.62908 51.528C8.02368 50.8167 7.60746 49.9313 6.94909 49.2881C4.74693 47.1389 3.2637 44.5583 2.23451 41.7129C1.82586 40.5778 1.74262 39.3216 1.44748 37.7702C2.06045 38.2319 2.40856 38.4816 2.78694 38.7616C2.88531 38.5951 3.01396 38.4589 2.98369 38.4059C2.28748 37.1194 2.11343 35.7194 1.83343 34.3043C1.13722 30.8081 2.03775 27.7054 3.90694 24.8524C6.26801 21.2427 8.72746 17.6935 11.2323 14.1822C11.9437 13.1833 12.8442 12.2298 13.8507 11.5411C17.6572 8.91519 21.4409 6.24384 25.4139 3.8979C29.2582 1.62764 33.5641 0.931433 37.9003 2.20278C41.8506 3.36062 45.869 3.70116 49.9176 3.98116C53.8149 4.25359 57.1219 5.74439 60.1792 8.11303C61.8895 9.43735 63.8343 10.4968 65.7641 11.4957C67.0732 12.1768 68.2462 12.9109 69.0635 14.1671C69.8354 15.3476 69.8505 15.3627 68.9046 16.8006C67.9435 16.8309 67.2851 16.233 66.6646 15.6125C65.6657 14.6136 64.4776 14.2125 63.0851 14.3184C60.7922 14.4925 58.7262 15.1281 56.9403 16.7325C54.723 18.7227 52.0819 19.7897 49.0246 19.3887C48.1619 19.2752 47.2765 19.1389 46.6787 18.2081C47.4582 16.7476 47.6625 15.2038 46.429 13.4103C46.1263 14.7195 45.8765 15.8017 45.6268 16.8838C44.4538 16.8914 44.1663 16.4525 44.2874 15.4914C44.5901 13.0244 43.5079 10.9433 42.5468 8.83951C42.3955 8.86978 42.2441 8.90005 42.0928 8.93032C42.1685 9.30869 42.2366 9.67952 42.3122 10.0579C42.4863 10.913 42.683 11.7682 42.8268 12.6309C43.4474 16.4146 41.616 17.4135 37.9836 17.0654C37.3328 17.0049 36.6895 16.619 36.0766 16.3162C34.9566 15.7487 33.8744 15.1811 32.5501 15.1735C32.0658 15.1735 31.5133 14.78 31.1274 14.4244C30.4463 13.8038 29.8636 13.0773 28.9782 12.5552C29.402 13.3498 29.8485 14.1368 30.242 14.9465C30.6809 15.8319 31.0744 16.74 31.4755 17.6406C31.7782 18.3216 32.0355 19.0254 32.3609 19.6989C33.0874 21.2049 32.9133 22.2341 31.4528 23.0211C28.8723 24.4135 26.2236 25.6773 23.575 26.9335C22.735 27.3346 21.8042 27.5389 20.9339 27.887C19.0572 28.6438 17.188 28.6362 15.5988 27.3573C14.161 26.1919 12.9123 24.7843 11.6031 23.46C11.361 23.2103 11.202 22.8697 11.0129 22.5746C11.2096 25.9951 12.6475 27.7811 16.9155 30.18C14.9026 31.7313 13.5253 33.714 12.4658 35.9238C12.0042 36.8848 11.535 37.8383 11.0961 38.7994C10.2864 40.5778 8.94692 41.327 7.00963 40.9713C6.23774 40.8275 5.45828 40.714 4.39883 40.54C5.84423 42.4924 7.65287 42.5832 9.35557 42.447C10.1275 43.2264 10.8464 43.8394 11.4064 44.5659C12.0799 45.4362 12.6247 46.4048 13.2074 47.3508C14.7588 49.8556 16.3101 52.3983 19.4507 53.1399C21.6604 53.6621 23.7415 54.4643 25.7469 55.5086C26.5566 55.9324 27.4723 56.1518 28.6074 56.5529C27.7371 57.3929 27.0561 58.2102 26.2312 58.8383ZM41.4193 53.034C40.2312 54.2448 38.8387 55.1453 37.242 55.7886C35.0474 56.674 32.8982 57.6729 30.7188 58.581C29.8939 58.9215 29.0236 59.1637 27.9566 59.5194C28.5166 58.4145 28.8798 57.567 29.3566 56.7875C29.5609 56.4621 29.9771 56.1897 30.3479 56.0761C32.2323 55.501 33.829 54.5172 35.2971 53.1853C36.1447 52.4134 37.2571 51.7929 38.3544 51.4524C40.042 50.9378 41.4117 50.1053 42.4787 48.728C42.6603 48.4934 42.9328 48.3345 43.2809 48.047C43.7349 48.6448 44.1284 49.167 44.5522 49.727C43.4701 50.8848 42.4636 51.9821 41.4193 53.034Z" fill="rgb(255,255,255)" fill-rule="nonzero" transform="matrix(0.969219,0.2462,-0.2462,0.969219,19.2041,0)" />
</svg>
