<svg viewBox="0 0 75.1299 169.967" xmlns="http://www.w3.org/2000/svg" xmlns:xlink="http://www.w3.org/1999/xlink" width="75.129883" height="169.966797" fill="none" customFrame="#000000">
	<g id="Group 8" opacity="0.200000003">
		<path id="Vector" d="M6.6033 3.58463C6.34805 2.46373 6.0817 1.26517 5.80425 0C3.19622 1.77568 1.36505 3.9065 0 6.76978C1.70909 6.70319 3.14073 6.63659 4.66116 6.5811C5.27154 5.62667 5.93742 4.60564 6.6033 3.58463Z" fill="rgb(255,255,255)" fill-rule="nonzero" transform="matrix(-1,0,0,1,70.1133,94.269)" />
		<path id="Vector" d="M7.33665 0.13013C7.09249 0.107934 6.61528 -0.06963 6.20465 0.0302519C4.42897 0.42978 2.6422 0.807122 0.944204 1.42861C0.455893 1.60618 -0.0879086 2.62719 0.0119733 3.1266C0.122953 3.6815 0.933106 4.44724 1.47691 4.49163C3.7187 4.6692 5.81622 3.98113 7.5808 2.59388C8.45754 1.90581 8.31327 0.729421 7.33665 0.13013Z" fill="rgb(255,255,255)" fill-rule="nonzero" transform="matrix(-1,0,0,1,70.3477,135.19)" />
		<path id="Vector" d="M1.0987 3.61795C1.27627 3.55137 1.83117 3.34052 2.61912 3.04087C1.69799 1.88668 1.43164 0.477214 0 0C0.410626 1.34286 0.743565 2.43047 1.0987 3.61795Z" fill="rgb(255,255,255)" fill-rule="nonzero" transform="matrix(-1,0,0,1,60.2363,133.645)" />
		<path id="Vector" d="M5.31594 4.13401C5.83754 4.2228 6.88075 3.7123 6.99173 3.27948C7.1693 2.6358 6.95844 1.38173 6.52562 1.17087C4.57237 0.227541 2.49705 -0.582633 0 0.56046C1.34286 2.84665 3.19622 3.75668 5.31594 4.13401Z" fill="rgb(255,255,255)" fill-rule="nonzero" transform="matrix(-1,0,0,1,71.3008,112.142)" />
		<path id="Vector" d="M8.02385 5.77433C8.3013 3.23289 7.09161 1.76796 5.17166 0.81353C3.39598 -0.0632109 1.56482 -0.618105 0 1.23526C0.754663 4.36489 3.77332 5.70774 8.02385 5.77433Z" fill="rgb(255,255,255)" fill-rule="nonzero" transform="matrix(-1,0,0,1,74.1973,117.616)" />
		<path id="Vector" d="M9.14474 2.82872C9.23353 1.16402 7.99055 0.897663 7.04722 0.531429C4.76104 -0.35641 1.80897 -0.0900557 0 1.01974C1.03211 3.69436 4.53908 4.42683 9.14474 2.82872Z" fill="rgb(255,255,255)" fill-rule="nonzero" transform="matrix(-1,0,0,1,70.1465,128.829)" />
		<path id="Vector" d="M0 0.725881C2.1974 2.56815 4.49468 3.3783 6.91405 3.81112C7.41345 3.8999 8.268 3.62244 8.47886 3.24511C8.66753 2.90107 8.34569 2.05766 7.97945 1.68033C6.28146 -0.106451 3.02975 -0.53929 0 0.725881Z" fill="rgb(255,255,255)" fill-rule="nonzero" transform="matrix(-1,0,0,1,69.9468,103.52)" />
		<path id="Vector" d="M0 0C0.499409 2.2307 2.90767 4.15064 6.43683 5.16056C6.91405 2.26398 4.17284 0.0665879 0 0Z" fill="rgb(255,255,255)" fill-rule="nonzero" transform="matrix(-1,0,0,1,62.4004,100.584)" />
		<path id="Vector" d="M6.25942 7.76859C4.99425 4.49468 3.44053 1.84227 0.0112516 0C-0.210708 4.83872 2.88563 6.22597 6.25942 7.76859Z" fill="rgb(255,255,255)" fill-rule="nonzero" transform="matrix(-1,0,0,1,61.668,92.8481)" />
		<path id="Vector" d="M0 4.94782C1.27627 5.94664 2.44156 5.61369 3.47367 5.03659C4.50578 4.47059 5.40472 3.68266 6.37024 2.98349C7.1804 2.4064 7.25808 1.71829 6.80307 0.841554C6.31475 -0.0795794 5.61558 -0.101779 4.72774 0.109082C2.31948 0.67508 0.743565 2.22882 0 4.94782Z" fill="rgb(255,255,255)" fill-rule="nonzero" transform="matrix(-1,0,0,1,61.834,138.874)" />
		<path id="Vector" d="M0.614314 24.6819C-0.0959575 29.5762 1.56874 33.6824 5.25327 36.9563C5.70829 37.3559 6.31868 37.5667 7.20652 38.055C8.12765 35.2916 8.28302 32.6947 8.23863 30.0867C8.20534 27.7117 7.98338 25.3367 7.8835 22.9617C7.77252 20.165 7.12883 17.5459 5.6639 15.1155C4.19896 12.685 3.49979 10.2435 4.5763 7.29139C5.40865 5.0274 5.35316 2.47485 4.5763 0C4.43202 0.38843 4.28775 0.776879 4.14347 1.16531C3.53308 2.8633 3.16685 4.71665 2.25682 6.24817C0.0150237 10.0215 -0.506582 13.9835 0.470041 18.1674C0.980548 20.3537 0.936155 22.4624 0.614314 24.6819Z" fill="rgb(255,255,255)" fill-rule="nonzero" transform="matrix(-1,0,0,1,51.9717,99.8291)" />
		<path id="Vector" d="M6.28146 5.63776C5.62668 2.76338 2.85218 0.355136 0 0C0.599291 2.63022 3.21842 5.06067 6.28146 5.63776Z" fill="rgb(255,255,255)" fill-rule="nonzero" transform="matrix(-1,0,0,1,41.5137,97.9424)" />
		<path id="Vector" d="M0 3.69337C2.58583 5.84638 5.41582 4.53682 10.0326 1.48488C8.93388 -0.113232 8.23471 -0.435071 7.1471 0.585944C5.97072 1.68464 4.78323 1.90659 3.22952 1.96208C2.16411 1.99538 1.14309 3.03859 0 3.69337Z" fill="rgb(255,255,255)" fill-rule="nonzero" transform="matrix(-1,0,0,1,40.2373,104.16)" />
		<path id="Vector" d="M25.4477 168.426C30.0423 166.861 34.5036 164.919 39.0316 163.165C43.9813 161.245 48.8422 159.159 54.2026 158.382C61.0944 157.394 66.0996 153.333 69.651 147.517C73.6796 140.914 74.9669 133.622 75.1223 125.943C75.2888 117.886 72.603 110.627 69.8618 103.325C69.318 101.882 68.3636 100.595 67.6089 99.2409C64.3018 93.3146 60.817 87.4881 57.7428 81.4397C54.2359 74.5479 52.9041 67.0345 52.549 59.3658C52.1938 51.6749 52.216 43.9618 51.7166 36.2709C51.3948 31.2324 50.4071 26.205 48.021 21.6771C44.8914 15.7729 40.1858 11.8664 33.2163 11.3115C31.4295 11.1673 29.5428 9.20292 29.2876 7.03881C29.1655 5.96231 29.2765 4.8414 29.3764 3.7538C29.5096 2.24447 29.1322 0.957118 27.7228 0.280141C26.2578 -0.430131 24.9816 0.313436 24.0382 1.35665C23.3946 2.06692 22.9839 3.04353 22.6399 3.96466C22.2071 5.16325 21.9851 6.43952 21.5967 7.6603C21.2526 8.71461 20.5202 9.09194 19.4437 8.61472C11.7639 5.26313 5.75986 8.25958 0.432822 13.6865C0.288548 13.8419 0.155372 13.9973 0.011098 14.1526L0.011098 20.1344C1.02101 17.9925 2.37497 16.006 4.10626 14.2081C9.00047 9.13632 15.2708 8.27069 21.3414 11.7555C22.4512 12.3991 23.5499 13.1094 24.7485 13.5533C25.7251 13.9196 26.8349 14.0084 27.8892 14.0638C30.5084 14.2192 33.2607 13.2426 35.7355 14.4967C37.7554 15.5177 39.531 17.0159 41.451 18.2367C43.4042 19.4797 44.5362 21.3219 45.4463 23.3639C47.3329 27.6034 48.365 32.0981 48.6536 36.6815C49.0975 43.9063 49.1974 51.1533 49.4304 58.3892C49.7301 67.2898 51.3948 75.8907 55.4566 83.8813C57.7872 88.4537 60.2066 92.9927 62.8923 97.3653C65.5558 101.682 67.6644 106.188 69.3957 110.96C72.603 119.828 72.7251 128.717 70.5388 137.751C68.7853 144.998 64.2795 149.615 57.0104 151.446C53.8141 152.256 50.6068 153.055 47.3662 153.721C40.6075 155.108 34.0042 156.873 27.7561 159.958C25.4144 161.112 22.7509 161.756 20.1539 162.244C16.9577 162.855 13.7948 162.499 10.8205 160.857C8.8229 159.747 6.68099 158.893 4.11735 157.683C2.69681 156.928 1.32066 156.096 0 155.164L0 158.882C0.532703 159.214 1.05431 159.536 1.59811 159.847C3.98418 161.201 6.6033 162.133 9.01157 163.465C12.5407 165.418 16.2918 165.818 20.1983 165.396C23.6165 165.03 26.8238 163.942 29.8869 162.444C34.4482 160.213 39.1648 158.493 44.1811 157.627C44.7249 157.539 45.2798 157.539 45.8347 157.494C38.4101 160.646 31.2963 164.375 23.4279 165.984C20.5757 166.561 17.557 167.172 14.727 166.828C9.44439 166.151 4.48359 164.619 0.0443919 161.789L0.0443919 165.329C3.93979 167.138 7.85738 168.814 12.1634 169.58C16.758 170.39 21.1639 169.891 25.4477 168.426ZM23.1393 10.1019C23.7164 8.29288 24.2269 6.66148 24.7374 5.04117C25.0149 4.17553 25.2368 3.29878 25.5698 2.45534C25.8805 1.66738 26.4243 1.29005 27.5119 2.05581C26.724 5.07446 26.047 8.29287 28.3221 11.1894C26.2245 11.7998 26.2245 11.7998 23.1393 10.1019ZM59.1856 154.143C59.23 154.309 59.2744 154.476 59.3187 154.642C56.9771 155.286 54.6465 155.929 52.3048 156.573C52.2493 156.362 52.1938 156.162 52.1383 155.952C54.4911 155.341 56.8439 154.742 59.1856 154.143Z" fill="rgb(255,255,255)" fill-rule="nonzero" transform="matrix(-1,0,0,1,75.1299,0)" />
		<path id="Vector" d="M6.25926 21.6633C7.45785 22.6177 8.85619 23.3946 10.9204 22.3291C10.0659 21.741 9.45548 21.297 8.8118 20.8864C4.92751 18.356 1.84227 15.2042 0.921133 10.4543C0.676977 9.21131 0.621487 7.90175 0.688075 6.63658C0.810153 4.36149 0.688075 2.15301 0 0L0 14.1277C1.33176 17.0243 3.51806 19.4881 6.25926 21.6633Z" fill="rgb(255,255,255)" fill-rule="nonzero" transform="matrix(-1,0,0,1,75.0854,125.732)" />
		<path id="Vector" d="M21.7188 0C21.4968 0.832349 21.2748 1.6647 21.0418 2.49705C19.9098 6.64769 18.9443 10.8316 16.7913 14.6493C15.2597 17.3573 13.1289 19.4215 10.9315 21.5079C8.61204 23.7164 6.35915 26.0026 4.15065 28.311C2.1974 30.353 1.22078 32.9055 0.488311 35.6134C0.33294 36.1905 0.155372 36.7676 0 37.3447L0 53.459C1.69799 55.8562 4.30602 56.5443 6.95844 57.1435C9.75513 57.7761 11.4753 56.1114 10.8982 53.3036C10.7207 52.4269 10.3433 51.5946 10.0659 50.7622C13.3842 48.6869 13.9169 46.0012 11.5641 43.604C9.63305 41.6396 4.92751 41.5287 2.94097 43.4264C2.1974 44.1478 1.97544 44.9801 2.65242 45.8791C3.09634 46.4562 3.59575 46.9889 4.15065 47.6437C2.84108 47.91 1.62031 48.1653 0.0665879 48.476C1.1209 45.0578 2.14191 41.7839 3.26281 38.1549C4.61676 38.8984 5.75986 39.642 6.99173 40.1858C8.32349 40.7629 9.72184 41.3511 11.1424 41.5731C13.2732 41.906 15.4595 41.9615 16.1698 39.0538C16.7802 39.4311 17.1464 39.6531 17.6902 39.986C15.4928 42.2722 15.1931 44.8692 15.7702 47.7324C15.9589 48.6647 15.6926 49.7301 15.4484 50.6845C14.727 53.6033 13.9169 56.4999 13.0623 59.7405C12.5074 59.6295 11.664 59.3742 10.8094 59.3187C9.08925 59.1967 7.34687 58.9858 5.64888 59.1634C4.37261 59.2965 3.22951 60.1178 2.94097 61.5716C2.67462 62.8923 3.39598 63.8467 4.36151 64.6458C4.83872 65.0342 5.31594 65.4226 5.94852 65.9442C5.30484 66.5657 4.76104 67.0429 4.26163 67.5534C3.40708 68.4302 2.63022 69.3957 3.16293 70.7164C3.71783 72.0814 4.73884 73.0691 6.23707 73.1357C7.50224 73.2023 8.77851 72.9249 10.0437 72.7917C10.5653 72.7362 11.0869 72.6363 11.8416 72.5253C11.5752 73.2689 11.3643 73.7572 11.2201 74.2566C10.532 76.7648 11.7417 78.374 14.3608 78.4406C16.081 78.485 17.6236 77.9634 18.911 76.8092C19.5214 76.2654 20.0874 75.6772 20.7199 75.0668C21.1528 76.8869 21.2305 76.9978 18.7556 78.7069C17.5237 79.5504 15.9478 79.8944 14.3497 80.527C17.5348 81.9697 21.5523 81.0486 23.106 78.5515C23.561 77.8191 23.783 76.8314 23.783 75.9657C23.783 72.7806 22.54 70.0949 20.2316 67.8975C18.0564 65.8444 16.4472 63.4472 15.7148 60.484C15.1599 58.2533 15.1931 56.1336 16.3806 54.0916C17.9122 51.4503 18.4227 48.6869 17.7679 45.6238C17.2352 43.149 17.7679 40.9516 20.3759 39.6309C21.8186 38.8985 22.1627 37.4668 21.5412 35.5358C21.2526 34.6368 21.064 33.9377 21.5079 32.9721C21.7854 32.3506 21.519 31.3629 21.2415 30.6304C19.9209 27.0347 18.1674 24.8706 14.4274 22.1516C19.9764 15.859 22.6066 8.50106 21.7188 0ZM3.78441 44.6028C6.28146 43.4597 8.35678 44.281 10.31 45.2132C10.7429 45.413 10.9537 46.6781 10.7761 47.3218C10.6652 47.7435 9.62195 48.2651 9.10035 48.1764C6.98063 47.799 5.12727 46.889 3.78441 44.6028ZM6.0595 50.3294C7.97945 51.2838 9.18913 52.7487 8.91168 55.2902C4.65006 55.2236 1.6425 53.8807 0.887839 50.7511C2.45266 48.8977 4.28382 49.4526 6.0595 50.3294ZM4.9386 61.7492C6.74758 60.6283 9.69964 60.3731 11.9858 61.2609C12.9403 61.6271 14.1721 61.8935 14.0833 63.5582C9.47768 65.1563 5.97072 64.4238 4.9386 61.7492ZM12.3188 69.6731C10.5542 71.0493 8.45667 71.7485 6.21487 71.5709C5.65997 71.5265 4.86092 70.7608 4.74994 70.2059C4.65006 69.6954 5.19386 68.6854 5.68217 68.5079C7.38016 67.8975 9.17804 67.5201 10.9426 67.1095C11.3532 67.0207 11.8305 67.1872 12.0746 67.2094C13.0512 67.8198 13.1955 68.9962 12.3188 69.6731ZM20.0541 71.6264C20.5091 72.4921 20.4314 73.1801 19.6212 73.7683C18.6668 74.4564 17.7568 75.2443 16.7247 75.8214C15.6815 76.3985 14.5273 76.7315 13.251 75.7327C13.9946 73.0026 15.5816 71.4599 17.9787 70.905C18.8666 70.6831 19.5658 70.7053 20.0541 71.6264ZM17.4682 68.5856C16.6914 68.8852 16.1254 69.0961 15.9478 69.1627C15.5927 67.9863 15.2597 66.8876 14.8491 65.5558C16.2696 66.0219 16.5471 67.4314 17.4682 68.5856ZM10.7761 26.1691C11.0647 27.4342 11.331 28.6328 11.5752 29.7537C10.9093 30.7747 10.2434 31.7957 9.62196 32.7502C8.10153 32.8167 6.66989 32.8722 4.9608 32.9388C6.33695 30.0756 8.16812 27.9447 10.7761 26.1691ZM13.6283 38.6765C13.4286 39.0538 12.5629 39.3313 12.0635 39.2425C9.63305 38.8097 7.34687 37.9884 5.14947 36.1572C8.17922 34.881 11.4309 35.3249 13.14 37.1117C13.4841 37.489 13.817 38.3324 13.6283 38.6765ZM19.1218 37.6444C15.5816 36.6345 13.1844 34.7145 12.685 32.4838C16.8578 32.5504 19.599 34.7478 19.1218 37.6444ZM19.6767 32.5171C16.3029 30.9634 13.1955 29.5872 13.4286 24.7485C16.8578 26.5908 18.4227 29.2432 19.6767 32.5171Z" fill="rgb(255,255,255)" fill-rule="nonzero" transform="matrix(-1,0,0,1,75.0854,68.0999)" />
		<path id="Vector" d="M1.0041 16.0495C0.593479 18.2913 -0.116792 20.5664 0.016384 22.7971C0.249442 26.7036 0.460303 30.5657 0.449205 34.4944C0.427009 39.8436 3.02394 44.3716 7.80717 47.2459C10.5373 48.8884 12.3684 48.1116 13.0121 44.9598C13.4671 42.7291 13.6891 40.4207 13.7335 38.1456C13.7779 35.3156 13.5337 32.4745 13.4228 29.6446C13.3118 26.8479 12.6348 24.2065 11.1477 21.8094C9.88249 19.7784 9.46077 17.7919 10.1932 15.317C10.8813 12.9976 10.7592 10.4561 11.0145 7.80369C12.4683 9.3796 13.7557 10.8002 15.1984 12.365C14.6879 12.82 14.1441 13.2306 13.678 13.7189C12.1798 15.3059 12.4461 17.2592 14.4105 18.2802C16.6745 19.4455 18.9939 19.3456 21.2801 18.2136C22.7451 17.4811 24.2322 16.782 25.8303 16.0051C26.4518 17.3924 27.1066 18.602 27.5172 19.8894C27.7059 20.4887 27.6837 21.4431 27.3174 21.887C26.6516 22.7194 25.8192 22.0757 25.1422 21.6207C24.7649 21.3654 24.4985 20.9215 24.099 20.7439C23.3444 20.411 22.5342 20.2224 21.602 20.3777C22.3899 21.2878 23.1668 22.2089 23.9547 23.1189C25.1977 24.5617 26.5961 24.9057 28.0943 24.1399C29.5703 23.3853 30.436 21.5652 29.8478 19.9449C29.4482 18.8462 28.6381 17.914 28.0943 16.8596C27.6948 16.0717 27.1954 15.2172 27.151 14.3737C27.0067 11.1664 25.9968 10.0233 22.7562 9.73476C22.4898 9.71256 22.2235 9.67925 21.9238 9.64596C20.3146 7.1933 18.0062 5.56191 15.5314 4.14136C13.2452 2.8318 12.5793 2.94277 10.2598 4.86273C9.76042 3.66414 9.32759 2.49887 8.7727 1.37798C8.35097 0.534529 7.674 -0.342207 6.64188 0.135007C6.02039 0.423555 5.53208 1.2448 5.26573 1.93288C5.01048 2.58766 5.09926 3.3756 5.11036 4.10807C5.16585 7.88139 4.3113 11.344 1.82536 14.3071C1.41473 14.8065 1.11508 15.4391 1.0041 16.0495ZM21.835 12.6535C22.9226 11.6325 23.6218 11.9655 24.7205 13.5525C20.0926 16.6044 17.2627 17.914 14.6879 15.761C15.831 15.1062 16.8631 14.063 17.9174 14.0297C19.4712 13.9742 20.6586 13.7522 21.835 12.6535ZM19.6931 11.4882C16.6301 10.9111 14.0109 8.48069 13.4117 5.85046C16.2749 6.2056 19.0383 8.61385 19.6931 11.4882ZM5.21024 13.9853C6.12028 12.4538 6.48651 10.6115 7.0969 8.90241C7.24117 8.51398 7.38545 8.12553 7.52972 7.7371C8.31768 10.2231 8.36207 12.7645 7.52972 15.0285C6.45322 17.9806 7.15239 20.4221 8.61732 22.8526C10.0823 25.272 10.737 27.8911 10.8369 30.6988C10.9257 33.0738 11.1477 35.4488 11.1921 37.8238C11.2364 40.4318 11.0811 43.0287 10.1599 45.7921C9.27211 45.3038 8.65062 45.093 8.2067 44.6934C4.52217 41.4195 2.85747 37.3022 3.56774 32.4191C3.88958 30.1995 3.94507 28.0908 3.43456 25.8934C2.44684 21.7206 2.96845 17.7586 5.21024 13.9853Z" fill="rgb(255,255,255)" fill-rule="nonzero" transform="matrix(-1,0,0,1,54.9253,92.092)" />
		<path id="Vector" d="M16.8677 64.0687C19.3869 65.4004 21.6287 65.3116 23.4932 63.5915C25.5685 61.6715 27.0446 59.2854 27.211 56.4332C27.3553 53.9917 27.1111 51.5057 26.8781 49.0531C26.5673 45.5905 25.8349 42.1502 25.7794 38.6987C25.6573 31.6182 23.3156 25.6252 18.0996 20.7976C15.8134 18.6779 13.5383 16.5582 11.2188 14.4718C9.06582 12.5407 7.5121 10.199 6.10265 7.71308C5.20372 6.14826 4.07172 4.70554 2.97302 3.2517C2.17397 2.19739 1.27503 1.20968 0.254014 0C-0.345278 1.6314 0.176328 2.73009 1.18624 3.59574C3.00631 5.13836 3.83866 7.21369 4.84858 9.28901C6.00277 11.6418 7.5121 13.8947 9.21009 15.9034C11.6294 18.7667 14.3485 21.3747 16.9787 24.0604C20.1083 27.2567 21.9506 31.0521 22.4611 35.4913C22.9272 39.4977 23.4044 43.493 23.926 47.8434C23.1492 47.8323 22.5277 47.8212 21.9506 47.8212C21.8174 47.566 21.6509 47.3995 21.6842 47.2774C22.5277 43.5818 20.9407 41.6396 17.1341 41.906C15.7801 41.9948 14.4594 42.4387 13.5161 42.6385C11.8514 41.1957 10.2755 40.0082 8.93264 38.5877C7.83394 37.4224 7.02379 35.9686 6.00277 34.5258C5.75862 36.4569 6.23583 37.6333 7.77845 39.3756C8.5664 40.2635 9.40985 41.118 10.0868 42.0724C11.1189 43.5374 11.6294 45.1799 11.4075 47.0111C11.008 50.4625 11.7959 53.57 14.0488 56.2557C14.7369 57.0769 14.981 57.9093 14.7924 59.0302C14.3152 61.8713 14.8479 63.0033 16.8677 64.0687ZM23.016 50.6623C25.0691 51.4392 25.1468 51.7499 24.5475 54.1915C21.8507 54.258 19.2316 54.1693 17.6113 51.0729C19.4202 49.2085 21.2625 50.0075 23.016 50.6623ZM13.5605 47.4994C13.5605 46.4451 13.5716 45.5794 13.5716 44.5029C15.769 44.3142 17.7999 43.3598 19.9085 45.2243C18.4436 48.1764 15.991 47.4328 13.5605 47.4994ZM14.2486 50.7511C14.1487 50.5846 14.293 50.2628 14.3263 49.9077C14.9034 49.9299 15.4139 49.9409 15.9244 49.9631C15.991 53.914 18.0108 55.4566 24.5697 56.6552C24.6696 58.8304 23.5043 60.4729 22.1059 61.9156C21.207 62.8479 20.0528 62.9034 18.8098 62.293C17.5225 61.6493 17.4892 60.7171 17.8221 59.5407C18.3548 57.6207 17.8443 55.9782 16.6013 54.4356C15.7024 53.3036 14.9921 52.0051 14.2486 50.7511Z" fill="rgb(255,255,255)" fill-rule="nonzero" transform="matrix(-1,0,0,1,44.6421,77.4888)" />
		<path id="Vector" d="M9.43329 0.0202229C5.64888 0.375358 2.51924 2.13993 0.166472 5.18078C0.0332957 5.34725 0.0776859 5.64691 0 6.10193C2.48595 5.06982 4.983 4.40393 7.05832 3.07217C9.51098 1.50735 11.7972 3.36071 14.7492 2.96118C13.0956 0.974643 11.4975 -0.168443 9.43329 0.0202229Z" fill="rgb(255,255,255)" fill-rule="nonzero" transform="matrix(-1,0,0,1,45.7197,142.126)" />
	</g>
</svg>
