<svg viewBox="0 0 80 80" xmlns="http://www.w3.org/2000/svg" xmlns:xlink="http://www.w3.org/1999/xlink" width="80.000000" height="80.000000" fill="none">
	<rect id="fish 1" width="80.000000" height="80.000000" x="0.000000" y="0.000000" fill="rgb(255,255,255)" fill-opacity="0" />
	<g id="Group">
		<path id="Vector" d="M46.1164 15.9961C51.8701 21.7499 55.6026 29.2149 56.7539 37.2699L60.0001 59.9999L37.2701 56.7524C29.2151 55.6011 21.7501 51.8686 15.9964 46.1149C10.3401 40.4586 6.63512 33.1461 5.41887 25.2411L2.54137 6.53488C2.37137 5.43238 2.73762 4.31488 3.52637 3.52613C4.31512 2.73738 5.43262 2.37113 6.53512 2.54113L25.2426 5.41863C33.1476 6.63488 40.4601 10.3399 46.1164 15.9961Z" fill="rgb(219,155,124)" fill-rule="nonzero" />
		<path id="Vector" d="M5.79512 27.3061C5.65012 26.6224 5.52512 25.9349 5.41887 25.2411L2.54137 6.53488C2.37137 5.43238 2.73762 4.31488 3.52637 3.52613C4.31512 2.73738 5.43262 2.37113 6.53512 2.54113L25.2426 5.41863C25.9351 5.52488 26.6239 5.65113 27.3076 5.79613C28.2339 7.83988 28.7501 10.1099 28.7501 12.4999C28.7501 21.4749 21.4751 28.7499 12.5001 28.7499C10.1089 28.7499 7.83887 28.2336 5.79512 27.3061Z" fill="rgb(239,190,154)" fill-rule="nonzero" />
		<path id="Vector" d="M40.27 57.1812L37.27 56.7525C29.215 55.6012 21.75 51.8687 15.9963 46.115C14.215 44.335 12.6275 42.3887 11.25 40.3125L11.25 44.6362C11.25 47.9562 13.0188 51.025 15.8925 52.6888L28.0737 59.7412C32.0563 62.045 37.125 61.0938 40 57.5L40.27 57.1812Z" fill="rgb(228,124,110)" fill-rule="nonzero" />
		<path id="Vector" d="M58.75 50L60.675 46.15C63.4175 40.6637 63.6062 34.2487 61.19 28.61L59.1663 23.8875C55.9212 16.3175 48.53 11.375 40.3125 11.2525L40.3138 11.25C42.39 12.6275 44.335 14.215 46.1163 15.9963C51.87 21.75 55.6025 29.215 56.7537 37.27L58.575 50.025L58.75 50Z" fill="rgb(228,124,110)" fill-rule="nonzero" />
		<path id="Vector" d="M77.4998 61.2499C73.4873 58.8424 68.7036 58.0662 64.1348 59.0812L59.9998 59.9999L59.0811 64.1349C58.0661 68.7037 58.8423 73.4874 61.2498 77.4999L66.2498 66.2499L77.4998 61.2499Z" fill="rgb(228,124,110)" fill-rule="nonzero" />
		<g id="Group">
			<path id="Vector" d="M15 12.4985C13.6213 12.4985 12.5 11.3773 12.5 9.99853C12.5 8.61978 13.6213 7.49854 15 7.49854C16.3787 7.49854 17.5 8.61978 17.5 9.99853C17.4988 11.3773 16.3775 12.4985 15 12.4985Z" fill="rgb(96,96,96)" fill-rule="nonzero" />
		</g>
		<path id="Vector" d="M4.62973 12.8625L3.31348 11.5587L3.93598 15.605C7.24848 18.4412 11.4122 20 15.821 20L18.7485 20L18.7485 17.5L15.821 17.5C11.5935 17.5 7.62098 15.8537 4.62973 12.8625Z" fill="rgb(219,155,124)" fill-rule="nonzero" />
		<g id="Group">
			<path id="Vector" d="M35 23.7487L30 23.7487L30 21.2488L34.4813 21.2488L36.25 19.4813L36.25 15L38.75 15L38.75 20C38.75 20.3325 38.6188 20.65 38.385 20.885L35.885 23.385C35.65 23.6175 35.3313 23.7487 35 23.7487Z" fill="rgb(239,190,154)" fill-rule="nonzero" />
		</g>
		<g id="Group">
			<path id="Vector" d="M20 38.7487L15 38.7487L15 36.2487L19.4813 36.2487L21.25 34.4812L21.25 30L23.75 30L23.75 35C23.75 35.3325 23.6188 35.65 23.385 35.885L20.885 38.385C20.65 38.6175 20.3312 38.7487 20 38.7487Z" fill="rgb(239,190,154)" fill-rule="nonzero" />
		</g>
		<g id="Group">
			<path id="Vector" d="M31.25 34.9987L26.25 34.9987L26.25 32.4987L30.7313 32.4987L32.5 30.7312L32.5 26.25L35 26.25L35 31.25C35 31.5825 34.8688 31.9 34.635 32.135L32.135 34.635C31.9 34.8675 31.5813 34.9987 31.25 34.9987Z" fill="rgb(239,190,154)" fill-rule="nonzero" />
		</g>
		<g id="Group">
			<path id="Vector" d="M42.5 31.2487L37.5 31.2487L37.5 28.7487L41.9812 28.7487L43.75 26.9812L43.75 22.5L46.25 22.5L46.25 27.5C46.25 27.8325 46.1188 28.15 45.885 28.385L43.385 30.885C43.15 31.1175 42.8312 31.2487 42.5 31.2487Z" fill="rgb(239,190,154)" fill-rule="nonzero" />
		</g>
		<g id="Group">
			<path id="Vector" d="M27.5 46.2487L22.5 46.2487L22.5 43.7487L26.9812 43.7487L28.75 41.9812L28.75 37.5L31.25 37.5L31.25 42.5C31.25 42.8325 31.1188 43.15 30.885 43.385L28.385 45.885C28.15 46.1175 27.8312 46.2487 27.5 46.2487Z" fill="rgb(239,190,154)" fill-rule="nonzero" />
		</g>
		<g id="Group">
			<path id="Vector" d="M38.75 42.4987L33.75 42.4987L33.75 39.9987L38.2312 39.9987L40 38.2312L40 33.75L42.5 33.75L42.5 38.75C42.5 39.0825 42.3688 39.4 42.135 39.635L39.635 42.135C39.4 42.3675 39.0812 42.4987 38.75 42.4987Z" fill="rgb(239,190,154)" fill-rule="nonzero" />
		</g>
		<g id="Group">
			<path id="Vector" d="M50 38.7487L46.25 38.7487L46.25 36.2487L49.4825 36.2487L51.25 34.4812L51.25 31.25L53.75 31.25L53.7513 35C53.7513 35.3312 53.62 35.65 53.385 35.885L50.885 38.385C50.65 38.6175 50.3313 38.7487 50 38.7487Z" fill="rgb(239,190,154)" fill-rule="nonzero" />
		</g>
		<g id="Group">
			<path id="Vector" d="M35 53.7487L31.25 53.7487L31.25 51.2487L34.4825 51.2487L36.25 49.4812L36.25 46.25L38.75 46.25L38.7513 50C38.7513 50.3312 38.62 50.65 38.385 50.885L35.885 53.385C35.65 53.6175 35.3313 53.7487 35 53.7487Z" fill="rgb(239,190,154)" fill-rule="nonzero" />
		</g>
		<g id="Group">
			<path id="Vector" d="M46.25 49.9987L41.25 49.9987L41.25 47.4987L45.7312 47.4987L47.5 45.7312L47.5 41.25L50 41.25L50 46.25C50 46.5825 49.8688 46.9 49.635 47.135L47.135 49.635C46.9 49.8675 46.5812 49.9987 46.25 49.9987Z" fill="rgb(239,190,154)" fill-rule="nonzero" />
		</g>
		<g id="Group">
			<path id="Vector" d="M59.1663 23.8887C58.7775 22.9812 58.3263 22.115 57.8238 21.2862L47.3838 17.3712C48.4775 18.58 49.4938 19.8475 50.4163 21.1787L59.4588 24.57L59.1663 23.8887Z" fill="rgb(198,107,96)" fill-rule="nonzero" />
			<path id="Vector" d="M54.3299 28.3637L62.1887 31.6287C61.9249 30.6062 61.6124 29.5937 61.1912 28.61L61.1374 28.4837L52.7324 24.9912C53.3137 26.0912 53.8587 27.2112 54.3299 28.3637Z" fill="rgb(198,107,96)" fill-rule="nonzero" />
			<path id="Vector" d="M56.3628 35.1499L62.834 37.8386C62.8778 36.9324 62.8765 36.0236 62.8028 35.1186L55.624 32.1361C55.9115 33.1274 56.1565 34.1324 56.3628 35.1499Z" fill="rgb(198,107,96)" fill-rule="nonzero" />
			<path id="Vector" d="M30.1486 60.6174L28.9349 54.5474C27.9874 54.1774 27.0549 53.7712 26.1411 53.3262L27.3386 59.3124L28.0749 59.7387C28.7386 60.1249 29.4361 60.4112 30.1486 60.6174Z" fill="rgb(198,107,96)" fill-rule="nonzero" />
			<path id="Vector" d="M15.5723 45.6699L18.3948 54.1362L21.6598 56.0262L19.3298 49.0362C18.1723 48.1237 17.0473 47.1662 15.9973 46.1149C15.851 45.9699 15.7148 45.8174 15.5723 45.6699Z" fill="rgb(198,107,96)" fill-rule="nonzero" />
		</g>
		<g id="Group">
			<path id="Vector" d="M78.1423 60.1774C73.8373 57.5949 68.7673 56.7724 63.8635 57.8599L61.046 58.4862L59.9035 50.4861L61.7923 46.7074C64.706 40.8812 64.9048 34.1049 62.3398 28.1161L60.316 23.3937C56.9185 15.4724 49.266 10.2937 40.6935 10.0249C36.1098 7.03615 30.9498 5.03115 25.4323 4.1824L6.72352 1.30365C5.23727 1.0774 3.70852 1.5749 2.64102 2.64115C1.57477 3.70865 1.07477 5.2349 1.30352 6.72365L4.18227 25.4311C5.02852 30.9349 7.02477 36.0799 9.99977 40.6549L9.99977 44.6362C9.99977 48.3886 12.0173 51.8886 15.2648 53.7699L27.446 60.8224C29.121 61.7924 30.951 62.2611 32.7573 62.2611C35.7623 62.2611 38.696 60.9549 40.766 58.5161L58.486 61.0474L57.8598 63.8649C56.771 68.7674 57.5935 73.8386 60.1773 78.1436C60.4035 78.5199 60.811 78.7499 61.2485 78.7499C61.2748 78.7499 61.2998 78.7486 61.3248 78.7474C61.791 78.7187 62.2023 78.4336 62.391 78.0074L67.196 67.1974L78.0073 62.3924C78.4335 62.2036 78.7185 61.7924 78.7473 61.3261C78.776 60.8599 78.541 60.4161 78.1423 60.1774ZM37.446 55.5149C29.7098 54.4099 22.406 50.7574 16.8798 45.2312C12.4035 40.7549 9.25602 35.2962 7.58977 29.2799C9.17477 29.7437 10.8148 29.9986 12.4998 29.9986C22.1485 29.9986 29.9998 22.1487 29.9998 12.4987C29.9998 10.8149 29.7448 9.1749 29.2798 7.5899C35.296 9.25615 40.7548 12.4037 45.231 16.8799C50.7573 22.4062 54.4098 29.7099 55.5148 37.4461L58.526 58.5261L37.446 55.5149ZM27.0098 57.6786L21.061 54.2349L20.031 51.1449C22.0423 52.5749 24.1948 53.7899 26.4373 54.8174L27.0098 57.6786ZM58.0173 24.3799L59.4823 27.7974L54.4973 25.7261C53.866 24.4186 53.1623 23.1486 52.3898 21.9186L57.816 23.9536C57.881 24.0961 57.9548 24.2337 58.0173 24.3799ZM55.891 29.0124L60.7448 31.0287C61.1048 32.1887 61.3335 33.3736 61.4723 34.5649L57.0748 32.7374C56.741 31.4762 56.3485 30.2336 55.891 29.0124ZM59.556 45.5899L59.281 46.1386L57.9885 37.0924C57.9223 36.6311 57.8173 36.1774 57.7348 35.7199L61.6185 37.3336C61.5448 40.1686 60.8585 42.9862 59.556 45.5899ZM55.826 20.5374L49.791 18.2737C48.9123 17.1762 47.996 16.1087 46.9998 15.1124C46.3035 14.4162 45.581 13.7537 44.8423 13.1174C49.2498 14.2387 53.1398 16.8549 55.826 20.5374ZM4.40852 4.40865C4.83352 3.9849 5.41227 3.7499 6.00477 3.7499C6.11727 3.7499 6.23102 3.75865 6.34352 3.77615L25.051 6.6549C25.5073 6.7249 25.9523 6.83115 26.4048 6.9174C27.1185 8.6899 27.4998 10.5599 27.4998 12.4987C27.4998 20.7699 20.771 27.4986 12.4998 27.4986C10.561 27.4986 8.68977 27.1174 6.91727 26.4049C6.83102 25.9536 6.72477 25.5087 6.65477 25.0512L5.37227 16.7162C8.41852 18.8424 12.0285 19.9987 15.821 19.9987L18.7485 19.9987L18.7485 17.4987L15.821 17.4987C11.671 17.4987 7.77102 15.9049 4.80227 13.0187L3.77477 6.34365C3.66727 5.6374 3.90352 4.9149 4.40852 4.40865ZM12.4998 44.6349L12.4998 44.0787C13.3235 45.0849 14.181 46.0674 15.1123 46.9986C15.531 47.4174 15.9798 47.8012 16.416 48.1999L17.7973 52.3449L16.5185 51.6036C14.0385 50.1699 12.4998 47.4999 12.4998 44.6349ZM29.8635 59.1999L29.216 55.9649C31.7623 56.9024 34.3973 57.6049 37.0923 57.9899L37.616 58.0649C35.411 59.7674 32.496 60.2174 29.8635 59.1999ZM65.741 65.1061C65.4573 65.2324 65.2323 65.4574 65.106 65.7411L61.176 74.5836C59.851 71.3786 59.536 67.8436 60.2998 64.4049L61.046 61.0462L64.4048 60.2999C67.846 59.5374 71.3773 59.8524 74.5835 61.1762L65.741 65.1061Z" fill="rgb(25.5,25.5,25.5)" fill-rule="nonzero" />
			<path id="Vector" d="M15 12.4985C16.3787 12.4985 17.5 11.3773 17.5 9.99853C17.5 8.61978 16.3787 7.49854 15 7.49854C13.6213 7.49854 12.5 8.61978 12.5 9.99853C12.5 11.3773 13.62 12.4985 15 12.4985Z" fill="rgb(25.5,25.5,25.5)" fill-rule="nonzero" />
			<path id="Vector" d="M35.8838 23.3835L38.3838 20.8835C38.6188 20.6485 38.7487 20.331 38.7487 19.9985L38.7487 14.9985L36.2487 14.9985L36.2487 19.4798L34.4812 21.2473L30 21.2473L30 23.7473L35 23.7473C35.3312 23.7485 35.6488 23.6173 35.8838 23.3835Z" fill="rgb(25.5,25.5,25.5)" fill-rule="nonzero" />
			<path id="Vector" d="M23.7488 34.9985L23.7488 29.9985L21.2488 29.9985L21.2488 34.4798L19.4813 36.2473L15 36.2473L15 38.7473L20 38.7473C20.3325 38.7473 20.65 38.616 20.885 38.3823L23.385 35.8823C23.6175 35.6485 23.7488 35.331 23.7488 34.9985Z" fill="rgb(25.5,25.5,25.5)" fill-rule="nonzero" />
			<path id="Vector" d="M34.6338 32.1335C34.8688 31.8985 34.9987 31.581 34.9987 31.2485L34.9987 26.2485L32.4987 26.2485L32.4987 30.7298L30.7312 32.4973L26.25 32.4973L26.25 34.9973L31.25 34.9973C31.5825 34.9973 31.9 34.866 32.135 34.6323L34.6338 32.1335Z" fill="rgb(25.5,25.5,25.5)" fill-rule="nonzero" />
			<path id="Vector" d="M37.5 31.2485L42.5 31.2485C42.8325 31.2485 43.15 31.1173 43.385 30.8835L45.885 28.3835C46.12 28.1485 46.25 27.831 46.25 27.4985L46.25 22.4985L43.75 22.4985L43.75 26.9798L41.9825 28.7473L37.5 28.7473L37.5 31.2485Z" fill="rgb(25.5,25.5,25.5)" fill-rule="nonzero" />
			<path id="Vector" d="M28.7488 41.981L26.9812 43.7485L22.5 43.7485L22.5 46.2485L27.5 46.2485C27.8325 46.2485 28.15 46.1173 28.385 45.8835L30.885 43.3835C31.12 43.1485 31.25 42.831 31.25 42.4985L31.25 37.4985L28.75 37.4985L28.75 41.981L28.7488 41.981Z" fill="rgb(25.5,25.5,25.5)" fill-rule="nonzero" />
			<path id="Vector" d="M42.4987 38.7485L42.4987 33.7485L39.9987 33.7485L39.9987 38.2298L38.2312 39.9973L33.75 39.9973L33.75 42.4973L38.75 42.4973C39.0825 42.4973 39.4 42.366 39.635 42.1323L42.135 39.6323C42.3675 39.3985 42.4987 39.081 42.4987 38.7485Z" fill="rgb(25.5,25.5,25.5)" fill-rule="nonzero" />
			<path id="Vector" d="M51.2487 34.481L49.4812 36.2485L46.25 36.2485L46.25 38.7485L50 38.7485C50.3325 38.7485 50.65 38.6173 50.885 38.3835L53.385 35.8835C53.62 35.6485 53.75 35.331 53.75 34.9985L53.75 31.2485L51.25 31.2485L51.25 34.481L51.2487 34.481Z" fill="rgb(25.5,25.5,25.5)" fill-rule="nonzero" />
			<path id="Vector" d="M36.2488 49.4812L34.4813 51.2487L31.25 51.2487L31.25 53.7487L35 53.7487C35.3325 53.7487 35.65 53.6174 35.885 53.3837L38.385 50.8837C38.62 50.6487 38.75 50.3312 38.75 49.9987L38.75 46.2487L36.25 46.2487L36.25 49.4812L36.2488 49.4812Z" fill="rgb(25.5,25.5,25.5)" fill-rule="nonzero" />
			<path id="Vector" d="M47.4987 45.731L45.7312 47.4985L41.25 47.4985L41.25 49.9985L46.25 49.9985C46.5825 49.9985 46.9 49.8673 47.135 49.6335L49.635 47.1335C49.87 46.8985 50 46.581 50 46.2485L50 41.2485L47.5 41.2485L47.5 45.731L47.4987 45.731Z" fill="rgb(25.5,25.5,25.5)" fill-rule="nonzero" />
		</g>
	</g>
</svg>
