<svg viewBox="0 0 80 80" xmlns="http://www.w3.org/2000/svg" xmlns:xlink="http://www.w3.org/1999/xlink" width="80.000000" height="80.000000" fill="none">
	<rect id="soft-drink 1" width="80.000000" height="80.000000" x="0.000000" y="0.000000" fill="rgb(255,255,255)" fill-opacity="0" />
	<g id="Filled outline">
		<path id="Vector" d="M75.4313 53.7062C74.3396 56.9801 74.3396 60.5199 75.4313 63.7938C75.9736 65.4206 76.25 67.1242 76.25 68.8391L76.25 71.8313C76.2499 72.7052 75.9907 73.5595 75.5051 74.2861C75.0195 75.0128 74.3294 75.5791 73.522 75.9136C72.7146 76.2481 71.8261 76.3356 70.9689 76.1652C70.1118 75.9948 69.3243 75.5741 68.7063 74.9563L67.5 73.75L66.7672 74.4828C65.6354 75.6144 64.1004 76.25 62.5 76.25C60.8996 76.25 59.3646 75.6144 58.2328 74.4828L57.5 73.75L56.2938 74.9563C55.6757 75.5741 54.8882 75.9948 54.0311 76.1652C53.1739 76.3356 52.2854 76.2481 51.478 75.9136C50.6706 75.5791 49.9805 75.0128 49.4949 74.2861C49.0093 73.5595 48.7501 72.7052 48.75 71.8313L48.75 68.8391C48.7502 67.1242 49.0266 65.4206 49.5687 63.7938C50.6604 60.5199 50.6604 56.9801 49.5687 53.7062C49.0355 52.1079 48.7597 50.4349 48.7516 48.75C48.75 48.7203 48.75 48.6906 48.75 48.6609L48.75 31.25C48.75 29.6647 49.0623 28.0949 49.669 26.6303C50.2757 25.1657 51.1649 23.835 52.2859 22.7141L53.9641 21.0359C55.9212 19.0765 57.1462 16.5044 57.4344 13.75C57.4782 13.3348 57.5001 12.9175 57.5 12.5L57.5 10L67.5 10L67.5 12.5C67.4999 12.9175 67.5218 13.3348 67.5656 13.75C67.8538 16.5044 69.0788 19.0765 71.0359 21.0359L72.7141 22.7141C74.9779 24.978 76.2498 28.0484 76.25 31.25L76.25 48.6609C76.25 48.6906 76.25 48.7203 76.2484 48.75C76.2453 49.5765 76.1768 50.4015 76.0437 51.2172C75.9069 52.062 75.7021 52.8944 75.4313 53.7062Z" fill="rgb(235,235,233)" fill-rule="nonzero" />
		<path id="Vector" d="M75.4313 53.7062C74.3396 56.9801 74.3396 60.5199 75.4313 63.7938C75.9736 65.4206 76.25 67.1242 76.25 68.8391L76.25 71.8313C76.2499 72.7052 75.9907 73.5595 75.5051 74.2861C75.0195 75.0128 74.3294 75.5791 73.522 75.9136C72.7146 76.2481 71.8261 76.3356 70.9689 76.1652C70.1118 75.9948 69.3243 75.5741 68.7063 74.9563L67.5 73.75L66.7672 74.4828C65.6354 75.6143 64.1004 76.25 62.5 76.25C60.8996 76.25 59.3646 75.6143 58.2328 74.4828L57.5 73.75L56.2938 74.9563C55.6757 75.5741 54.8882 75.9948 54.0311 76.1652C53.1739 76.3356 52.2854 76.2481 51.478 75.9136C50.6706 75.5791 49.9805 75.0128 49.4949 74.2861C49.0093 73.5595 48.7501 72.7052 48.75 71.8313L48.75 68.8391C48.7502 67.1242 49.0266 65.4206 49.5687 63.7938C50.6589 60.5196 50.6589 56.9804 49.5687 53.7062C49.0355 52.1079 48.7597 50.4349 48.7516 48.75L48.75 48.75L48.75 31.25C48.75 29.6647 49.0623 28.095 49.669 26.6303C50.2757 25.1657 51.1649 23.835 52.2859 22.7141L53.9641 21.0359C54.9866 20.0141 55.8165 18.8163 56.4141 17.5L68.5859 17.5C69.1835 18.8163 70.0134 20.0141 71.0359 21.0359L72.7141 22.7141C74.636 24.6353 75.8527 27.1492 76.1672 29.8484C76.2222 30.3136 76.2499 30.7816 76.25 31.25L76.25 48.75L76.2484 48.75C76.2453 49.5765 76.1768 50.4015 76.0437 51.2172C75.9069 52.062 75.7021 52.8944 75.4313 53.7062Z" fill="rgb(126,180,87)" fill-rule="nonzero" />
		<path id="Vector" d="M75.4313 53.7062C74.3396 56.9801 74.3396 60.5198 75.4313 63.7937C75.9736 65.4205 76.25 67.1242 76.25 68.839L76.25 71.8312C76.2499 72.7052 75.9907 73.5594 75.5051 74.2861C75.0195 75.0127 74.3294 75.5791 73.522 75.9136C72.7146 76.248 71.8261 76.3356 70.9689 76.1652C70.1118 75.9948 69.3243 75.5741 68.7063 74.9562L67.5 73.75L66.7672 74.4828C65.6354 75.6143 64.1004 76.25 62.5 76.25C60.8996 76.25 59.3646 75.6143 58.2328 74.4828L57.5 73.75L56.2938 74.9562C55.6757 75.5741 54.8882 75.9948 54.0311 76.1652C53.1739 76.3356 52.2854 76.248 51.478 75.9136C50.6706 75.5791 49.9805 75.0127 49.4949 74.2861C49.0093 73.5594 48.7501 72.7052 48.75 71.8312L48.75 68.839C48.7502 67.1242 49.0266 65.4206 49.5687 63.7937C50.3404 61.4821 50.5708 59.0241 50.2422 56.6093C60.125 50.8296 69.1156 42.2015 76.1672 29.8484C76.2222 30.3135 76.2499 30.7815 76.25 31.25L76.25 48.75L76.2484 48.75C76.2453 49.5765 76.1768 50.4014 76.0437 51.2171C75.9069 52.062 75.7021 52.8943 75.4313 53.7062Z" fill="rgb(121,173,84)" fill-rule="nonzero" />
		<path id="Vector" d="M48.75 31.25L76.25 31.25L76.25 48.75L48.75 48.75L48.75 31.25Z" fill="rgb(208,210,75)" fill-rule="nonzero" />
		<path id="Vector" d="M76.2502 31.25L76.2502 48.75L61.0518 48.75C66.3236 44.0531 71.158 38.2781 75.3518 31.25L76.2502 31.25Z" fill="rgb(199,201,52)" fill-rule="nonzero" />
		<path id="Vector" d="M52.5 35L55 35L55 37.5L52.5 37.5L52.5 35Z" fill="rgb(222,224,81)" fill-rule="nonzero" />
		<path id="Vector" d="M52.5 40L55 40L55 45L52.5 45L52.5 40Z" fill="rgb(222,224,81)" fill-rule="nonzero" />
		<path id="Vector" d="M67.5658 13.75L57.4346 13.75C57.4784 13.3348 57.5003 12.9175 57.5002 12.5L57.5002 10L67.5002 10L67.5002 12.5C67.5001 12.9175 67.522 13.3348 67.5658 13.75Z" fill="rgb(224,224,222)" fill-rule="nonzero" />
		<path id="Vector" d="M58.75 3.75L66.25 3.75C66.5815 3.75 66.8995 3.8817 67.1339 4.11612C67.3683 4.35054 67.5 4.66848 67.5 5L67.5 10L57.5 10L57.5 5C57.5 4.66848 57.6317 4.35054 57.8661 4.11612C58.1005 3.8817 58.4185 3.75 58.75 3.75Z" fill="rgb(126,180,87)" fill-rule="nonzero" />
		<path id="Vector" d="M56.25 8.75L68.75 8.75L68.75 11.25L56.25 11.25L56.25 8.75Z" fill="rgb(235,235,233)" fill-rule="nonzero" />
		<path id="Vector" d="M30.4312 53.7062C29.3396 56.9801 29.3396 60.5199 30.4312 63.7938C30.9736 65.4206 31.25 67.1242 31.25 68.8391L31.25 71.8313C31.2499 72.7052 30.9907 73.5595 30.5051 74.2861C30.0195 75.0128 29.3294 75.5791 28.522 75.9136C27.7146 76.2481 26.8261 76.3356 25.9689 76.1652C25.1118 75.9948 24.3243 75.5741 23.7062 74.9563L22.5 73.75L21.7672 74.4828C20.6354 75.6144 19.1004 76.25 17.5 76.25C15.8996 76.25 14.3646 75.6144 13.2328 74.4828L12.5 73.75L11.2937 74.9563C10.6757 75.5741 9.88825 75.9948 9.03107 76.1652C8.17389 76.3356 7.28544 76.2481 6.47803 75.9136C5.67061 75.5791 4.98049 75.0128 4.49492 74.2861C4.00934 73.5595 3.75011 72.7052 3.75 71.8313L3.75 68.8391C3.75018 67.1242 4.02664 65.4206 4.56875 63.7938C5.11075 62.1674 5.3872 60.4643 5.3875 58.75C5.3872 57.0357 5.11075 55.3326 4.56875 53.7062C4.0355 52.1079 3.75966 50.4349 3.75156 48.75C3.75 48.7203 3.75 48.6906 3.75 48.6609L3.75 31.25C3.75002 29.6647 4.06229 28.0949 4.66899 26.6303C5.27569 25.1657 6.16493 23.835 7.28594 22.7141L8.96406 21.0359C9.98659 20.0141 10.8165 18.8163 11.4141 17.5C11.9557 16.3138 12.3004 15.0472 12.4344 13.75C12.4782 13.3348 12.5001 12.9175 12.5 12.5L12.5 10L22.5 10L22.5 12.5C22.4999 12.9175 22.5218 13.3348 22.5656 13.75C22.8538 16.5044 24.0788 19.0765 26.0359 21.0359L27.7141 22.7141C29.9779 24.978 31.2498 28.0484 31.25 31.25L31.25 48.6609C31.25 48.6906 31.25 48.7203 31.2484 48.75C31.2453 49.5765 31.1769 50.4015 31.0437 51.2172C30.9069 52.062 30.7021 52.8944 30.4312 53.7062Z" fill="rgb(235,235,233)" fill-rule="nonzero" />
		<path id="Vector" d="M30.4312 53.7062C29.3396 56.9801 29.3396 60.5199 30.4312 63.7938C30.9736 65.4206 31.25 67.1242 31.25 68.8391L31.25 71.8313C31.2499 72.7052 30.9907 73.5595 30.5051 74.2861C30.0195 75.0128 29.3294 75.5791 28.522 75.9136C27.7146 76.2481 26.8261 76.3356 25.9689 76.1652C25.1118 75.9948 24.3243 75.5741 23.7062 74.9563L22.5 73.75L21.7672 74.4828C20.6354 75.6143 19.1004 76.25 17.5 76.25C15.8996 76.25 14.3646 75.6143 13.2328 74.4828L12.5 73.75L11.2937 74.9563C10.6757 75.5741 9.88825 75.9948 9.03107 76.1652C8.17389 76.3356 7.28544 76.2481 6.47803 75.9136C5.67061 75.5791 4.98049 75.0128 4.49492 74.2861C4.00934 73.5595 3.75011 72.7052 3.75 71.8313L3.75 68.8391C3.75018 67.1242 4.02664 65.4206 4.56875 63.7938C5.11075 62.1674 5.3872 60.4643 5.3875 58.75C5.38749 58.034 5.33894 57.3188 5.24219 56.6094C5.10837 55.6228 4.88292 54.6509 4.56875 53.7062C4.0355 52.1079 3.75966 50.4349 3.75156 48.75L3.75 48.75L3.75 31.25C3.75002 29.6647 4.06229 28.095 4.66899 26.6303C5.27569 25.1657 6.16493 23.835 7.28594 22.7141L8.96406 21.0359C9.98659 20.0141 10.8165 18.8163 11.4141 17.5L23.5859 17.5C24.1835 18.8163 25.0134 20.0141 26.0359 21.0359L27.7141 22.7141C29.636 24.6353 30.8527 27.1492 31.1672 29.8484C31.2222 30.3136 31.2499 30.7816 31.25 31.25L31.25 48.75L31.2484 48.75C31.2453 49.5765 31.1769 50.4015 31.0437 51.2172C30.9069 52.062 30.7021 52.8944 30.4312 53.7062Z" fill="rgb(250,109,0)" fill-rule="nonzero" />
		<path id="Vector" d="M30.4312 53.7062C29.3396 56.9801 29.3396 60.5198 30.4312 63.7937C30.9736 65.4205 31.25 67.1242 31.25 68.839L31.25 71.8312C31.2499 72.7052 30.9907 73.5594 30.5051 74.2861C30.0195 75.0127 29.3294 75.5791 28.522 75.9136C27.7146 76.248 26.8261 76.3356 25.9689 76.1652C25.1118 75.9948 24.3243 75.5741 23.7062 74.9562L22.5 73.75L21.7672 74.4828C20.6354 75.6143 19.1004 76.25 17.5 76.25C15.8996 76.25 14.3646 75.6143 13.2328 74.4828L12.5 73.75L11.2937 74.9562C10.6757 75.5741 9.88825 75.9948 9.03107 76.1652C8.17389 76.3356 7.28544 76.248 6.47803 75.9136C5.67061 75.5791 4.98049 75.0127 4.49492 74.2861C4.00934 73.5594 3.75011 72.7052 3.75 71.8312L3.75 68.839C3.75018 67.1242 4.02664 65.4206 4.56875 63.7937C5.11075 62.1673 5.3872 60.4643 5.3875 58.75C5.38749 58.0339 5.33894 57.3188 5.24219 56.6093C15.125 50.8296 24.1156 42.2015 31.1672 29.8484C31.2222 30.3135 31.2499 30.7815 31.25 31.25L31.25 48.75L31.2484 48.75C31.2453 49.5765 31.1769 50.4014 31.0437 51.2171C30.9069 52.062 30.7021 52.8943 30.4312 53.7062Z" fill="rgb(248,100,0)" fill-rule="nonzero" />
		<path id="Vector" d="M3.75 31.25L31.25 31.25L31.25 48.75L3.75 48.75L3.75 31.25Z" fill="rgb(249,133,0)" fill-rule="nonzero" />
		<path id="Vector" d="M31.2502 31.25L31.2502 48.75L16.0518 48.75C21.3236 44.0531 26.158 38.2781 30.3518 31.25L31.2502 31.25Z" fill="rgb(247,124,0)" fill-rule="nonzero" />
		<path id="Vector" d="M22.5658 13.75L12.4346 13.75C12.4784 13.3348 12.5003 12.9175 12.5002 12.5L12.5002 10L22.5002 10L22.5002 12.5C22.5001 12.9175 22.522 13.3348 22.5658 13.75Z" fill="rgb(224,224,222)" fill-rule="nonzero" />
		<path id="Vector" d="M13.75 3.75L21.25 3.75C21.5815 3.75 21.8995 3.8817 22.1339 4.11612C22.3683 4.35054 22.5 4.66848 22.5 5L22.5 10L12.5 10L12.5 5C12.5 4.66848 12.6317 4.35054 12.8661 4.11612C13.1005 3.8817 13.4185 3.75 13.75 3.75Z" fill="rgb(250,109,0)" fill-rule="nonzero" />
		<path id="Vector" d="M11.25 8.75L23.75 8.75L23.75 11.25L11.25 11.25L11.25 8.75Z" fill="rgb(235,235,233)" fill-rule="nonzero" />
		<path id="Vector" d="M52.9313 53.7062C51.8396 56.9801 51.8396 60.5199 52.9313 63.7938C53.4736 65.4206 53.75 67.1242 53.75 68.8391L53.75 71.8313C53.7499 72.7052 53.4907 73.5595 53.0051 74.2861C52.5195 75.0128 51.8294 75.5791 51.022 75.9136C50.2146 76.2481 49.3261 76.3356 48.4689 76.1652C47.6118 75.9948 46.8243 75.5741 46.2062 74.9563L45 73.75L44.2672 74.4828C43.1354 75.6144 41.6004 76.25 40 76.25C38.3996 76.25 36.8646 75.6144 35.7328 74.4828L35 73.75L33.7938 74.9563C33.1757 75.5741 32.3882 75.9948 31.5311 76.1652C30.6739 76.3356 29.7854 76.2481 28.978 75.9136C28.1706 75.5791 27.4805 75.0128 26.9949 74.2861C26.5093 73.5595 26.2501 72.7052 26.25 71.8313L26.25 68.8391C26.2502 67.1242 26.5266 65.4206 27.0688 63.7938C28.1604 60.5199 28.1604 56.9801 27.0688 53.7062C26.5355 52.1079 26.2597 50.4349 26.2516 48.75C26.25 48.7203 26.25 48.6906 26.25 48.6609L26.25 31.25C26.25 29.6647 26.5623 28.0949 27.169 26.6303C27.7757 25.1657 28.6649 23.835 29.7859 22.7141L31.4641 21.0359C33.4212 19.0765 34.6462 16.5044 34.9344 13.75C34.9782 13.3348 35.0001 12.9175 35 12.5L35 10L45 10L45 12.5C44.9999 12.9175 45.0218 13.3348 45.0656 13.75C45.3538 16.5044 46.5788 19.0765 48.5359 21.0359L50.2141 22.7141C52.4779 24.978 53.7498 28.0484 53.75 31.25L53.75 48.6609C53.75 48.6906 53.75 48.7203 53.7484 48.75C53.7453 49.5765 53.6768 50.4015 53.5437 51.2172C53.4069 52.062 53.2021 52.8944 52.9313 53.7062Z" fill="rgb(235,235,233)" fill-rule="nonzero" />
		<path id="Vector" d="M52.9313 53.7062C51.8396 56.9801 51.8396 60.5199 52.9313 63.7938C53.4736 65.4206 53.75 67.1242 53.75 68.8391L53.75 71.8313C53.7499 72.7052 53.4907 73.5595 53.0051 74.2861C52.5195 75.0128 51.8294 75.5791 51.022 75.9136C50.2146 76.2481 49.3261 76.3356 48.4689 76.1652C47.6118 75.9948 46.8243 75.5741 46.2062 74.9563L45 73.75L44.2672 74.4828C43.1354 75.6143 41.6004 76.25 40 76.25C38.3996 76.25 36.8646 75.6143 35.7328 74.4828L35 73.75L33.7938 74.9563C33.1757 75.5741 32.3882 75.9948 31.5311 76.1652C30.6739 76.3356 29.7854 76.2481 28.978 75.9136C28.1706 75.5791 27.4805 75.0128 26.9949 74.2861C26.5093 73.5595 26.2501 72.7052 26.25 71.8313L26.25 68.8391C26.2502 67.1242 26.5266 65.4206 27.0688 63.7938C28.1589 60.5196 28.1589 56.9804 27.0688 53.7062C26.5355 52.1079 26.2597 50.4349 26.2516 48.75L26.25 48.75L26.25 31.25C26.25 29.6647 26.5623 28.095 27.169 26.6303C27.7757 25.1657 28.6649 23.835 29.7859 22.7141L31.4641 21.0359C32.4866 20.0141 33.3165 18.8163 33.9141 17.5L46.0859 17.5C46.6835 18.8163 47.5134 20.0141 48.5359 21.0359L50.2141 22.7141C52.136 24.6353 53.3527 27.1492 53.6672 29.8484C53.7222 30.3136 53.7499 30.7816 53.75 31.25L53.75 48.75L53.7484 48.75C53.7453 49.5765 53.6768 50.4015 53.5437 51.2172C53.4069 52.062 53.2021 52.8944 52.9313 53.7062Z" fill="rgb(105,57,36)" fill-rule="nonzero" />
		<path id="Vector" d="M52.9313 53.7062C51.8396 56.9801 51.8396 60.5198 52.9313 63.7937C53.4736 65.4205 53.75 67.1242 53.75 68.839L53.75 71.8312C53.7499 72.7052 53.4907 73.5594 53.0051 74.2861C52.5195 75.0127 51.8294 75.5791 51.022 75.9136C50.2146 76.248 49.3261 76.3356 48.4689 76.1652C47.6118 75.9948 46.8243 75.5741 46.2062 74.9562L45 73.75L44.2672 74.4828C43.1354 75.6143 41.6004 76.25 40 76.25C38.3996 76.25 36.8646 75.6143 35.7328 74.4828L35 73.75L33.7938 74.9562C33.1757 75.5741 32.3882 75.9948 31.5311 76.1652C30.6739 76.3356 29.7854 76.248 28.978 75.9136C28.1706 75.5791 27.4805 75.0127 26.9949 74.2861C26.5093 73.5594 26.2501 72.7052 26.25 71.8312L26.25 68.839C26.2502 67.1242 26.5266 65.4206 27.0688 63.7937C27.8404 61.4821 28.0708 59.0241 27.7422 56.6093C37.625 50.8296 46.6156 42.2015 53.6672 29.8484C53.7222 30.3135 53.7499 30.7815 53.75 31.25L53.75 48.75L53.7484 48.75C53.7453 49.5765 53.6768 50.4014 53.5437 51.2171C53.4069 52.062 53.2021 52.8943 52.9313 53.7062Z" fill="rgb(92,46,26)" fill-rule="nonzero" />
		<path id="Vector" d="M26.25 31.25L53.75 31.25L53.75 48.75L26.25 48.75L26.25 31.25Z" fill="rgb(243,82,68)" fill-rule="nonzero" />
		<path id="Vector" d="M53.7502 31.25L53.7502 48.75L38.5518 48.75C43.8236 44.0531 48.658 38.2781 52.8517 31.25L53.7502 31.25Z" fill="rgb(230,76,63)" fill-rule="nonzero" />
		<path id="Vector" d="M45.0658 13.75L34.9346 13.75C34.9784 13.3348 35.0003 12.9175 35.0002 12.5L35.0002 10L45.0002 10L45.0002 12.5C45.0001 12.9175 45.022 13.3348 45.0658 13.75Z" fill="rgb(224,224,222)" fill-rule="nonzero" />
		<path id="Vector" d="M36.25 3.75L43.75 3.75C44.0815 3.75 44.3995 3.8817 44.6339 4.11612C44.8683 4.35054 45 4.66848 45 5L45 10L35 10L35 5C35 4.66848 35.1317 4.35054 35.3661 4.11612C35.6005 3.8817 35.9185 3.75 36.25 3.75Z" fill="rgb(243,82,68)" fill-rule="nonzero" />
		<path id="Vector" d="M33.75 8.75L46.25 8.75L46.25 11.25L33.75 11.25L33.75 8.75Z" fill="rgb(235,235,233)" fill-rule="nonzero" />
		<path id="Vector" d="M66.25 38.75L66.25 47.9172C66.2502 50.9309 65.5483 53.9032 64.2 56.5984C63.0784 58.8455 62.4019 61.2883 62.2078 63.7922L61.25 76.25L46.25 76.25L45.2922 63.7922C45.0985 61.2882 44.422 58.8454 43.3 56.5984C41.9507 53.9035 41.2488 50.931 41.25 47.9172L41.25 38.75L66.25 38.75Z" fill="rgb(235,235,233)" fill-rule="nonzero" />
		<path id="Vector" d="M66.25 45L66.25 47.9172C66.25 48.4781 66.225 49.0375 66.1781 49.5938C65.9664 52.0325 65.2952 54.4092 64.2 56.5984C63.0784 58.8455 62.4019 61.2883 62.2078 63.7922L61.25 76.25L46.25 76.25L45.7578 69.85L45.2922 63.7922C45.0985 61.2882 44.422 58.8454 43.3 56.5984C41.9507 53.9035 41.2488 50.931 41.25 47.9172L41.25 45L66.25 45Z" fill="rgb(249,133,0)" fill-rule="nonzero" />
		<path id="Vector" d="M66.1781 49.5939C65.9664 52.0326 65.2952 54.4093 64.2 56.5986C63.0784 58.8456 62.4019 61.2884 62.2078 63.7923L61.25 76.2501L46.25 76.2501L45.7578 69.8501C53.1484 65.072 60.0953 58.4611 66.1781 49.5939Z" fill="rgb(247,124,0)" fill-rule="nonzero" />
		<path id="Vector" d="M76.486 26.1527C75.8177 24.5355 74.8362 23.0665 73.5979 21.8302L71.9198 20.152C69.8921 18.1214 68.7522 15.3697 68.7499 12.5L68.7499 11.25L69.9999 11.25L69.9999 8.75L68.7499 8.75L68.7499 5C68.7491 4.3372 68.4855 3.70177 68.0168 3.2331C67.5482 2.76443 66.9127 2.50079 66.2499 2.5L58.7499 2.5C58.0871 2.50079 57.4517 2.76443 56.983 3.2331C56.5144 3.70177 56.2507 4.3372 56.2499 5L56.2499 8.75L54.9999 8.75L54.9999 11.25L56.2499 11.25L56.2499 12.5C56.2477 15.3697 55.1078 18.1214 53.0801 20.152L54.8479 21.9198C57.3445 19.4204 58.7478 16.0327 58.7499 12.5L58.7499 11.25L66.2499 11.25L66.2499 12.5C66.2521 16.0327 67.6554 19.4204 70.152 21.9198L71.8301 23.598C73.5552 25.3212 74.6461 27.5777 74.9251 30L57.4999 30L57.4999 32.5L74.9999 32.5L74.9999 47.5L69.9999 47.5L69.9999 50L74.9374 50C74.9062 50.3405 74.8652 50.68 74.8104 51.0156C74.6841 51.7945 74.4952 52.562 74.2457 53.3106C73.0685 56.8411 73.0685 60.6581 74.2457 64.1886C74.7459 65.688 75.0006 67.2584 74.9999 68.8391L74.9999 71.8313C74.9999 72.458 74.814 73.0706 74.4657 73.5917C74.1175 74.1128 73.6226 74.519 73.0436 74.7588C72.4645 74.9987 71.8274 75.0615 71.2127 74.9392C70.598 74.817 70.0333 74.5153 69.5901 74.0722L68.3838 72.8661C68.2678 72.75 68.13 72.6579 67.9783 72.5951C67.8266 72.5323 67.6641 72.5 67.4999 72.5C67.3358 72.5 67.1732 72.5323 67.0216 72.5951C66.8699 72.6579 66.7321 72.75 66.616 72.8661L65.8831 73.5989C65.7365 73.7457 65.5805 73.8827 65.416 74.0091L66.9395 75.9912C67.1333 75.8422 67.3196 75.6834 67.4976 75.5156L67.8221 75.8402C68.6149 76.6331 69.6251 77.1732 70.7249 77.392C71.8246 77.6108 72.9646 77.4985 74.0005 77.0694C75.0365 76.6402 75.9219 75.9135 76.5448 74.9811C77.1677 74.0487 77.5001 72.9526 77.4999 71.8313L77.4999 68.8391C77.5005 66.99 77.2024 65.1529 76.6171 63.3989C75.6112 60.3819 75.6112 57.12 76.6171 54.103C76.9089 53.2273 77.1298 52.3296 77.2777 51.4186C77.4195 50.5489 77.4933 49.6695 77.4985 48.7883C77.4985 48.7755 77.5004 48.763 77.5004 48.75L77.5004 31.25C77.5016 29.5006 77.1569 27.7683 76.486 26.1527ZM58.7499 8.75L58.7499 5L66.2499 5L66.2499 8.75L58.7499 8.75Z" fill="rgb(25.5,25.5,25.5)" fill-rule="nonzero" />
		<path id="Vector" d="M20.8832 73.5989C19.9858 74.496 18.7689 74.9999 17.5 75C16.2319 74.9964 15.0163 74.493 14.1169 73.5989L13.384 72.8661C13.2679 72.75 13.1301 72.6579 12.9784 72.5951C12.8268 72.5323 12.6642 72.4999 12.5 72.4999C12.3359 72.4999 12.1733 72.5323 12.0217 72.5951C11.87 72.6579 11.7322 72.75 11.6161 72.8661L10.4099 74.0722C9.96665 74.5153 9.40199 74.817 8.78728 74.9392C8.17258 75.0614 7.53544 74.9987 6.95641 74.7588C6.37739 74.519 5.88248 74.1128 5.53425 73.5917C5.18603 73.0706 5.00013 72.458 5.00005 71.8312L5.00005 68.8391C5.00024 67.2585 5.25507 65.6883 5.75474 64.1888C6.33964 62.4351 6.63775 60.5986 6.63755 58.75C6.63771 56.9012 6.33961 55.0646 5.75474 53.3108C5.39686 52.2376 5.16458 51.1266 5.06255 50L22.5 50L22.5 47.5L5.00005 47.5L5.00005 32.5L22.5 32.5L22.5 30L5.07396 30C5.3489 27.5763 6.44077 25.3184 8.16989 23.598L9.84802 21.9198C10.782 20.9859 11.5709 19.9175 12.1886 18.75L22.8116 18.75C23.4293 19.9175 24.2182 20.9859 25.1521 21.9198L26.9199 20.152C24.8922 18.1214 23.7523 15.3697 23.75 12.5L23.75 11.25L25 11.25L25 8.75L23.75 8.75L23.75 5C23.7493 4.3372 23.4856 3.70177 23.0169 3.2331C22.5483 2.76443 21.9128 2.50079 21.25 2.5L13.75 2.5C13.0872 2.50079 12.4518 2.76443 11.9832 3.2331C11.5145 3.70177 11.2508 4.3372 11.25 5L11.25 8.75L10 8.75L10 11.25L11.25 11.25L11.25 12.5C11.2525 14.0472 10.9202 15.5766 10.276 16.9833C9.74098 18.1632 8.9971 19.2367 8.08021 20.152L6.40208 21.8302C5.16113 23.0643 4.17729 24.5323 3.5075 26.1492C2.83772 27.7661 2.49529 29.4998 2.50005 31.25L2.50005 48.75C2.50005 48.7628 2.50161 48.7752 2.50192 48.7878C2.51348 50.594 2.81081 52.387 3.38286 54.1003C3.88292 55.5995 4.13776 57.1696 4.13755 58.75C4.13775 60.3295 3.88307 61.8987 3.38333 63.397C2.7987 65.1519 2.50045 66.9894 2.50005 68.8391L2.50005 71.8312C2.49997 72.9525 2.83241 74.0486 3.45532 74.981C4.07823 75.9133 4.96363 76.64 5.99955 77.0691C7.03547 77.4982 8.17538 77.6105 9.27512 77.3918C10.3749 77.173 11.385 76.633 12.1779 75.8401L12.5024 75.5155C13.8572 76.7855 15.6431 77.4947 17.5 77.5C19.4319 77.4996 21.2846 76.7324 22.6511 75.3669L23.384 74.6339L21.6161 72.8661L20.8832 73.5989ZM13.75 11.25L21.25 11.25L21.25 12.5C21.2487 13.7694 21.43 15.0323 21.7885 16.25L13.2116 16.25C13.5701 15.0323 13.7515 13.7694 13.75 12.5L13.75 11.25ZM13.75 5L21.25 5L21.25 8.75L13.75 8.75L13.75 5Z" fill="rgb(25.5,25.5,25.5)" fill-rule="nonzero" />
		<path id="Vector" d="M7.5 35L10 35L10 37.5L7.5 37.5L7.5 35Z" fill="rgb(25.5,25.5,25.5)" fill-rule="nonzero" />
		<path id="Vector" d="M7.5 40L10 40L10 45L7.5 45L7.5 40Z" fill="rgb(25.5,25.5,25.5)" fill-rule="nonzero" />
		<path id="Vector" d="M40 75C38.7318 74.9964 37.5162 74.493 36.6169 73.5989L35.8839 72.8661C35.7678 72.75 35.63 72.6579 35.4784 72.5951C35.3267 72.5323 35.1642 72.5 35 72.5C34.8358 72.5 34.6733 72.5323 34.5216 72.5951C34.37 72.6579 34.2322 72.75 34.1161 72.8661L32.9098 74.0722C32.4667 74.5155 31.902 74.8175 31.2872 74.9398C30.6724 75.0621 30.0352 74.9994 29.4561 74.7595C28.877 74.5196 28.382 74.1134 28.0338 73.5921C27.6856 73.0709 27.4999 72.4581 27.5 71.8313L27.5 68.8391C27.5002 67.2585 27.755 65.6883 28.2547 64.1888C29.4318 60.6583 29.4318 56.8412 28.2547 53.3108C27.8968 52.2376 27.6645 51.1266 27.5625 50L37.5 50L37.5 47.5L27.5 47.5L27.5 32.5L52.5 32.5L52.5 35L55 35L55 31.25C55.0007 28.3166 54.0319 25.4652 52.2442 23.1394C51.8983 22.6855 49.4198 20.152 49.4198 20.152C47.3921 18.1214 46.2522 15.3697 46.25 12.5L46.25 11.25L47.5 11.25L47.5 8.75L46.25 8.75L46.25 5C46.2492 4.3372 45.9856 3.70177 45.5169 3.2331C45.0482 2.76443 44.4128 2.50079 43.75 2.5L36.25 2.5C35.5872 2.50079 34.9518 2.76443 34.4831 3.2331C34.0144 3.70177 33.7508 4.3372 33.75 5L33.75 8.75L32.5 8.75L32.5 11.25L33.75 11.25L33.75 12.5C33.748 15.3697 32.6081 18.1215 30.5802 20.152L28.902 21.8302C28.4925 22.2392 28.1107 22.675 27.7591 23.1348C25.9745 25.4642 25.0051 28.3156 25 31.25L25 48.75C25 48.7628 25.0016 48.7753 25.0019 48.788C25.0135 50.5942 25.3108 52.3872 25.8828 54.1005C26.8887 57.1175 26.8887 60.3794 25.8828 63.3964C25.2983 65.1515 25.0002 66.9892 25 68.8391L25 71.8313C25.0036 72.8968 25.3057 73.94 25.8721 74.8426C26.4384 75.7451 27.2464 76.4709 28.2044 76.9375C29.2638 77.449 30.4561 77.6181 31.616 77.4216C32.776 77.2251 33.846 76.6725 34.6778 75.8406L35.0023 75.5159C36.3572 76.7858 38.1431 77.4948 40 77.5C40.9566 77.5008 41.904 77.3124 42.7875 76.9455L41.8314 74.6356C41.2509 74.8767 40.6285 75.0005 40 75ZM36.25 11.25L43.75 11.25L43.75 12.5C43.7485 13.7694 43.9299 15.0323 44.2884 16.25L35.7116 16.25C36.0701 15.0323 36.2514 13.7694 36.25 12.5L36.25 11.25ZM36.25 5L43.75 5L43.75 8.75L36.25 8.75L36.25 5ZM29.7442 24.6545C30.0227 24.2892 32.348 21.9202 32.348 21.9202C33.282 20.9861 34.0709 19.9176 34.6886 18.75L45.3116 18.75C45.9292 19.9175 46.7181 20.9859 47.652 21.9198C47.652 21.9198 49.9773 24.2892 50.2603 24.6605C51.4534 26.2107 52.2018 28.0566 52.4252 30L27.5748 30C27.8039 28.0555 28.5534 26.2088 29.7442 24.6545Z" fill="rgb(25.5,25.5,25.5)" fill-rule="nonzero" />
		<path id="Vector" d="M30 35L32.5 35L32.5 37.5L30 37.5L30 35Z" fill="rgb(25.5,25.5,25.5)" fill-rule="nonzero" />
		<path id="Vector" d="M30 40L32.5 40L32.5 45L30 45L30 40Z" fill="rgb(25.5,25.5,25.5)" fill-rule="nonzero" />
		<path id="Vector" d="M67.5 38.75C67.5 38.4185 67.3683 38.1005 67.1339 37.8661C66.8995 37.6317 66.5815 37.5 66.25 37.5L41.25 37.5C40.9185 37.5 40.6005 37.6317 40.3661 37.8661C40.1317 38.1005 40 38.4185 40 38.75L40 47.9172C39.9989 51.1249 40.7459 54.2886 42.1817 57.157C43.2336 59.2586 43.8667 61.5447 44.0459 63.888L45.0036 76.3458C45.0277 76.6598 45.1695 76.9532 45.4006 77.1671C45.6317 77.3811 45.9351 77.5 46.25 77.5L61.25 77.5C61.565 77.5 61.8683 77.3811 62.0994 77.1671C62.3305 76.9532 62.4723 76.6598 62.4964 76.3458L63.4541 63.8886C63.6357 61.5458 64.2686 59.2603 65.3178 57.1578C66.7494 54.2876 67.4964 51.1246 67.5 47.9172L67.5 38.75ZM65 40L65 43.75L42.5 43.75L42.5 40L65 40ZM63.0817 56.04C61.8879 58.4315 61.1679 61.0313 60.9614 63.6963L60.0925 75L47.4075 75L46.5386 63.6956C46.3346 61.0302 45.6142 58.4298 44.4177 56.0394C43.1553 53.518 42.4987 50.7369 42.5 47.9172L42.5 46.25L65 46.25L65 47.9172C64.9968 50.7366 64.3402 53.517 63.0817 56.04Z" fill="rgb(25.5,25.5,25.5)" fill-rule="nonzero" />
		<path id="Vector" d="M50 66.25L52.5 66.25L52.5 68.75L50 68.75L50 66.25Z" fill="rgb(25.5,25.5,25.5)" fill-rule="nonzero" />
		<path id="Vector" d="M53.75 61.25L56.25 61.25L56.25 63.75L53.75 63.75L53.75 61.25Z" fill="rgb(25.5,25.5,25.5)" fill-rule="nonzero" />
		<path id="Vector" d="M51.25 52.5L53.75 52.5L53.75 55L51.25 55L51.25 52.5Z" fill="rgb(25.5,25.5,25.5)" fill-rule="nonzero" />
	</g>
</svg>
