<?xml version="1.0" encoding="utf-8"?>
<!-- Generator: Adobe Illustrator 24.0.1, SVG Export Plug-In . SVG Version: 6.00 Build 0)  -->
<svg version="1.1" id="Layer_1" xmlns="http://www.w3.org/2000/svg" xmlns:xlink="http://www.w3.org/1999/xlink" x="0px" y="0px"
	 viewBox="0 0 28.8 36" style="enable-background:new 0 0 28.8 36;" xml:space="preserve">
<style type="text/css">
	.st0{fill:#00B307;}
</style>
<path id="Vector" class="st0" d="M28.8,31.2L26.7,7.9c0-0.5-0.4-0.8-0.9-0.8h-4.4c0-3.9-3.2-7-7-7s-7,3.2-7,7H3
	C2.5,7,2.1,7.4,2.1,7.9L0,31.2c0,0,0,0.1,0,0.1C0,33.9,2.4,36,5.3,36h18.1C26.4,36,28.8,33.9,28.8,31.2
	C28.8,31.3,28.8,31.2,28.8,31.2z M14.4,1.8c2.9,0,5.3,2.4,5.3,5.3H9.1C9.1,4.1,11.5,1.8,14.4,1.8z M23.4,34.2H5.3
	c-1.9,0-3.5-1.3-3.5-2.9l2-22.5h3.5V12c0,0.5,0.4,0.9,0.9,0.9c0.5,0,0.9-0.4,0.9-0.9V8.8h10.5V12c0,0.5,0.4,0.9,0.9,0.9
	c0.5,0,0.9-0.4,0.9-0.9V8.8H25l2,22.5C27,32.9,25.4,34.2,23.4,34.2z"/>
</svg>
