<?xml version="1.0" encoding="utf-8"?>
<!-- Generator: Adobe Illustrator 24.0.1, SVG Export Plug-In . SVG Version: 6.00 Build 0)  -->
<svg version="1.1" id="Layer_1" xmlns="http://www.w3.org/2000/svg" xmlns:xlink="http://www.w3.org/1999/xlink" x="0px" y="0px"
	 viewBox="0 0 72 72" style="enable-background:new 0 0 72 72;" xml:space="preserve">
<style type="text/css">
	.st0{fill:#D8F3D9;}
</style>
<g>
	<path class="st0" d="M72,33.2c-0.2-3-0.8-5.8-1.6-8.7c-0.2-0.6-0.4-1.3-0.7-1.9c-0.1-0.3-0.3-0.6-0.5-0.1c-0.1,0.2-0.3,0.5-0.5,0.4
		c-0.3-0.1-0.5-0.4-0.5-0.7c0-0.6-0.3-1-0.5-1.5c0-0.1-0.1-0.2-0.1-0.2c0.3-0.7-0.3-1.1-0.6-1.5c-0.3-0.5-0.7-1-0.8-1.6
		c-0.2-1-1.1-1.6-1.5-2.4c-0.4-1-1.3-1.7-1.7-2.7c-0.4-0.9-1.3-1.5-1.8-2.3c-1.3-2.3-3.6-3.6-5.6-5.1c-0.1-0.1-0.3-0.3-0.5-0.1
		c-0.2,0.2,0.1,0.3,0.2,0.5C56.1,6,56.9,6.8,58,7.1c0.3,0.1,0.7,0.3,0.5,1c-0.2,0.5,0.3,1.1,0.8,1.4c0.6,0.4,0.8,1.1,1.3,1.5
		c0.1,0.1,0.2,0.2,0.1,0.4c-0.1,0.1-0.3,0.2-0.3,0.1c-0.4-0.3-1.1-0.2-1.3-0.8c-0.1-0.3-0.6-0.4-0.8-0.3c-0.8,0.4-0.6-0.2-0.7-0.5
		c0.3-0.2,0.5,0.4,0.7,0.1c0.2-0.3-0.3-0.4-0.4-0.6c-0.5-0.5-1-0.9-1.5-1.3c-0.1-0.1-0.2-0.3-0.4-0.1c-0.1,0.1-0.1,0.3,0,0.4
		c0.3,0.4,0.7,0.7,1.1,0.9c0.2,0.1,0.3,0.2,0.2,0.4c-0.1,0.2-0.3,0.1-0.5,0c-1.3-0.6-2.4-1.5-3.5-2.4c-1.8-1.5-3.8-2.6-6-3.4
		c-1.3-0.5-2.7-0.9-4.1-1c-0.3,0-0.6-0.1-0.8-0.2c-1-0.4-2.1-0.4-3.1-0.8c-0.9-0.3-1.9-0.5-2.8-0.5c-1.1,0.1-2.2,0.1-3.3,0.1
		c-0.1,0-0.3,0-0.4,0.1c-0.7,0.3-1.4,0.4-2.1,0.2c-0.3-0.1-0.6-0.1-0.9,0c-0.9,0.6-1.7,0.1-2.6,0c0.5-0.3,1-0.2,1.5-0.2
		c0.3,0,0.6,0,0.8-0.2c0.1-0.1,0-0.2-0.1-0.3c-0.3-0.2-0.5-0.1-0.8,0c-0.3,0.1-0.7,0.2-1,0.2c-1.3-0.1-2.4,0.4-3.6,0.7
		c-1.4,0.5-2.7,1.1-4,1.8c-0.9,0.5-1.8,1.1-2.8,1.4c-0.7,0.3-1.2,0.9-1.7,1.6c-0.1,0.2-0.2,0.4,0,0.6c0.2,0.2,0.4-0.1,0.5-0.2
		c1-0.9,2.2-1.5,3.3-2.2c0.1-0.1,0.2-0.1,0.3-0.1c0.3,0,0.6-0.2,0.8,0.2c0.2,0.4-0.3,0.5-0.5,0.5c-2.1,0.8-3.6,2.4-5.3,3.7
		c-0.3,0.2-0.8,0.3-0.9,0.8c1.1-0.4,1.9-1.3,2.9-1.9c1.2-0.7,2.3-1.6,3.8-1.7c0.1,0,0.2,0,0.3,0c0.5,0.2,1,0.1,1.4-0.5
		c-0.1,0.5-0.2,1,0.4,0.9c-1.1,0.6-1.9,1.4-2.8,2.2c-0.9,0.8-2.1,1.2-2.7,2.4c-0.1,0.2-0.3,0.3-0.5,0.4c-0.4,0.1-0.7,0.4-0.9,0.7
		c-0.4,0.5-0.8,0.9-1.5,1c-0.5,0.1-1,0.4-1.3,0.8c-1.2,1.1-2.6,2-3.8,3.1c-0.5,0.4-1.2,0.6-1.3,1.4c0,0.2-0.3,0.6-0.7,0.2
		c-0.3-0.3-0.5,0.1-0.7,0.4c-0.1,0.2,0,0.4-0.1,0.6c-0.1,0.2-0.3,0.3-0.5,0.2c-0.3-0.1,0-0.3,0.1-0.4c0.6-1.1,1.2-2.2,1.9-3.3
		c0.1-0.3,0.2-0.4-0.1-0.6C7.2,15.7,7,15.7,6.9,16c-0.6,1.4-1.7,2.6-2.4,4c-0.5,0.9-0.8,1.8-1.1,2.7c-0.1,0.4-0.2,0.7-0.6,0.9
		c-0.1,0.1-0.2,0.2-0.2,0.4c0.1,0.6-0.2,0.9-0.7,1.1c-0.3,0.1-0.1,0.6-0.3,0.8c-0.9,0.8-0.9,2-1.1,3.1c-0.3,1.5-0.6,3-0.5,4.6
		c0.1,1.3,0.3,2.5,0.5,3.7c0.1,0.6,0,1.2,0,1.7c0,0.3,0,0.6,0.3,0.9c0.7,0.6,0.8,1.5,0.9,2.3c0.1,1.1,0.9,1.4,1.5,1.8
		C3.8,44.4,4,44.8,4,45.4c0,0.6,0.1,1.1,0.4,1.5c0.2,0.3,0.3,0.6,0.1,1c-0.1,0.2-0.1,0.5,0.2,0.6c0.3,0.1,0.5-0.1,0.6-0.4
		c0-0.2,0-0.5,0-0.7c0-0.2-0.1-0.5,0.2-0.5c0.3-0.1,0.3,0.2,0.5,0.4c0.6,0.8,1,1.7,1.3,2.7c0.3,1,1.1,1.8,1.1,2.9
		c0,0.2,0.2,0.4,0.3,0.5c0.7,0.5,0.7,1.1,0.6,1.9C9.1,56,9.6,56.5,10.2,57c0.2,0.1,0.4,0.2,0.4,0.5c0.1,1.1,0.7,1.8,1.4,2.5
		c0.3,0.3,0.8,0.6,0.9,1.1c-0.3,0.1-0.4-0.2-0.7-0.1c0.1,0.7,0.2,1.3,0.8,1.7c0.2,0.2,0.4,0.5,0.6,0.7c0.2,0.3,0.5,0.6,0.9,0.5
		c0.5,0,0.8,0.4,1.2,0.5c0.6,0.3,1.4,0.2,2,0.8c0.3,0.3,0.5,0,0.5-0.3c0-0.5-0.3-0.7-0.7-0.9c-0.7-0.3-1.1-0.8-0.9-1.5
		c0.1-0.5,0-0.7-0.3-1C16,61.4,15.9,61.2,16,61c0.1-0.3,0.3,0,0.4,0c0.2,0.1,0.4,0.1,0.5-0.1c0.2-0.5,0.4-0.2,0.7,0
		c0.4,0.4,0.9,0.8,1.6,0.4c0.4-0.2,0.8,0.3,1.3,0.2c0.2-0.1,0.5,0,0.7,0.1c0.2,0.1,0.4,0.3,0.4,0.4c-0.1,0.6,0,1.2,0.3,1.8
		c0.1,0.2,0.1,0.6,0.3,0.8c0.1,0.1,0.2,0.3,0.1,0.4c-0.1,0.2-0.3,0.1-0.4,0c-0.6-0.5-1.1-0.3-1.7,0.1c-0.1,0.1-0.3,0.2-0.2,0.3
		c0.1,0.2,0.3,0.2,0.4,0.1c0.4-0.3,0.7-0.1,1.1,0.1c0.7,0.4,1.4,0.7,2.2,1c0.1,0.1,0.5,0.3,0.5-0.1c0.1-0.3-0.2-0.3-0.4-0.3
		c-0.1,0-0.1-0.1-0.1-0.1c0.1-0.2,0.2-0.1,0.3-0.1c0.4,0,0.6-0.1,0.2-0.5c-0.1-0.1-0.2-0.3-0.1-0.5c0.1-0.2,0.3-0.3,0.6-0.2
		c0.9,0.3,1.8,0.4,2.6,1.1c0.2,0.2,0.2,0.3,0.2,0.5c-0.2,0.8,0.3,1.5,1.1,1.7c1.3,0.3,2.5,0.4,3.8,0.5c0.8,0.1,1.6-0.2,2.5-0.1
		c0.2,0,0.4-0.1,0.5,0.2c0.1,0.2-0.2,0.3-0.4,0.4c-0.5,0.4-1.1,0.5-1.7,0.5c-1-0.1-2-0.1-3-0.2c-1.2-0.1-2.3-0.4-3.5-0.5
		c-0.7-0.1-1.4-0.5-2-0.7c-0.1-0.3,0.4-0.2,0.4-0.5c-0.5,0.1-0.9-0.4-1.4-0.3c0,0.3,0.5,0.4,0.3,0.7c-0.2,0.3-0.5,0-0.8-0.1
		c-1-0.2-1.7-0.8-2.6-1.1c-0.6-0.3-1.3-0.4-1.8-0.9c-0.2-0.2-0.4,0.1-0.5,0.2c-0.2,0.1-0.2,0.3,0,0.5c0.2,0.3,0.5,0.5,0.8,0.5
		c1.1,0.3,2,1.1,3,1.5c2.1,0.8,4.2,1.7,6.6,1.9c0.5,0,0.9,0.3,1.4,0.3c0.3,0,0.6,0,1-0.2c0.4-0.2,0.7-0.1,0.5,0.4
		c3.4,0,6.8,0,10.2,0c1.3-0.4,2.6-0.6,3.9-0.9c4.7-1.3,8.9-3.5,12.7-6.5c2.3-1.8,4.3-3.8,6-6.2c0.6-0.9,1.3-1.7,1.7-2.7
		c0.2-0.6,0.9-0.9,1.3-1.5c0.6-1.3,1.3-2.5,1.7-4c0-0.1,0-0.1,0-0.2c-0.4-0.9,0.3-1.4,0.7-2c0.4-0.5,0.2-1.1,0.1-1.6
		c-0.1-0.3-0.1-0.7,0.1-1c0.6-1.2,0.9-2.4,1-3.7c0.2-1.6,0.4-3.2,0.3-4.8c0-0.3,0-0.7-0.1-1c-0.1-0.4,0-0.8,0.3-0.9
		C72.1,33.8,72,33.6,72,33.2z M37.1,51.6c-0.4,0-0.8,0-1.2,0C36.3,51.6,36.7,51.6,37.1,51.6c0.4,0,0.8,0,1.3,0
		C37.9,51.6,37.5,51.6,37.1,51.6z"/>
	<path class="st0" d="M5.7,49.6c-0.4,0-0.6,0.2-0.6,0.6c0,0.3,0,0.8,0.5,0.7c0.4,0,0.6-0.4,0.6-0.8C6.3,49.7,6.1,49.5,5.7,49.6z"/>
	<path class="st0" d="M3.9,50.2c-0.6,0-0.1,0.5-0.2,0.8c0,0,0,0.1,0,0.1c0,0.3,0,0.7,0.4,0.7c0.4,0,0.4-0.4,0.4-0.8
		C4.5,50.6,4.3,50.2,3.9,50.2z"/>
	<path class="st0" d="M71.9,36.4c0.2-0.7,0.2-1.4,0-2.1C71.7,35,71.7,35.7,71.9,36.4z"/>
	<path class="st0" d="M21.9,66.6c-0.4-0.3-0.7-0.6-1-0.8c-0.1-0.1-0.2-0.1-0.3,0c-0.1,0.1,0,0.2,0.1,0.3
		C21,66.4,21.3,66.7,21.9,66.6z"/>
	<path class="st0" d="M3.2,47.1c-0.2,0-0.3,0.2-0.3,0.4c0,0.2,0,0.5,0.3,0.5c0.3,0,0.3-0.3,0.3-0.5C3.5,47.3,3.4,47.1,3.2,47.1z"/>
	<path class="st0" d="M26.8,66.6c0-0.2-0.1-0.2-0.2-0.2c-0.1,0-0.2,0-0.2,0.1c0,0.1,0.1,0.1,0.2,0.1C26.7,66.7,26.8,66.6,26.8,66.6z
		"/>
	<path class="st0" d="M24.7,66.8c0,0-0.1-0.1-0.1-0.1c-0.1,0.1-0.1,0.1-0.1,0.1c0,0,0.1,0.1,0.1,0.1C24.6,66.9,24.7,66.9,24.7,66.8z
		"/>
	<polygon class="st0" points="13.7,10 13.7,10 13.7,10 13.7,10 	"/>
	<path class="st0" d="M13.6,10.1c0,0,0.1-0.1,0.1-0.1C13.6,10,13.5,9.9,13.6,10.1z"/>
</g>
</svg>
