<svg viewBox="0 0 33.8599 36" xmlns="http://www.w3.org/2000/svg" xmlns:xlink="http://www.w3.org/1999/xlink" width="33.859863" height="36.000000" fill="none" customFrame="#000000">
	<path id="Vector" d="M29.2462 13.6891L29.2462 12.305C29.2462 8.99244 28.074 5.91429 25.9487 3.63025C23.7706 1.28571 20.7756 0 17.5084 0L16.3664 0C13.0992 0 10.1042 1.28571 7.92605 3.63025C5.80084 5.91429 4.62857 8.99244 4.62857 12.305L4.62857 13.6891C2.04958 13.863 0 16.0109 0 18.6353L0 20.7983C0 23.5286 2.22353 25.7521 4.95378 25.7521L7.74454 25.7521C8.2437 25.7521 8.6521 25.3437 8.6521 24.8445L8.6521 14.5815C8.6521 14.0824 8.2437 13.674 7.74454 13.674L6.4437 13.674L6.4437 12.305C6.4437 6.32269 10.7092 1.81513 16.3588 1.81513L17.5008 1.81513C23.158 1.81513 27.416 6.32269 27.416 12.305L27.416 13.674L26.1151 13.674C25.616 13.674 25.2076 14.0824 25.2076 14.5815L25.2076 24.837C25.2076 25.3361 25.616 25.7445 26.1151 25.7445L27.3857 25.7445C27.0151 30.479 23.7555 31.5756 22.2429 31.8252C21.8269 30.5471 20.6244 29.6244 19.2101 29.6244L16.9412 29.6244C15.1866 29.6244 13.7571 31.0538 13.7571 32.8084C13.7571 34.563 15.1866 36 16.9412 36L19.2176 36C20.6849 36 21.9176 35.0017 22.2882 33.6555C23.0294 33.5496 24.2017 33.2849 25.3664 32.6042C27.0076 31.6437 28.9513 29.6849 29.2084 25.737C31.8025 25.5782 33.8597 23.4227 33.8597 20.7908L33.8597 18.6277C33.8672 16.0109 31.8252 13.8555 29.2462 13.6891ZM6.8521 23.9294L4.96891 23.9294C3.23697 23.9294 1.83025 22.5227 1.83025 20.7908L1.83025 18.6277C1.83025 16.8958 3.23697 15.4891 4.96891 15.4891L6.8521 15.4891L6.8521 23.9294ZM19.2176 34.1849L16.9412 34.1849C16.1849 34.1849 15.5723 33.5723 15.5723 32.816C15.5723 32.0597 16.1849 31.4471 16.9412 31.4471L19.2176 31.4471C19.9739 31.4471 20.5866 32.0597 20.5866 32.816C20.5866 33.5723 19.9739 34.1849 19.2176 34.1849ZM32.0521 20.7908C32.0521 22.5227 30.6454 23.9294 28.9134 23.9294L27.0303 23.9294L27.0303 15.4891L28.9134 15.4891C30.6454 15.4891 32.0521 16.8958 32.0521 18.6277L32.0521 20.7908Z" fill="rgb(0,178.5,6.8)" fill-rule="nonzero" />
</svg>
